<?xml version="1.0" encoding="UTF-8" standalone="no"?>
<!DOCTYPE svg PUBLIC "-//W3C//DTD SVG 1.1//EN" "http://www.w3.org/Graphics/SVG/1.1/DTD/svg11.dtd">
<svg width="100%" height="100%" viewBox="0 0 180 207" version="1.1" xmlns="http://www.w3.org/2000/svg" xmlns:xlink="http://www.w3.org/1999/xlink" xml:space="preserve" xmlns:serif="http://www.serif.com/" style="fill-rule:evenodd;clip-rule:evenodd;stroke-linecap:round;stroke-linejoin:round;stroke-miterlimit:1.5;">
    <g transform="matrix(1,0,0,1,-89.5039,-408.5)">
        <g transform="matrix(1.55,0,0,1.55,-290,-108)">
            <rect x="200" y="300" width="800" height="200" style="fill:white;"/>
        </g>
        <g transform="matrix(1,0,0,1,-208.528,-27)">
            <g transform="matrix(0.848739,0,0,0.848739,141.017,319.176)">
                <path d="M291,140L394.057,199.5L394.057,318.5L291,378L187.943,318.5L187.943,199.5L291,140Z" style="fill:rgb(100,91,91);stroke:rgb(100,91,91);stroke-width:5.89px;"/>
            </g>
            <g transform="matrix(0.260169,0,0,0.260169,262.599,452.884)">
                <path d="M482,218L579.861,274.5L579.861,387.5L482,444L384.139,387.5L384.139,274.5L482,218Z" style="fill:white;stroke:white;stroke-width:19.22px;"/>
            </g>
            <g transform="matrix(0.474178,0,0,0.474178,154.23,361.657)">
                <circle cx="493" cy="520" r="36" style="fill:white;stroke:white;stroke-width:10.54px;"/>
            </g>
            <g transform="matrix(0.474178,0,0,0.474178,92.5869,313.291)">
                <g transform="matrix(-0.5,-0.866025,0.866025,-0.5,399.223,1053.22)">
                    <rect x="503" y="436" width="17" height="83" style="fill:white;stroke:white;stroke-width:4.22px;"/>
                </g>
                <g transform="matrix(0.5,-0.866025,0.866025,0.5,11.2225,570.814)">
                    <rect x="503" y="436" width="17" height="83" style="fill:white;stroke:white;stroke-width:4.22px;"/>
                </g>
                <g transform="matrix(-0.5,0.866025,-0.866025,-0.5,1212.17,225.528)">
                    <rect x="503" y="436" width="17" height="83" style="fill:white;stroke:white;stroke-width:4.22px;"/>
                </g>
                <g transform="matrix(0.5,-0.866025,0.866025,0.5,33.8302,726.472)">
                    <rect x="503" y="436" width="17" height="83" style="fill:white;stroke:white;stroke-width:4.22px;"/>
                </g>
                <g transform="matrix(-1,-4.996e-16,4.996e-16,-1,1134.5,861)">
                    <rect x="503" y="436" width="17" height="83" style="fill:white;stroke:white;stroke-width:4.22px;"/>
                </g>
                <g transform="matrix(1,4.44089e-16,-4.44089e-16,1,111.5,91)">
                    <rect x="503" y="436" width="17" height="83" style="fill:white;stroke:white;stroke-width:4.22px;"/>
                </g>
                <g transform="matrix(0.5,0.866025,-0.866025,0.5,846.777,-101.222)">
                    <rect x="503" y="436" width="17" height="83" style="fill:white;stroke:white;stroke-width:4.22px;"/>
                </g>
                <g transform="matrix(-0.5,-0.866025,0.866025,-0.5,545.33,1111.47)">
                    <rect x="503" y="436" width="17" height="83" style="fill:white;stroke:white;stroke-width:4.22px;"/>
                </g>
                <g transform="matrix(0.5,0.866025,-0.866025,0.5,700.67,-159.472)">
                    <rect x="503" y="436" width="17" height="83" style="fill:white;stroke:white;stroke-width:4.22px;"/>
                </g>
                <g transform="matrix(1,4.44089e-16,-4.44089e-16,1,-11.9997,-6.40768)">
                    <rect x="503" y="436" width="17" height="83" style="fill:white;stroke:white;stroke-width:4.22px;"/>
                </g>
                <g transform="matrix(-0.5,0.866025,-0.866025,-0.5,1234.78,381.186)">
                    <rect x="503" y="436" width="17" height="83" style="fill:white;stroke:white;stroke-width:4.22px;"/>
                </g>
                <g transform="matrix(1,2.77556e-16,-2.77556e-16,1,235,-6.40768)">
                    <rect x="503" y="436" width="17" height="83" style="fill:white;stroke:white;stroke-width:4.22px;"/>
                </g>
            </g>
            <g transform="matrix(-0.474178,2.63222e-17,-2.63222e-17,-0.474178,621.77,716.343)">
                <circle cx="493" cy="520" r="36" style="fill:white;stroke:white;stroke-width:10.54px;"/>
            </g>
            <g transform="matrix(0.237089,0.410651,-0.410651,0.237089,424.698,247.878)">
                <circle cx="493" cy="520" r="36" style="fill:white;stroke:white;stroke-width:10.54px;"/>
            </g>
            <g transform="matrix(-0.237089,-0.410651,0.410651,-0.237089,351.302,830.122)">
                <circle cx="493" cy="520" r="36" style="fill:white;stroke:white;stroke-width:10.54px;"/>
            </g>
            <g transform="matrix(-0.237089,0.410651,-0.410651,-0.237089,658.468,425.221)">
                <circle cx="493" cy="520" r="36" style="fill:white;stroke:white;stroke-width:10.54px;"/>
            </g>
            <g transform="matrix(0.237089,-0.410651,0.410651,0.237089,117.532,652.779)">
                <circle cx="493" cy="520" r="36" style="fill:white;stroke:white;stroke-width:10.54px;"/>
            </g>
            <g transform="matrix(-0.474178,-2.369e-16,2.369e-16,-0.474178,621.77,716.343)">
                <circle cx="493" cy="520" r="36" style="fill:white;stroke:white;stroke-width:10.54px;"/>
            </g>
            <g transform="matrix(0.474178,2.10578e-16,-2.10578e-16,0.474178,154.23,361.657)">
                <circle cx="493" cy="520" r="36" style="fill:white;stroke:white;stroke-width:10.54px;"/>
            </g>
            <g transform="matrix(-0.237089,-0.410651,0.410651,-0.237089,351.302,830.122)">
                <circle cx="493" cy="520" r="36" style="fill:white;stroke:white;stroke-width:10.54px;"/>
            </g>
            <g transform="matrix(0.237089,0.410651,-0.410651,0.237089,424.698,247.878)">
                <circle cx="493" cy="520" r="36" style="fill:white;stroke:white;stroke-width:10.54px;"/>
            </g>
        </g>
    </g>
</svg>
