<?xml version="1.0" encoding="UTF-8" standalone="no"?>
<!DOCTYPE svg PUBLIC "-//W3C//DTD SVG 1.1//EN" "http://www.w3.org/Graphics/SVG/1.1/DTD/svg11.dtd">
<svg width="100%" height="100%" viewBox="0 0 189 209" version="1.1" xmlns="http://www.w3.org/2000/svg" xmlns:xlink="http://www.w3.org/1999/xlink" xml:space="preserve" xmlns:serif="http://www.serif.com/" style="fill-rule:evenodd;clip-rule:evenodd;stroke-linejoin:round;stroke-miterlimit:2;">
    <g transform="matrix(1,0,0,1,-89.1147,-407.906)">
        <g transform="matrix(1.55,0,0,1.55,-310,-90)">
            <rect x="200" y="300" width="800" height="200" style="fill:white;"/>
        </g>
        <g>
            <g transform="matrix(0.576601,0,0,0.588855,-88.9985,118.059)">
                <path d="M472.449,518.675C562.712,518.675 635.995,591.958 635.995,682.222C635.995,772.485 562.712,845.768 472.449,845.768C382.185,845.768 308.902,772.485 308.902,682.222C308.902,591.958 382.185,518.675 472.449,518.675ZM472.449,539.369C551.291,539.369 615.301,603.379 615.301,682.222C615.301,761.064 551.291,825.074 472.449,825.074C393.606,825.074 329.596,761.064 329.596,682.222C329.596,603.379 393.606,539.369 472.449,539.369Z" style="fill:rgb(100,91,91);"/>
            </g>
            <g transform="matrix(0.576601,0,0,0.588855,-87.5867,107.59)">
                <path d="M500,532.644C490.263,530.907 480.236,530 470,530C459.764,530 449.737,530.907 440,532.644L440,527.273C440,517.734 447.898,510 457.641,510C465.38,510 474.45,510 482.207,510C486.926,510 491.452,511.836 494.789,515.103C498.125,518.37 500,522.802 500,527.423L500,532.644Z" style="fill:rgb(100,91,91);"/>
            </g>
            <g transform="matrix(0.576601,0,0,0.588855,-87.5867,107.59)">
                <path d="M469.836,570C541.494,570 599.671,628.177 599.671,699.836C599.671,771.494 541.494,829.671 469.836,829.671C398.177,829.671 340,771.494 340,699.836C340,628.177 398.177,570 469.836,570ZM526.544,608.231C526.933,606.694 526.229,605.091 524.822,604.309C523.415,603.528 521.649,603.759 520.501,604.876C497.818,626.94 440.78,682.419 440.78,682.419C440.78,682.419 420.381,762.994 412.99,792.191C412.659,793.497 413.257,794.859 414.452,795.523C415.647,796.187 417.148,795.99 418.123,795.042C439.773,773.982 499.22,716.159 499.22,716.159C499.22,716.159 518.797,638.828 526.544,608.231ZM479.034,683.641C487.098,688.297 489.865,698.623 485.209,706.686C480.554,714.749 470.228,717.516 462.164,712.861C454.101,708.206 451.334,697.879 455.99,689.816C460.645,681.753 470.971,678.986 479.034,683.641Z" style="fill:rgb(100,91,91);"/>
            </g>
        </g>
    </g>
</svg>
