<?xml version="1.0" encoding="UTF-8" standalone="no"?><!DOCTYPE svg PUBLIC "-//W3C//DTD SVG 1.1//EN" "http://www.w3.org/Graphics/SVG/1.1/DTD/svg11.dtd"><svg width="100%" height="100%" viewBox="0 0 4578 863" version="1.1" xmlns="http://www.w3.org/2000/svg" xmlns:xlink="http://www.w3.org/1999/xlink" xml:space="preserve" xmlns:serif="http://www.serif.com/" style="fill-rule:evenodd;clip-rule:evenodd;stroke-linecap:round;stroke-linejoin:round;stroke-miterlimit:1.5;"><g><g transform="matrix(632.912,0,0,632.912,905.668,594.423)"><path d="M0.439,-0.074c-0,0.009 -0.001,0.017 -0.002,0.022c-0.001,0.005 -0.004,0.01 -0.008,0.014c-0.005,0.005 -0.011,0.009 -0.019,0.015c-0.009,0.005 -0.019,0.01 -0.031,0.015c-0.012,0.004 -0.025,0.008 -0.04,0.011c-0.016,0.003 -0.032,0.005 -0.05,0.005c-0.035,-0 -0.067,-0.006 -0.096,-0.018c-0.029,-0.011 -0.054,-0.028 -0.075,-0.05c-0.02,-0.023 -0.036,-0.05 -0.048,-0.083c-0.011,-0.033 -0.017,-0.07 -0.017,-0.112c0,-0.042 0.006,-0.08 0.018,-0.113c0.011,-0.033 0.027,-0.062 0.048,-0.085c0.021,-0.023 0.046,-0.04 0.075,-0.052c0.029,-0.012 0.061,-0.018 0.097,-0.018c0.015,-0 0.03,0.001 0.044,0.003c0.014,0.003 0.027,0.007 0.039,0.011c0.012,0.005 0.023,0.01 0.032,0.015c0.01,0.005 0.017,0.01 0.021,0.015c0.004,0.004 0.007,0.009 0.009,0.014c0.001,0.006 0.002,0.014 0.002,0.025c-0,0.006 -0,0.011 -0.001,0.015c-0.001,0.004 -0.002,0.008 -0.003,0.011c-0.001,0.002 -0.002,0.004 -0.004,0.006c-0.001,0.001 -0.003,0.002 -0.006,0.002c-0.003,-0 -0.008,-0.003 -0.014,-0.008c-0.007,-0.005 -0.015,-0.01 -0.025,-0.016c-0.01,-0.006 -0.023,-0.011 -0.038,-0.016c-0.015,-0.005 -0.033,-0.008 -0.054,-0.008c-0.023,0 -0.044,0.005 -0.062,0.014c-0.019,0.009 -0.035,0.022 -0.048,0.038c-0.013,0.017 -0.023,0.038 -0.031,0.062c-0.007,0.025 -0.01,0.052 -0.01,0.082c-0,0.032 0.003,0.06 0.011,0.085c0.008,0.024 0.019,0.044 0.033,0.061c0.014,0.016 0.03,0.028 0.05,0.037c0.019,0.008 0.041,0.012 0.064,0.012c0.02,0 0.037,-0.002 0.051,-0.007c0.014,-0.005 0.027,-0.01 0.036,-0.016c0.01,-0.006 0.019,-0.011 0.025,-0.016c0.007,-0.005 0.012,-0.007 0.016,-0.007c0.002,-0 0.004,0 0.005,0.001c0.001,0.001 0.002,0.003 0.003,0.006c0.001,0.002 0.002,0.006 0.002,0.011c0.001,0.004 0.001,0.01 0.001,0.017Z" style="fill:#5e59a3;fill-rule:nonzero;"/></g><g transform="matrix(632.912,0,0,632.912,1198.95,594.423)"><path d="M0.533,-0.265c0,0.043 -0.005,0.081 -0.016,0.114c-0.01,0.034 -0.026,0.063 -0.047,0.086c-0.02,0.024 -0.046,0.042 -0.076,0.055c-0.031,0.012 -0.066,0.019 -0.106,0.019c-0.04,-0 -0.074,-0.006 -0.104,-0.017c-0.03,-0.011 -0.055,-0.027 -0.075,-0.049c-0.02,-0.022 -0.035,-0.05 -0.045,-0.083c-0.009,-0.033 -0.014,-0.071 -0.014,-0.114c-0,-0.041 0.005,-0.079 0.016,-0.112c0.011,-0.033 0.026,-0.062 0.047,-0.085c0.021,-0.024 0.047,-0.042 0.077,-0.054c0.031,-0.013 0.066,-0.019 0.106,-0.019c0.038,-0 0.072,0.005 0.101,0.016c0.03,0.011 0.054,0.028 0.075,0.05c0.02,0.021 0.035,0.048 0.046,0.081c0.01,0.032 0.015,0.069 0.015,0.112Zm-0.087,0.006c0,-0.029 -0.002,-0.055 -0.008,-0.079c-0.005,-0.024 -0.014,-0.045 -0.026,-0.062c-0.012,-0.018 -0.028,-0.032 -0.047,-0.041c-0.02,-0.01 -0.044,-0.015 -0.073,-0.015c-0.028,-0 -0.052,0.005 -0.072,0.016c-0.02,0.01 -0.036,0.024 -0.048,0.042c-0.012,0.018 -0.021,0.039 -0.027,0.063c-0.005,0.024 -0.008,0.049 -0.008,0.076c-0,0.029 0.002,0.056 0.008,0.081c0.005,0.024 0.013,0.045 0.026,0.063c0.012,0.018 0.028,0.031 0.047,0.041c0.02,0.01 0.044,0.014 0.073,0.014c0.028,0 0.052,-0.005 0.072,-0.016c0.02,-0.01 0.036,-0.025 0.049,-0.043c0.012,-0.018 0.021,-0.04 0.026,-0.064c0.006,-0.024 0.008,-0.05 0.008,-0.076Z" style="fill:#5e59a3;fill-rule:nonzero;"/></g><g transform="matrix(632.912,0,0,632.912,1567.94,594.423)"><path d="M0.492,-0.032c0,0.011 -0.003,0.019 -0.008,0.024c-0.006,0.005 -0.013,0.008 -0.021,0.008l-0.056,-0c-0.01,-0 -0.018,-0.003 -0.025,-0.008c-0.006,-0.005 -0.012,-0.013 -0.017,-0.023l-0.136,-0.256c-0.014,-0.024 -0.026,-0.049 -0.039,-0.074c-0.013,-0.025 -0.026,-0.05 -0.039,-0.075l-0,0c-0,0.012 -0,0.023 0,0.035l0.002,0.073c-0,0.012 -0,0.023 -0,0.035l-0,0.282c-0,0.002 -0.001,0.004 -0.002,0.006c-0.001,0.002 -0.003,0.003 -0.006,0.004c-0.003,0.001 -0.006,0.002 -0.011,0.003c-0.004,0.001 -0.01,0.001 -0.017,0.001c-0.008,-0 -0.014,-0 -0.019,-0.001c-0.005,-0.001 -0.009,-0.002 -0.012,-0.003c-0.003,-0.001 -0.005,-0.002 -0.006,-0.004c-0.001,-0.002 -0.001,-0.004 -0.001,-0.006l-0,-0.472c-0,-0.011 0.003,-0.02 0.009,-0.025c0.006,-0.005 0.013,-0.008 0.021,-0.008l0.06,0c0.006,0 0.011,0.001 0.015,0.002c0.005,0.002 0.009,0.004 0.012,0.006c0.003,0.002 0.006,0.006 0.009,0.009c0.003,0.004 0.005,0.009 0.008,0.014l0.124,0.233c0.014,0.026 0.028,0.052 0.042,0.078c0.013,0.027 0.027,0.053 0.04,0.08l0.001,-0c0,-0.013 -0,-0.027 -0,-0.041l-0.001,-0.083c-0,-0.014 -0.001,-0.027 -0.001,-0.04l0,-0.245c0,-0.003 0.001,-0.005 0.002,-0.007c0.001,-0.002 0.003,-0.003 0.006,-0.005c0.003,-0.001 0.006,-0.002 0.011,-0.003c0.005,-0 0.011,-0.001 0.018,-0.001c0.008,0 0.014,0.001 0.019,0.001c0.005,0.001 0.008,0.002 0.011,0.003c0.003,0.002 0.005,0.003 0.006,0.005c0.001,0.002 0.001,0.004 0.001,0.007l0,0.471Z" style="fill:#5e59a3;fill-rule:nonzero;"/></g><g transform="matrix(632.912,0,0,632.912,1929.21,594.423)"><path d="M0.405,-0.482c0,0.012 -0.001,0.021 -0.003,0.026c-0.003,0.006 -0.006,0.008 -0.011,0.008l-0.14,0l-0,0.437c-0,0.002 -0.001,0.004 -0.002,0.006c-0.002,0.002 -0.004,0.003 -0.007,0.004c-0.003,0.001 -0.007,0.002 -0.012,0.003c-0.006,0.001 -0.012,0.001 -0.021,0.001c-0.008,-0 -0.015,-0 -0.02,-0.001c-0.005,-0.001 -0.009,-0.002 -0.012,-0.003c-0.003,-0.001 -0.006,-0.002 -0.007,-0.004c-0.001,-0.002 -0.002,-0.004 -0.002,-0.006l-0,-0.437l-0.14,0c-0.002,0 -0.004,-0 -0.006,-0.002c-0.002,-0.001 -0.004,-0.003 -0.005,-0.006c-0.001,-0.003 -0.002,-0.006 -0.003,-0.011c-0,-0.004 -0,-0.009 -0,-0.015c-0,-0.006 -0,-0.011 0,-0.015c0.001,-0.005 0.002,-0.008 0.003,-0.011c0.001,-0.003 0.003,-0.005 0.005,-0.006c0.002,-0.001 0.004,-0.002 0.006,-0.002l0.363,0c0.002,0 0.004,0.001 0.006,0.002c0.002,0.001 0.003,0.003 0.005,0.006c0.001,0.003 0.002,0.006 0.002,0.011c0.001,0.004 0.001,0.009 0.001,0.015Z" style="fill:#5e59a3;fill-rule:nonzero;"/></g><g transform="matrix(632.912,0,0,632.912,2194.05,594.423)"><path d="M0.382,-0.033c-0,0.006 -0,0.011 -0.001,0.015c-0.001,0.004 -0.002,0.008 -0.003,0.01c-0.001,0.003 -0.002,0.005 -0.004,0.006c-0.002,0.001 -0.004,0.002 -0.006,0.002l-0.262,0c-0.007,0 -0.013,-0.002 -0.019,-0.007c-0.005,-0.005 -0.008,-0.013 -0.008,-0.023l-0,-0.455c-0,-0.011 0.003,-0.019 0.008,-0.024c0.006,-0.004 0.012,-0.007 0.019,-0.007l0.259,0c0.002,0 0.004,0.001 0.006,0.002c0.002,0.001 0.003,0.003 0.004,0.006c0.001,0.002 0.002,0.006 0.003,0.01c0.001,0.005 0.001,0.01 0.001,0.016c-0,0.005 -0,0.01 -0.001,0.014c-0.001,0.005 -0.002,0.008 -0.003,0.01c-0.001,0.003 -0.002,0.005 -0.004,0.006c-0.002,0.001 -0.004,0.002 -0.006,0.002l-0.203,-0l-0,0.15l0.175,0c0.002,0 0.004,0.001 0.006,0.002c0.002,0.001 0.003,0.003 0.005,0.006c0.001,0.002 0.002,0.006 0.002,0.01c0.001,0.004 0.001,0.009 0.001,0.015c0,0.006 -0,0.011 -0.001,0.015c-0,0.004 -0.001,0.007 -0.002,0.01c-0.002,0.002 -0.003,0.004 -0.005,0.005c-0.002,0.002 -0.004,0.002 -0.006,0.002l-0.175,0l-0,0.17l0.206,-0c0.002,-0 0.004,0 0.006,0.001c0.002,0.001 0.003,0.003 0.004,0.006c0.001,0.002 0.002,0.006 0.003,0.01c0.001,0.004 0.001,0.009 0.001,0.015Z" style="fill:#5e59a3;fill-rule:nonzero;"/></g><g transform="matrix(632.912,0,0,632.912,2467.24,594.423)"><path d="M0.438,-0.03c0.005,0.008 0.008,0.014 0.008,0.018c0.001,0.004 -0,0.007 -0.003,0.009c-0.003,0.002 -0.008,0.004 -0.015,0.005c-0.006,0.001 -0.015,0.001 -0.025,0.001c-0.01,-0 -0.018,-0 -0.024,-0.001c-0.007,-0 -0.011,-0.001 -0.015,-0.002c-0.004,-0.002 -0.006,-0.003 -0.008,-0.005c-0.001,-0.002 -0.003,-0.005 -0.005,-0.007l-0.111,-0.186l-0.006,-0.011l-0.005,0.011l-0.112,0.186c-0.001,0.002 -0.003,0.005 -0.005,0.007c-0.001,0.002 -0.004,0.003 -0.007,0.005c-0.004,0.001 -0.008,0.002 -0.014,0.002c-0.005,0.001 -0.012,0.001 -0.021,0.001c-0.01,-0 -0.018,-0 -0.025,-0.001c-0.006,-0.001 -0.011,-0.003 -0.014,-0.005c-0.003,-0.002 -0.004,-0.005 -0.004,-0.009c0.001,-0.004 0.003,-0.009 0.008,-0.017l0.147,-0.233l-0.14,-0.224c-0.003,-0.007 -0.006,-0.013 -0.007,-0.017c-0,-0.005 0.001,-0.008 0.004,-0.01c0.003,-0.002 0.007,-0.004 0.014,-0.005c0.006,-0 0.015,-0.001 0.027,-0.001c0.009,0 0.017,0.001 0.022,0.001c0.006,0.001 0.01,0.001 0.013,0.003c0.004,0.001 0.006,0.002 0.008,0.004c0.002,0.002 0.003,0.004 0.005,0.007l0.106,0.172l0.007,0.013l0.006,-0.013l0.104,-0.171c0.001,-0.003 0.002,-0.005 0.004,-0.007c0.002,-0.002 0.004,-0.004 0.007,-0.005c0.003,-0.001 0.007,-0.002 0.013,-0.003c0.005,-0 0.013,-0.001 0.022,-0.001c0.011,0 0.019,0.001 0.025,0.002c0.007,0.001 0.011,0.003 0.013,0.005c0.003,0.002 0.003,0.005 0.003,0.01c-0.001,0.004 -0.004,0.009 -0.007,0.016l-0.139,0.222l0.146,0.234Z" style="fill:#5e59a3;fill-rule:nonzero;"/></g><g transform="matrix(632.912,0,0,632.912,2767.63,594.423)"><path d="M0.405,-0.482c0,0.012 -0.001,0.021 -0.003,0.026c-0.003,0.006 -0.006,0.008 -0.011,0.008l-0.14,0l-0,0.437c-0,0.002 -0.001,0.004 -0.002,0.006c-0.002,0.002 -0.004,0.003 -0.007,0.004c-0.003,0.001 -0.007,0.002 -0.012,0.003c-0.006,0.001 -0.012,0.001 -0.021,0.001c-0.008,-0 -0.015,-0 -0.02,-0.001c-0.005,-0.001 -0.009,-0.002 -0.012,-0.003c-0.003,-0.001 -0.006,-0.002 -0.007,-0.004c-0.001,-0.002 -0.002,-0.004 -0.002,-0.006l-0,-0.437l-0.14,0c-0.002,0 -0.004,-0 -0.006,-0.002c-0.002,-0.001 -0.004,-0.003 -0.005,-0.006c-0.001,-0.003 -0.002,-0.006 -0.003,-0.011c-0,-0.004 -0,-0.009 -0,-0.015c-0,-0.006 -0,-0.011 0,-0.015c0.001,-0.005 0.002,-0.008 0.003,-0.011c0.001,-0.003 0.003,-0.005 0.005,-0.006c0.002,-0.001 0.004,-0.002 0.006,-0.002l0.363,0c0.002,0 0.004,0.001 0.006,0.002c0.002,0.001 0.003,0.003 0.005,0.006c0.001,0.003 0.002,0.006 0.002,0.011c0.001,0.004 0.001,0.009 0.001,0.015Z" style="fill:#5e59a3;fill-rule:nonzero;"/></g><g transform="matrix(632.912,0,0,632.912,3032.47,594.423)"><path d="M0.491,-0.2c0,0.038 -0.005,0.069 -0.015,0.093c-0.01,0.025 -0.024,0.046 -0.041,0.063c-0.018,0.017 -0.04,0.03 -0.066,0.039c-0.026,0.009 -0.054,0.014 -0.086,0.014c-0.031,-0 -0.059,-0.004 -0.085,-0.013c-0.025,-0.008 -0.047,-0.02 -0.065,-0.037c-0.018,-0.016 -0.032,-0.037 -0.041,-0.061c-0.01,-0.024 -0.014,-0.057 -0.014,-0.098l-0,-0.305c-0,-0.002 0,-0.004 0.002,-0.005c0.001,-0.002 0.003,-0.004 0.006,-0.005c0.004,-0.001 0.008,-0.002 0.013,-0.003c0.005,-0 0.012,-0.001 0.02,-0.001c0.008,0 0.015,0.001 0.02,0.001c0.006,0.001 0.01,0.002 0.013,0.003c0.003,0.001 0.005,0.003 0.007,0.005c0.001,0.001 0.002,0.003 0.002,0.005l-0,0.299c-0,0.032 0.002,0.056 0.008,0.072c0.006,0.016 0.014,0.03 0.026,0.041c0.011,0.011 0.024,0.02 0.04,0.025c0.015,0.006 0.032,0.008 0.051,0.008c0.018,0 0.035,-0.002 0.05,-0.008c0.016,-0.005 0.029,-0.014 0.04,-0.025c0.011,-0.011 0.019,-0.024 0.025,-0.041c0.005,-0.016 0.008,-0.038 0.008,-0.067l-0,-0.304c-0,-0.002 0,-0.004 0.002,-0.005c0.001,-0.002 0.003,-0.004 0.006,-0.005c0.003,-0.001 0.007,-0.002 0.013,-0.003c0.005,-0 0.011,-0.001 0.019,-0.001c0.01,0 0.017,0.001 0.022,0.001c0.005,0.001 0.009,0.002 0.012,0.003c0.003,0.001 0.005,0.003 0.007,0.005c0.001,0.001 0.001,0.003 0.001,0.005l0,0.305Z" style="fill:#5e59a3;fill-rule:nonzero;"/></g><g transform="matrix(632.912,0,0,632.912,3381.38,594.423)"><path d="M0.482,-0.029c0.002,0.007 0.003,0.013 0.004,0.017c0,0.004 -0.001,0.007 -0.003,0.01c-0.003,0.002 -0.007,0.003 -0.014,0.004c-0.006,0.001 -0.014,0.001 -0.025,0.001c-0.011,-0 -0.019,-0 -0.025,-0.001c-0.006,-0 -0.011,-0.001 -0.014,-0.002c-0.003,-0.001 -0.006,-0.002 -0.007,-0.004c-0.001,-0.002 -0.002,-0.005 -0.003,-0.008l-0.043,-0.115l-0.218,-0l-0.04,0.114c-0.002,0.003 -0.003,0.006 -0.005,0.008c-0.002,0.002 -0.004,0.003 -0.007,0.005c-0.003,0.001 -0.008,0.002 -0.013,0.002c-0.006,0.001 -0.014,0.001 -0.023,0.001c-0.009,-0 -0.017,-0 -0.023,-0.001c-0.005,-0.001 -0.009,-0.003 -0.012,-0.005c-0.002,-0.002 -0.003,-0.006 -0.002,-0.01c-0,-0.005 0.001,-0.01 0.004,-0.017l0.176,-0.471c0.002,-0.004 0.003,-0.007 0.005,-0.009c0.002,-0.003 0.005,-0.004 0.009,-0.005c0.004,-0.002 0.009,-0.002 0.015,-0.003c0.007,-0 0.015,-0.001 0.024,-0.001c0.009,0 0.015,0.001 0.021,0.001c0.006,-0 0.011,0 0.015,0.001c0.003,0 0.007,0.001 0.01,0.002c0.003,0 0.005,0.001 0.007,0.003c0.002,0.001 0.003,0.003 0.005,0.005c0.001,0.002 0.002,0.004 0.003,0.007l0.179,0.471Zm-0.24,-0.409l-0.001,0l-0.085,0.245l0.175,0l-0.089,-0.245Z" style="fill:#5e59a3;fill-rule:nonzero;"/></g><g transform="matrix(632.912,0,0,632.912,3694.13,594.423)"><path d="M0.356,-0.034c-0,0.012 -0.001,0.021 -0.004,0.026c-0.003,0.005 -0.006,0.008 -0.011,0.008l-0.235,-0c-0.007,-0 -0.013,-0.002 -0.019,-0.007c-0.005,-0.005 -0.008,-0.013 -0.008,-0.023l-0,-0.475c-0,-0.002 0,-0.004 0.002,-0.005c0.001,-0.002 0.003,-0.004 0.006,-0.005c0.004,-0.001 0.008,-0.002 0.013,-0.003c0.006,-0 0.012,-0.001 0.02,-0.001c0.008,0 0.015,0.001 0.02,0.001c0.005,0.001 0.01,0.002 0.013,0.003c0.003,0.001 0.005,0.003 0.007,0.005c0.001,0.001 0.002,0.003 0.002,0.005l-0,0.437l0.179,0c0.002,0 0.004,0.001 0.006,0.002c0.002,0.001 0.004,0.003 0.005,0.006c0.001,0.002 0.002,0.006 0.003,0.01c0.001,0.005 0.001,0.01 0.001,0.016Z" style="fill:#5e59a3;fill-rule:nonzero;"/></g><g transform="matrix(632.912,0,0,632.912,3921.58,594.423)"><path d="M0.162,-0.011c-0,0.002 -0.001,0.004 -0.002,0.006c-0.002,0.002 -0.004,0.003 -0.007,0.004c-0.003,0.001 -0.008,0.002 -0.013,0.003c-0.005,0.001 -0.012,0.001 -0.02,0.001c-0.008,-0 -0.014,-0 -0.02,-0.001c-0.005,-0.001 -0.009,-0.002 -0.013,-0.003c-0.003,-0.001 -0.005,-0.002 -0.006,-0.004c-0.002,-0.002 -0.002,-0.004 -0.002,-0.006l-0,-0.494c-0,-0.002 0,-0.004 0.002,-0.005c0.001,-0.002 0.004,-0.004 0.007,-0.005c0.003,-0.001 0.007,-0.002 0.013,-0.003c0.005,-0 0.011,-0.001 0.019,-0.001c0.008,0 0.015,0.001 0.02,0.001c0.005,0.001 0.01,0.002 0.013,0.003c0.003,0.001 0.005,0.003 0.007,0.005c0.001,0.001 0.002,0.003 0.002,0.005l-0,0.494Z" style="fill:#5e59a3;fill-rule:nonzero;"/></g><g transform="matrix(632.912,0,0,632.912,4073.63,594.423)"><path d="M0.373,-0.144c0,0.024 -0.005,0.046 -0.014,0.064c-0.01,0.019 -0.023,0.035 -0.04,0.048c-0.016,0.013 -0.036,0.023 -0.059,0.03c-0.023,0.007 -0.048,0.011 -0.075,0.011c-0.017,-0 -0.033,-0.002 -0.049,-0.005c-0.015,-0.003 -0.029,-0.006 -0.041,-0.011c-0.013,-0.004 -0.023,-0.008 -0.032,-0.013c-0.008,-0.005 -0.014,-0.008 -0.017,-0.011c-0.002,-0.002 -0.004,-0.005 -0.005,-0.006c-0.001,-0.002 -0.002,-0.004 -0.003,-0.007c-0.001,-0.003 -0.002,-0.006 -0.002,-0.009c-0,-0.003 -0,-0.008 -0,-0.013c-0,-0.006 -0,-0.012 0,-0.017c0,-0.004 0.001,-0.008 0.002,-0.012c0.001,-0.003 0.003,-0.005 0.005,-0.007c0.002,-0.001 0.004,-0.002 0.006,-0.002c0.004,-0 0.009,0.002 0.017,0.007c0.007,0.005 0.016,0.01 0.028,0.016c0.011,0.005 0.025,0.011 0.041,0.015c0.015,0.005 0.033,0.007 0.052,0.007c0.015,0 0.029,-0.001 0.041,-0.005c0.012,-0.004 0.023,-0.009 0.032,-0.015c0.009,-0.007 0.016,-0.015 0.021,-0.025c0.005,-0.009 0.008,-0.02 0.008,-0.033c-0,-0.013 -0.004,-0.025 -0.011,-0.035c-0.007,-0.01 -0.016,-0.018 -0.028,-0.026c-0.011,-0.008 -0.024,-0.014 -0.039,-0.021c-0.014,-0.006 -0.029,-0.012 -0.044,-0.019c-0.015,-0.007 -0.03,-0.014 -0.045,-0.022c-0.015,-0.009 -0.028,-0.019 -0.039,-0.03c-0.012,-0.011 -0.021,-0.025 -0.028,-0.04c-0.007,-0.016 -0.01,-0.035 -0.01,-0.056c-0,-0.021 0.004,-0.04 0.013,-0.057c0.008,-0.017 0.02,-0.031 0.035,-0.043c0.015,-0.012 0.032,-0.022 0.053,-0.028c0.02,-0.007 0.042,-0.01 0.065,-0.01c0.014,-0 0.027,0.001 0.04,0.003c0.014,0.003 0.026,0.006 0.037,0.01c0.011,0.003 0.02,0.007 0.028,0.011c0.008,0.004 0.013,0.008 0.016,0.01c0.002,0.002 0.004,0.005 0.005,0.006c0.001,0.002 0.002,0.004 0.003,0.007c0,0.003 0.001,0.006 0.001,0.01c0.001,0.004 0.001,0.009 0.001,0.014c-0,0.006 -0,0.011 -0.001,0.015c-0,0.005 -0.001,0.008 -0.002,0.011c-0.001,0.003 -0.002,0.005 -0.004,0.006c-0.001,0.001 -0.003,0.002 -0.005,0.002c-0.003,0 -0.008,-0.002 -0.015,-0.006c-0.006,-0.005 -0.015,-0.009 -0.025,-0.014c-0.01,-0.004 -0.021,-0.009 -0.035,-0.013c-0.013,-0.004 -0.028,-0.006 -0.045,-0.006c-0.012,-0 -0.024,0.001 -0.034,0.005c-0.011,0.003 -0.019,0.008 -0.027,0.014c-0.007,0.006 -0.012,0.013 -0.016,0.021c-0.004,0.009 -0.006,0.017 -0.006,0.027c-0,0.014 0.004,0.026 0.011,0.036c0.007,0.01 0.016,0.019 0.028,0.026c0.011,0.008 0.024,0.015 0.039,0.021c0.015,0.006 0.03,0.013 0.045,0.019c0.015,0.007 0.03,0.014 0.045,0.022c0.015,0.009 0.028,0.018 0.039,0.029c0.012,0.011 0.021,0.024 0.028,0.04c0.007,0.015 0.011,0.033 0.011,0.054Z" style="fill:#5e59a3;fill-rule:nonzero;"/></g><g transform="matrix(632.912,0,0,632.912,4335.38,594.423)"><path d="M0.382,-0.033c-0,0.006 -0,0.011 -0.001,0.015c-0.001,0.004 -0.002,0.008 -0.003,0.01c-0.001,0.003 -0.002,0.005 -0.004,0.006c-0.002,0.001 -0.004,0.002 -0.006,0.002l-0.262,0c-0.007,0 -0.013,-0.002 -0.019,-0.007c-0.005,-0.005 -0.008,-0.013 -0.008,-0.023l-0,-0.455c-0,-0.011 0.003,-0.019 0.008,-0.024c0.006,-0.004 0.012,-0.007 0.019,-0.007l0.259,0c0.002,0 0.004,0.001 0.006,0.002c0.002,0.001 0.003,0.003 0.004,0.006c0.001,0.002 0.002,0.006 0.003,0.01c0.001,0.005 0.001,0.01 0.001,0.016c-0,0.005 -0,0.01 -0.001,0.014c-0.001,0.005 -0.002,0.008 -0.003,0.01c-0.001,0.003 -0.002,0.005 -0.004,0.006c-0.002,0.001 -0.004,0.002 -0.006,0.002l-0.203,-0l-0,0.15l0.175,0c0.002,0 0.004,0.001 0.006,0.002c0.002,0.001 0.003,0.003 0.005,0.006c0.001,0.002 0.002,0.006 0.002,0.01c0.001,0.004 0.001,0.009 0.001,0.015c0,0.006 -0,0.011 -0.001,0.015c-0,0.004 -0.001,0.007 -0.002,0.01c-0.002,0.002 -0.003,0.004 -0.005,0.005c-0.002,0.002 -0.004,0.002 -0.006,0.002l-0.175,0l-0,0.17l0.206,-0c0.002,-0 0.004,0 0.006,0.001c0.002,0.001 0.003,0.003 0.004,0.006c0.001,0.002 0.002,0.006 0.003,0.01c0.001,0.004 0.001,0.009 0.001,0.015Z" style="fill:#5e59a3;fill-rule:nonzero;"/></g><g transform="matrix(263.713,0,0,263.713,2008.42,779.96)"><path d="M0.373,-0.144c0,0.024 -0.005,0.046 -0.014,0.064c-0.01,0.019 -0.023,0.035 -0.04,0.048c-0.016,0.013 -0.036,0.023 -0.059,0.03c-0.023,0.007 -0.048,0.011 -0.075,0.011c-0.017,-0 -0.033,-0.002 -0.049,-0.005c-0.015,-0.003 -0.029,-0.006 -0.041,-0.011c-0.013,-0.004 -0.023,-0.008 -0.032,-0.013c-0.008,-0.005 -0.014,-0.008 -0.017,-0.011c-0.002,-0.002 -0.004,-0.005 -0.005,-0.006c-0.001,-0.002 -0.002,-0.004 -0.003,-0.007c-0.001,-0.003 -0.002,-0.006 -0.002,-0.009c-0,-0.003 -0,-0.008 -0,-0.013c-0,-0.006 -0,-0.012 0,-0.017c0,-0.004 0.001,-0.008 0.002,-0.012c0.001,-0.003 0.003,-0.005 0.005,-0.007c0.002,-0.001 0.004,-0.002 0.006,-0.002c0.004,-0 0.009,0.002 0.017,0.007c0.007,0.005 0.016,0.01 0.028,0.016c0.011,0.005 0.025,0.011 0.041,0.015c0.015,0.005 0.033,0.007 0.052,0.007c0.015,0 0.029,-0.001 0.041,-0.005c0.012,-0.004 0.023,-0.009 0.032,-0.015c0.009,-0.007 0.016,-0.015 0.021,-0.025c0.005,-0.009 0.008,-0.02 0.008,-0.033c-0,-0.013 -0.004,-0.025 -0.011,-0.035c-0.007,-0.01 -0.016,-0.018 -0.028,-0.026c-0.011,-0.008 -0.024,-0.014 -0.039,-0.021c-0.014,-0.006 -0.029,-0.012 -0.044,-0.019c-0.015,-0.007 -0.03,-0.014 -0.045,-0.022c-0.015,-0.009 -0.028,-0.019 -0.039,-0.03c-0.012,-0.011 -0.021,-0.025 -0.028,-0.04c-0.007,-0.016 -0.01,-0.035 -0.01,-0.056c-0,-0.021 0.004,-0.04 0.013,-0.057c0.008,-0.017 0.02,-0.031 0.035,-0.043c0.015,-0.012 0.032,-0.022 0.053,-0.028c0.02,-0.007 0.042,-0.01 0.065,-0.01c0.014,-0 0.027,0.001 0.04,0.003c0.014,0.003 0.026,0.006 0.037,0.01c0.011,0.003 0.02,0.007 0.028,0.011c0.008,0.004 0.013,0.008 0.016,0.01c0.002,0.002 0.004,0.005 0.005,0.006c0.001,0.002 0.002,0.004 0.003,0.007c0,0.003 0.001,0.006 0.001,0.01c0.001,0.004 0.001,0.009 0.001,0.014c-0,0.006 -0,0.011 -0.001,0.015c-0,0.005 -0.001,0.008 -0.002,0.011c-0.001,0.003 -0.002,0.005 -0.004,0.006c-0.001,0.001 -0.003,0.002 -0.005,0.002c-0.003,0 -0.008,-0.002 -0.015,-0.006c-0.006,-0.005 -0.015,-0.009 -0.025,-0.014c-0.01,-0.004 -0.021,-0.009 -0.035,-0.013c-0.013,-0.004 -0.028,-0.006 -0.045,-0.006c-0.012,-0 -0.024,0.001 -0.034,0.005c-0.011,0.003 -0.019,0.008 -0.027,0.014c-0.007,0.006 -0.012,0.013 -0.016,0.021c-0.004,0.009 -0.006,0.017 -0.006,0.027c-0,0.014 0.004,0.026 0.011,0.036c0.007,0.01 0.016,0.019 0.028,0.026c0.011,0.008 0.024,0.015 0.039,0.021c0.015,0.006 0.03,0.013 0.045,0.019c0.015,0.007 0.03,0.014 0.045,0.022c0.015,0.009 0.028,0.018 0.039,0.029c0.012,0.011 0.021,0.024 0.028,0.04c0.007,0.015 0.011,0.033 0.011,0.054Z" style="fill:#645b5b;fill-rule:nonzero;"/></g><g transform="matrix(263.713,0,0,263.713,2115.04,779.96)"><path d="M0.405,-0.482c0,0.012 -0.001,0.021 -0.003,0.026c-0.003,0.006 -0.006,0.008 -0.011,0.008l-0.14,0l-0,0.437c-0,0.002 -0.001,0.004 -0.002,0.006c-0.002,0.002 -0.004,0.003 -0.007,0.004c-0.003,0.001 -0.007,0.002 -0.012,0.003c-0.006,0.001 -0.012,0.001 -0.021,0.001c-0.008,-0 -0.015,-0 -0.02,-0.001c-0.005,-0.001 -0.009,-0.002 -0.012,-0.003c-0.003,-0.001 -0.006,-0.002 -0.007,-0.004c-0.001,-0.002 -0.002,-0.004 -0.002,-0.006l-0,-0.437l-0.14,0c-0.002,0 -0.004,-0 -0.006,-0.002c-0.002,-0.001 -0.004,-0.003 -0.005,-0.006c-0.001,-0.003 -0.002,-0.006 -0.003,-0.011c-0,-0.004 -0,-0.009 -0,-0.015c-0,-0.006 -0,-0.011 0,-0.015c0.001,-0.005 0.002,-0.008 0.003,-0.011c0.001,-0.003 0.003,-0.005 0.005,-0.006c0.002,-0.001 0.004,-0.002 0.006,-0.002l0.363,0c0.002,0 0.004,0.001 0.006,0.002c0.002,0.001 0.003,0.003 0.005,0.006c0.001,0.003 0.002,0.006 0.002,0.011c0.001,0.004 0.001,0.009 0.001,0.015Z" style="fill:#645b5b;fill-rule:nonzero;"/></g><g transform="matrix(263.713,0,0,263.713,2225.39,779.96)"><path d="M0.451,-0.009c0,0.002 -0,0.004 -0.002,0.005c-0.001,0.002 -0.003,0.003 -0.007,0.004c-0.003,0.001 -0.008,0.002 -0.014,0.002c-0.006,0.001 -0.014,0.001 -0.023,0.001c-0.009,-0 -0.016,-0 -0.021,-0.001c-0.005,-0 -0.01,-0.001 -0.013,-0.003c-0.004,-0.001 -0.006,-0.003 -0.008,-0.005c-0.001,-0.003 -0.003,-0.006 -0.004,-0.009l-0.042,-0.118c-0.004,-0.014 -0.01,-0.026 -0.016,-0.037c-0.006,-0.011 -0.012,-0.021 -0.02,-0.028c-0.008,-0.008 -0.017,-0.014 -0.028,-0.018c-0.01,-0.005 -0.024,-0.007 -0.041,-0.007l-0.05,0l-0,0.212c-0,0.002 -0.001,0.004 -0.002,0.006c-0.002,0.002 -0.004,0.003 -0.007,0.004c-0.003,0.001 -0.008,0.002 -0.013,0.003c-0.005,0.001 -0.012,0.001 -0.02,0.001c-0.008,-0 -0.014,-0 -0.02,-0.001c-0.005,-0.001 -0.009,-0.002 -0.013,-0.003c-0.003,-0.001 -0.005,-0.002 -0.006,-0.004c-0.002,-0.002 -0.002,-0.004 -0.002,-0.006l-0,-0.474c-0,-0.011 0.003,-0.019 0.008,-0.024c0.006,-0.004 0.012,-0.007 0.019,-0.007l0.138,0c0.031,0 0.057,0.003 0.079,0.01c0.022,0.006 0.04,0.015 0.055,0.026c0.014,0.011 0.026,0.025 0.034,0.042c0.007,0.017 0.011,0.036 0.011,0.057c0,0.017 -0.002,0.033 -0.007,0.047c-0.004,0.014 -0.011,0.026 -0.02,0.037c-0.008,0.012 -0.019,0.021 -0.031,0.029c-0.013,0.009 -0.027,0.015 -0.043,0.02c0.009,0.004 0.017,0.008 0.024,0.014c0.008,0.005 0.014,0.012 0.02,0.02c0.006,0.007 0.012,0.017 0.018,0.027c0.005,0.01 0.01,0.022 0.015,0.035l0.044,0.114c0.003,0.008 0.005,0.015 0.006,0.019c0.002,0.004 0.002,0.007 0.002,0.01Zm-0.115,-0.363c-0,-0.011 -0.002,-0.022 -0.005,-0.031c-0.004,-0.01 -0.009,-0.018 -0.017,-0.025c-0.008,-0.007 -0.018,-0.013 -0.03,-0.017c-0.012,-0.004 -0.029,-0.006 -0.05,-0.006l-0.072,-0l-0,0.165l0.069,-0c0.02,-0 0.037,-0.002 0.049,-0.006c0.013,-0.004 0.023,-0.01 0.032,-0.018c0.008,-0.007 0.014,-0.016 0.018,-0.027c0.004,-0.01 0.006,-0.022 0.006,-0.035Z" style="fill:#645b5b;fill-rule:nonzero;"/></g><g transform="matrix(263.713,0,0,263.713,2354.8,779.96)"><path d="M0.491,-0.2c0,0.038 -0.005,0.069 -0.015,0.093c-0.01,0.025 -0.024,0.046 -0.041,0.063c-0.018,0.017 -0.04,0.03 -0.066,0.039c-0.026,0.009 -0.054,0.014 -0.086,0.014c-0.031,-0 -0.059,-0.004 -0.085,-0.013c-0.025,-0.008 -0.047,-0.02 -0.065,-0.037c-0.018,-0.016 -0.032,-0.037 -0.041,-0.061c-0.01,-0.024 -0.014,-0.057 -0.014,-0.098l-0,-0.305c-0,-0.002 0,-0.004 0.002,-0.005c0.001,-0.002 0.003,-0.004 0.006,-0.005c0.004,-0.001 0.008,-0.002 0.013,-0.003c0.005,-0 0.012,-0.001 0.02,-0.001c0.008,0 0.015,0.001 0.02,0.001c0.006,0.001 0.01,0.002 0.013,0.003c0.003,0.001 0.005,0.003 0.007,0.005c0.001,0.001 0.002,0.003 0.002,0.005l-0,0.299c-0,0.032 0.002,0.056 0.008,0.072c0.006,0.016 0.014,0.03 0.026,0.041c0.011,0.011 0.024,0.02 0.04,0.025c0.015,0.006 0.032,0.008 0.051,0.008c0.018,0 0.035,-0.002 0.05,-0.008c0.016,-0.005 0.029,-0.014 0.04,-0.025c0.011,-0.011 0.019,-0.024 0.025,-0.041c0.005,-0.016 0.008,-0.038 0.008,-0.067l-0,-0.304c-0,-0.002 0,-0.004 0.002,-0.005c0.001,-0.002 0.003,-0.004 0.006,-0.005c0.003,-0.001 0.007,-0.002 0.013,-0.003c0.005,-0 0.011,-0.001 0.019,-0.001c0.01,0 0.017,0.001 0.022,0.001c0.005,0.001 0.009,0.002 0.012,0.003c0.003,0.001 0.005,0.003 0.007,0.005c0.001,0.001 0.001,0.003 0.001,0.005l0,0.305Z" style="fill:#645b5b;fill-rule:nonzero;"/></g><g transform="matrix(263.713,0,0,263.713,2504.82,779.96)"><path d="M0.439,-0.074c-0,0.009 -0.001,0.017 -0.002,0.022c-0.001,0.005 -0.004,0.01 -0.008,0.014c-0.005,0.005 -0.011,0.009 -0.019,0.015c-0.009,0.005 -0.019,0.01 -0.031,0.015c-0.012,0.004 -0.025,0.008 -0.04,0.011c-0.016,0.003 -0.032,0.005 -0.05,0.005c-0.035,-0 -0.067,-0.006 -0.096,-0.018c-0.029,-0.011 -0.054,-0.028 -0.075,-0.05c-0.02,-0.023 -0.036,-0.05 -0.048,-0.083c-0.011,-0.033 -0.017,-0.07 -0.017,-0.112c0,-0.042 0.006,-0.08 0.018,-0.113c0.011,-0.033 0.027,-0.062 0.048,-0.085c0.021,-0.023 0.046,-0.04 0.075,-0.052c0.029,-0.012 0.061,-0.018 0.097,-0.018c0.015,-0 0.03,0.001 0.044,0.003c0.014,0.003 0.027,0.007 0.039,0.011c0.012,0.005 0.023,0.01 0.032,0.015c0.01,0.005 0.017,0.01 0.021,0.015c0.004,0.004 0.007,0.009 0.009,0.014c0.001,0.006 0.002,0.014 0.002,0.025c-0,0.006 -0,0.011 -0.001,0.015c-0.001,0.004 -0.002,0.008 -0.003,0.011c-0.001,0.002 -0.002,0.004 -0.004,0.006c-0.001,0.001 -0.003,0.002 -0.006,0.002c-0.003,-0 -0.008,-0.003 -0.014,-0.008c-0.007,-0.005 -0.015,-0.01 -0.025,-0.016c-0.01,-0.006 -0.023,-0.011 -0.038,-0.016c-0.015,-0.005 -0.033,-0.008 -0.054,-0.008c-0.023,0 -0.044,0.005 -0.062,0.014c-0.019,0.009 -0.035,0.022 -0.048,0.038c-0.013,0.017 -0.023,0.038 -0.031,0.062c-0.007,0.025 -0.01,0.052 -0.01,0.082c-0,0.032 0.003,0.06 0.011,0.085c0.008,0.024 0.019,0.044 0.033,0.061c0.014,0.016 0.03,0.028 0.05,0.037c0.019,0.008 0.041,0.012 0.064,0.012c0.02,0 0.037,-0.002 0.051,-0.007c0.014,-0.005 0.027,-0.01 0.036,-0.016c0.01,-0.006 0.019,-0.011 0.025,-0.016c0.007,-0.005 0.012,-0.007 0.016,-0.007c0.002,-0 0.004,0 0.005,0.001c0.001,0.001 0.002,0.003 0.003,0.006c0.001,0.002 0.002,0.006 0.002,0.011c0.001,0.004 0.001,0.01 0.001,0.017Z" style="fill:#645b5b;fill-rule:nonzero;"/></g><g transform="matrix(263.713,0,0,263.713,2631.14,779.96)"><path d="M0.405,-0.482c0,0.012 -0.001,0.021 -0.003,0.026c-0.003,0.006 -0.006,0.008 -0.011,0.008l-0.14,0l-0,0.437c-0,0.002 -0.001,0.004 -0.002,0.006c-0.002,0.002 -0.004,0.003 -0.007,0.004c-0.003,0.001 -0.007,0.002 -0.012,0.003c-0.006,0.001 -0.012,0.001 -0.021,0.001c-0.008,-0 -0.015,-0 -0.02,-0.001c-0.005,-0.001 -0.009,-0.002 -0.012,-0.003c-0.003,-0.001 -0.006,-0.002 -0.007,-0.004c-0.001,-0.002 -0.002,-0.004 -0.002,-0.006l-0,-0.437l-0.14,0c-0.002,0 -0.004,-0 -0.006,-0.002c-0.002,-0.001 -0.004,-0.003 -0.005,-0.006c-0.001,-0.003 -0.002,-0.006 -0.003,-0.011c-0,-0.004 -0,-0.009 -0,-0.015c-0,-0.006 -0,-0.011 0,-0.015c0.001,-0.005 0.002,-0.008 0.003,-0.011c0.001,-0.003 0.003,-0.005 0.005,-0.006c0.002,-0.001 0.004,-0.002 0.006,-0.002l0.363,0c0.002,0 0.004,0.001 0.006,0.002c0.002,0.001 0.003,0.003 0.005,0.006c0.001,0.003 0.002,0.006 0.002,0.011c0.001,0.004 0.001,0.009 0.001,0.015Z" style="fill:#645b5b;fill-rule:nonzero;"/></g><g transform="matrix(263.713,0,0,263.713,2741.49,779.96)"><path d="M0.491,-0.2c0,0.038 -0.005,0.069 -0.015,0.093c-0.01,0.025 -0.024,0.046 -0.041,0.063c-0.018,0.017 -0.04,0.03 -0.066,0.039c-0.026,0.009 -0.054,0.014 -0.086,0.014c-0.031,-0 -0.059,-0.004 -0.085,-0.013c-0.025,-0.008 -0.047,-0.02 -0.065,-0.037c-0.018,-0.016 -0.032,-0.037 -0.041,-0.061c-0.01,-0.024 -0.014,-0.057 -0.014,-0.098l-0,-0.305c-0,-0.002 0,-0.004 0.002,-0.005c0.001,-0.002 0.003,-0.004 0.006,-0.005c0.004,-0.001 0.008,-0.002 0.013,-0.003c0.005,-0 0.012,-0.001 0.02,-0.001c0.008,0 0.015,0.001 0.02,0.001c0.006,0.001 0.01,0.002 0.013,0.003c0.003,0.001 0.005,0.003 0.007,0.005c0.001,0.001 0.002,0.003 0.002,0.005l-0,0.299c-0,0.032 0.002,0.056 0.008,0.072c0.006,0.016 0.014,0.03 0.026,0.041c0.011,0.011 0.024,0.02 0.04,0.025c0.015,0.006 0.032,0.008 0.051,0.008c0.018,0 0.035,-0.002 0.05,-0.008c0.016,-0.005 0.029,-0.014 0.04,-0.025c0.011,-0.011 0.019,-0.024 0.025,-0.041c0.005,-0.016 0.008,-0.038 0.008,-0.067l-0,-0.304c-0,-0.002 0,-0.004 0.002,-0.005c0.001,-0.002 0.003,-0.004 0.006,-0.005c0.003,-0.001 0.007,-0.002 0.013,-0.003c0.005,-0 0.011,-0.001 0.019,-0.001c0.01,0 0.017,0.001 0.022,0.001c0.005,0.001 0.009,0.002 0.012,0.003c0.003,0.001 0.005,0.003 0.007,0.005c0.001,0.001 0.001,0.003 0.001,0.005l0,0.305Z" style="fill:#645b5b;fill-rule:nonzero;"/></g><g transform="matrix(263.713,0,0,263.713,2891.5,779.96)"><path d="M0.451,-0.009c0,0.002 -0,0.004 -0.002,0.005c-0.001,0.002 -0.003,0.003 -0.007,0.004c-0.003,0.001 -0.008,0.002 -0.014,0.002c-0.006,0.001 -0.014,0.001 -0.023,0.001c-0.009,-0 -0.016,-0 -0.021,-0.001c-0.005,-0 -0.01,-0.001 -0.013,-0.003c-0.004,-0.001 -0.006,-0.003 -0.008,-0.005c-0.001,-0.003 -0.003,-0.006 -0.004,-0.009l-0.042,-0.118c-0.004,-0.014 -0.01,-0.026 -0.016,-0.037c-0.006,-0.011 -0.012,-0.021 -0.02,-0.028c-0.008,-0.008 -0.017,-0.014 -0.028,-0.018c-0.01,-0.005 -0.024,-0.007 -0.041,-0.007l-0.05,0l-0,0.212c-0,0.002 -0.001,0.004 -0.002,0.006c-0.002,0.002 -0.004,0.003 -0.007,0.004c-0.003,0.001 -0.008,0.002 -0.013,0.003c-0.005,0.001 -0.012,0.001 -0.02,0.001c-0.008,-0 -0.014,-0 -0.02,-0.001c-0.005,-0.001 -0.009,-0.002 -0.013,-0.003c-0.003,-0.001 -0.005,-0.002 -0.006,-0.004c-0.002,-0.002 -0.002,-0.004 -0.002,-0.006l-0,-0.474c-0,-0.011 0.003,-0.019 0.008,-0.024c0.006,-0.004 0.012,-0.007 0.019,-0.007l0.138,0c0.031,0 0.057,0.003 0.079,0.01c0.022,0.006 0.04,0.015 0.055,0.026c0.014,0.011 0.026,0.025 0.034,0.042c0.007,0.017 0.011,0.036 0.011,0.057c0,0.017 -0.002,0.033 -0.007,0.047c-0.004,0.014 -0.011,0.026 -0.02,0.037c-0.008,0.012 -0.019,0.021 -0.031,0.029c-0.013,0.009 -0.027,0.015 -0.043,0.02c0.009,0.004 0.017,0.008 0.024,0.014c0.008,0.005 0.014,0.012 0.02,0.02c0.006,0.007 0.012,0.017 0.018,0.027c0.005,0.01 0.01,0.022 0.015,0.035l0.044,0.114c0.003,0.008 0.005,0.015 0.006,0.019c0.002,0.004 0.002,0.007 0.002,0.01Zm-0.115,-0.363c-0,-0.011 -0.002,-0.022 -0.005,-0.031c-0.004,-0.01 -0.009,-0.018 -0.017,-0.025c-0.008,-0.007 -0.018,-0.013 -0.03,-0.017c-0.012,-0.004 -0.029,-0.006 -0.05,-0.006l-0.072,-0l-0,0.165l0.069,-0c0.02,-0 0.037,-0.002 0.049,-0.006c0.013,-0.004 0.023,-0.01 0.032,-0.018c0.008,-0.007 0.014,-0.016 0.018,-0.027c0.004,-0.01 0.006,-0.022 0.006,-0.035Z" style="fill:#645b5b;fill-rule:nonzero;"/></g><g transform="matrix(263.713,0,0,263.713,3020.91,779.96)"><path d="M0.382,-0.033c-0,0.006 -0,0.011 -0.001,0.015c-0.001,0.004 -0.002,0.008 -0.003,0.01c-0.001,0.003 -0.002,0.005 -0.004,0.006c-0.002,0.001 -0.004,0.002 -0.006,0.002l-0.262,0c-0.007,0 -0.013,-0.002 -0.019,-0.007c-0.005,-0.005 -0.008,-0.013 -0.008,-0.023l-0,-0.455c-0,-0.011 0.003,-0.019 0.008,-0.024c0.006,-0.004 0.012,-0.007 0.019,-0.007l0.259,0c0.002,0 0.004,0.001 0.006,0.002c0.002,0.001 0.003,0.003 0.004,0.006c0.001,0.002 0.002,0.006 0.003,0.01c0.001,0.005 0.001,0.01 0.001,0.016c-0,0.005 -0,0.01 -0.001,0.014c-0.001,0.005 -0.002,0.008 -0.003,0.01c-0.001,0.003 -0.002,0.005 -0.004,0.006c-0.002,0.001 -0.004,0.002 -0.006,0.002l-0.203,-0l-0,0.15l0.175,0c0.002,0 0.004,0.001 0.006,0.002c0.002,0.001 0.003,0.003 0.005,0.006c0.001,0.002 0.002,0.006 0.002,0.01c0.001,0.004 0.001,0.009 0.001,0.015c0,0.006 -0,0.011 -0.001,0.015c-0,0.004 -0.001,0.007 -0.002,0.01c-0.002,0.002 -0.003,0.004 -0.005,0.005c-0.002,0.002 -0.004,0.002 -0.006,0.002l-0.175,0l-0,0.17l0.206,-0c0.002,-0 0.004,0 0.006,0.001c0.002,0.001 0.003,0.003 0.004,0.006c0.001,0.002 0.002,0.006 0.003,0.01c0.001,0.004 0.001,0.009 0.001,0.015Z" style="fill:#645b5b;fill-rule:nonzero;"/></g><g transform="matrix(263.713,0,0,263.713,3136.29,779.96)"><path d="M0.498,-0.265c0,0.045 -0.006,0.085 -0.018,0.118c-0.012,0.033 -0.029,0.061 -0.051,0.083c-0.023,0.021 -0.05,0.038 -0.083,0.048c-0.032,0.011 -0.072,0.016 -0.117,0.016l-0.123,0c-0.007,0 -0.013,-0.002 -0.019,-0.007c-0.005,-0.005 -0.008,-0.013 -0.008,-0.023l-0,-0.455c-0,-0.011 0.003,-0.019 0.008,-0.024c0.006,-0.004 0.012,-0.007 0.019,-0.007l0.133,0c0.045,0 0.083,0.006 0.115,0.017c0.031,0.011 0.058,0.028 0.079,0.049c0.021,0.022 0.037,0.048 0.048,0.079c0.012,0.031 0.017,0.066 0.017,0.106Zm-0.086,0.002c0,-0.026 -0.003,-0.051 -0.01,-0.074c-0.006,-0.023 -0.016,-0.042 -0.03,-0.059c-0.014,-0.017 -0.032,-0.03 -0.054,-0.04c-0.022,-0.009 -0.05,-0.014 -0.086,-0.014l-0.07,0l-0,0.384l0.07,0c0.033,0 0.061,-0.004 0.082,-0.012c0.022,-0.008 0.04,-0.02 0.055,-0.037c0.014,-0.016 0.025,-0.036 0.032,-0.061c0.008,-0.025 0.011,-0.053 0.011,-0.087Z" style="fill:#645b5b;fill-rule:nonzero;"/></g><g transform="matrix(263.713,0,0,263.713,3340.77,779.96)"><path d="M0.444,-0.012c-0,0.003 -0.001,0.005 -0.002,0.007c-0.001,0.002 -0.004,0.003 -0.007,0.004c-0.003,0.001 -0.007,0.002 -0.013,0.003c-0.006,0.001 -0.012,0.001 -0.021,0.001c-0.009,-0 -0.016,-0 -0.022,-0.001c-0.006,-0 -0.011,-0.001 -0.014,-0.002c-0.004,-0.001 -0.007,-0.003 -0.009,-0.005c-0.002,-0.002 -0.004,-0.004 -0.006,-0.007l-0.188,-0.258l-0,0.258c-0,0.003 -0.001,0.005 -0.002,0.007c-0.002,0.002 -0.004,0.003 -0.007,0.004c-0.003,0.001 -0.008,0.002 -0.013,0.003c-0.005,0.001 -0.012,0.001 -0.02,0.001c-0.008,-0 -0.014,-0 -0.02,-0.001c-0.005,-0.001 -0.009,-0.002 -0.013,-0.003c-0.003,-0.001 -0.005,-0.002 -0.006,-0.004c-0.002,-0.002 -0.002,-0.004 -0.002,-0.006l-0,-0.494c-0,-0.002 0,-0.004 0.002,-0.005c0.001,-0.002 0.003,-0.004 0.006,-0.005c0.004,-0.001 0.008,-0.002 0.013,-0.003c0.006,-0 0.012,-0.001 0.02,-0.001c0.008,0 0.015,0.001 0.02,0.001c0.005,0.001 0.01,0.002 0.013,0.003c0.003,0.001 0.005,0.003 0.007,0.005c0.001,0.001 0.002,0.003 0.002,0.005l-0,0.224l0.179,-0.223c0.002,-0.003 0.004,-0.005 0.006,-0.007c0.003,-0.002 0.006,-0.003 0.009,-0.004c0.004,-0.002 0.008,-0.002 0.014,-0.003c0.005,-0 0.011,-0.001 0.019,-0.001c0.009,0 0.016,0.001 0.021,0.001c0.006,0.001 0.01,0.002 0.013,0.003c0.003,0.001 0.005,0.003 0.007,0.005c0.001,0.001 0.002,0.003 0.002,0.006c0,0.002 -0,0.003 -0.001,0.005c-0,0.002 -0.001,0.004 -0.002,0.006c-0.001,0.003 -0.002,0.005 -0.004,0.008c-0.002,0.003 -0.004,0.006 -0.007,0.009l-0.168,0.194l0.183,0.246c0.002,0.002 0.003,0.005 0.005,0.007c0.001,0.002 0.002,0.005 0.003,0.007c0.001,0.002 0.002,0.004 0.002,0.005c0.001,0.002 0.001,0.004 0.001,0.005Z" style="fill:#645b5b;fill-rule:nonzero;"/></g><g transform="matrix(263.713,0,0,263.713,3465.54,779.96)"><path d="M0.492,-0.032c0,0.011 -0.003,0.019 -0.008,0.024c-0.006,0.005 -0.013,0.008 -0.021,0.008l-0.056,-0c-0.01,-0 -0.018,-0.003 -0.025,-0.008c-0.006,-0.005 -0.012,-0.013 -0.017,-0.023l-0.136,-0.256c-0.014,-0.024 -0.026,-0.049 -0.039,-0.074c-0.013,-0.025 -0.026,-0.05 -0.039,-0.075l-0,0c-0,0.012 -0,0.023 0,0.035l0.002,0.073c-0,0.012 -0,0.023 -0,0.035l-0,0.282c-0,0.002 -0.001,0.004 -0.002,0.006c-0.001,0.002 -0.003,0.003 -0.006,0.004c-0.003,0.001 -0.006,0.002 -0.011,0.003c-0.004,0.001 -0.01,0.001 -0.017,0.001c-0.008,-0 -0.014,-0 -0.019,-0.001c-0.005,-0.001 -0.009,-0.002 -0.012,-0.003c-0.003,-0.001 -0.005,-0.002 -0.006,-0.004c-0.001,-0.002 -0.001,-0.004 -0.001,-0.006l-0,-0.472c-0,-0.011 0.003,-0.02 0.009,-0.025c0.006,-0.005 0.013,-0.008 0.021,-0.008l0.06,0c0.006,0 0.011,0.001 0.015,0.002c0.005,0.002 0.009,0.004 0.012,0.006c0.003,0.002 0.006,0.006 0.009,0.009c0.003,0.004 0.005,0.009 0.008,0.014l0.124,0.233c0.014,0.026 0.028,0.052 0.042,0.078c0.013,0.027 0.027,0.053 0.04,0.08l0.001,-0c0,-0.013 -0,-0.027 -0,-0.041l-0.001,-0.083c-0,-0.014 -0.001,-0.027 -0.001,-0.04l0,-0.245c0,-0.003 0.001,-0.005 0.002,-0.007c0.001,-0.002 0.003,-0.003 0.006,-0.005c0.003,-0.001 0.006,-0.002 0.011,-0.003c0.005,-0 0.011,-0.001 0.018,-0.001c0.008,0 0.014,0.001 0.019,0.001c0.005,0.001 0.008,0.002 0.011,0.003c0.003,0.002 0.005,0.003 0.006,0.005c0.001,0.002 0.001,0.004 0.001,0.007l0,0.471Z" style="fill:#645b5b;fill-rule:nonzero;"/></g><g transform="matrix(263.713,0,0,263.713,3616.07,779.96)"><path d="M0.533,-0.265c0,0.043 -0.005,0.081 -0.016,0.114c-0.01,0.034 -0.026,0.063 -0.047,0.086c-0.02,0.024 -0.046,0.042 -0.076,0.055c-0.031,0.012 -0.066,0.019 -0.106,0.019c-0.04,-0 -0.074,-0.006 -0.104,-0.017c-0.03,-0.011 -0.055,-0.027 -0.075,-0.049c-0.02,-0.022 -0.035,-0.05 -0.045,-0.083c-0.009,-0.033 -0.014,-0.071 -0.014,-0.114c-0,-0.041 0.005,-0.079 0.016,-0.112c0.011,-0.033 0.026,-0.062 0.047,-0.085c0.021,-0.024 0.047,-0.042 0.077,-0.054c0.031,-0.013 0.066,-0.019 0.106,-0.019c0.038,-0 0.072,0.005 0.101,0.016c0.03,0.011 0.054,0.028 0.075,0.05c0.02,0.021 0.035,0.048 0.046,0.081c0.01,0.032 0.015,0.069 0.015,0.112Zm-0.087,0.006c0,-0.029 -0.002,-0.055 -0.008,-0.079c-0.005,-0.024 -0.014,-0.045 -0.026,-0.062c-0.012,-0.018 -0.028,-0.032 -0.047,-0.041c-0.02,-0.01 -0.044,-0.015 -0.073,-0.015c-0.028,-0 -0.052,0.005 -0.072,0.016c-0.02,0.01 -0.036,0.024 -0.048,0.042c-0.012,0.018 -0.021,0.039 -0.027,0.063c-0.005,0.024 -0.008,0.049 -0.008,0.076c-0,0.029 0.002,0.056 0.008,0.081c0.005,0.024 0.013,0.045 0.026,0.063c0.012,0.018 0.028,0.031 0.047,0.041c0.02,0.01 0.044,0.014 0.073,0.014c0.028,0 0.052,-0.005 0.072,-0.016c0.02,-0.01 0.036,-0.025 0.049,-0.043c0.012,-0.018 0.021,-0.04 0.026,-0.064c0.006,-0.024 0.008,-0.05 0.008,-0.076Z" style="fill:#645b5b;fill-rule:nonzero;"/></g><g transform="matrix(263.713,0,0,263.713,3766.98,779.96)"><path d="M0.613,-0.015c-0.002,0.004 -0.003,0.007 -0.006,0.009c-0.002,0.002 -0.005,0.004 -0.009,0.006c-0.004,0.001 -0.01,0.002 -0.016,0.002c-0.007,0.001 -0.015,0.001 -0.025,0.001c-0.011,-0 -0.02,-0 -0.027,-0.001c-0.007,-0 -0.012,-0.001 -0.016,-0.002c-0.004,-0.002 -0.007,-0.004 -0.009,-0.006c-0.001,-0.003 -0.003,-0.006 -0.004,-0.01l-0.109,-0.372l-0.002,-0l-0.103,0.372c-0.001,0.004 -0.003,0.007 -0.005,0.01c-0.002,0.002 -0.005,0.004 -0.009,0.006c-0.004,0.001 -0.009,0.002 -0.015,0.002c-0.007,0.001 -0.015,0.001 -0.025,0.001c-0.011,-0 -0.019,-0 -0.026,-0.001c-0.007,-0 -0.013,-0.001 -0.017,-0.002c-0.005,-0.002 -0.008,-0.004 -0.01,-0.006c-0.002,-0.002 -0.003,-0.005 -0.004,-0.009l-0.145,-0.471c-0.002,-0.007 -0.003,-0.013 -0.004,-0.018c0,-0.004 0.002,-0.007 0.004,-0.009c0.003,-0.003 0.008,-0.004 0.014,-0.005c0.006,-0 0.015,-0.001 0.025,-0.001c0.01,0 0.017,0.001 0.023,0.001c0.005,0.001 0.009,0.001 0.012,0.003c0.004,0.001 0.006,0.002 0.007,0.004c0.001,0.002 0.002,0.005 0.003,0.008l0.119,0.417l0.001,0l0.115,-0.415c0.001,-0.004 0.002,-0.007 0.004,-0.009c0.001,-0.002 0.003,-0.004 0.006,-0.005c0.003,-0.001 0.007,-0.002 0.013,-0.003c0.005,-0 0.012,-0.001 0.022,-0.001c0.009,0 0.016,0.001 0.022,0.001c0.005,0.001 0.01,0.002 0.012,0.003c0.003,0.001 0.005,0.003 0.007,0.005c0.001,0.002 0.002,0.005 0.003,0.008l0.121,0.416l0,0l0.111,-0.415c0.001,-0.004 0.002,-0.007 0.004,-0.009c0.001,-0.002 0.003,-0.004 0.006,-0.005c0.003,-0.001 0.008,-0.002 0.013,-0.003c0.006,-0 0.013,-0.001 0.023,-0.001c0.009,0 0.016,0.001 0.022,0.001c0.005,0.001 0.009,0.003 0.011,0.005c0.003,0.002 0.003,0.005 0.003,0.01c-0,0.004 -0.001,0.01 -0.003,0.018l-0.137,0.47Z" style="fill:#645b5b;fill-rule:nonzero;"/></g><g transform="matrix(263.713,0,0,263.713,3972.75,779.96)"><path d="M0.356,-0.034c-0,0.012 -0.001,0.021 -0.004,0.026c-0.003,0.005 -0.006,0.008 -0.011,0.008l-0.235,-0c-0.007,-0 -0.013,-0.002 -0.019,-0.007c-0.005,-0.005 -0.008,-0.013 -0.008,-0.023l-0,-0.475c-0,-0.002 0,-0.004 0.002,-0.005c0.001,-0.002 0.003,-0.004 0.006,-0.005c0.004,-0.001 0.008,-0.002 0.013,-0.003c0.006,-0 0.012,-0.001 0.02,-0.001c0.008,0 0.015,0.001 0.02,0.001c0.005,0.001 0.01,0.002 0.013,0.003c0.003,0.001 0.005,0.003 0.007,0.005c0.001,0.001 0.002,0.003 0.002,0.005l-0,0.437l0.179,0c0.002,0 0.004,0.001 0.006,0.002c0.002,0.001 0.004,0.003 0.005,0.006c0.001,0.002 0.002,0.006 0.003,0.01c0.001,0.005 0.001,0.01 0.001,0.016Z" style="fill:#645b5b;fill-rule:nonzero;"/></g><g transform="matrix(263.713,0,0,263.713,4067.52,779.96)"><path d="M0.382,-0.033c-0,0.006 -0,0.011 -0.001,0.015c-0.001,0.004 -0.002,0.008 -0.003,0.01c-0.001,0.003 -0.002,0.005 -0.004,0.006c-0.002,0.001 -0.004,0.002 -0.006,0.002l-0.262,0c-0.007,0 -0.013,-0.002 -0.019,-0.007c-0.005,-0.005 -0.008,-0.013 -0.008,-0.023l-0,-0.455c-0,-0.011 0.003,-0.019 0.008,-0.024c0.006,-0.004 0.012,-0.007 0.019,-0.007l0.259,0c0.002,0 0.004,0.001 0.006,0.002c0.002,0.001 0.003,0.003 0.004,0.006c0.001,0.002 0.002,0.006 0.003,0.01c0.001,0.005 0.001,0.01 0.001,0.016c-0,0.005 -0,0.01 -0.001,0.014c-0.001,0.005 -0.002,0.008 -0.003,0.01c-0.001,0.003 -0.002,0.005 -0.004,0.006c-0.002,0.001 -0.004,0.002 -0.006,0.002l-0.203,-0l-0,0.15l0.175,0c0.002,0 0.004,0.001 0.006,0.002c0.002,0.001 0.003,0.003 0.005,0.006c0.001,0.002 0.002,0.006 0.002,0.01c0.001,0.004 0.001,0.009 0.001,0.015c0,0.006 -0,0.011 -0.001,0.015c-0,0.004 -0.001,0.007 -0.002,0.01c-0.002,0.002 -0.003,0.004 -0.005,0.005c-0.002,0.002 -0.004,0.002 -0.006,0.002l-0.175,0l-0,0.17l0.206,-0c0.002,-0 0.004,0 0.006,0.001c0.002,0.001 0.003,0.003 0.004,0.006c0.001,0.002 0.002,0.006 0.003,0.01c0.001,0.004 0.001,0.009 0.001,0.015Z" style="fill:#645b5b;fill-rule:nonzero;"/></g><g transform="matrix(263.713,0,0,263.713,4182.9,779.96)"><path d="M0.498,-0.265c0,0.045 -0.006,0.085 -0.018,0.118c-0.012,0.033 -0.029,0.061 -0.051,0.083c-0.023,0.021 -0.05,0.038 -0.083,0.048c-0.032,0.011 -0.072,0.016 -0.117,0.016l-0.123,0c-0.007,0 -0.013,-0.002 -0.019,-0.007c-0.005,-0.005 -0.008,-0.013 -0.008,-0.023l-0,-0.455c-0,-0.011 0.003,-0.019 0.008,-0.024c0.006,-0.004 0.012,-0.007 0.019,-0.007l0.133,0c0.045,0 0.083,0.006 0.115,0.017c0.031,0.011 0.058,0.028 0.079,0.049c0.021,0.022 0.037,0.048 0.048,0.079c0.012,0.031 0.017,0.066 0.017,0.106Zm-0.086,0.002c0,-0.026 -0.003,-0.051 -0.01,-0.074c-0.006,-0.023 -0.016,-0.042 -0.03,-0.059c-0.014,-0.017 -0.032,-0.03 -0.054,-0.04c-0.022,-0.009 -0.05,-0.014 -0.086,-0.014l-0.07,0l-0,0.384l0.07,0c0.033,0 0.061,-0.004 0.082,-0.012c0.022,-0.008 0.04,-0.02 0.055,-0.037c0.014,-0.016 0.025,-0.036 0.032,-0.061c0.008,-0.025 0.011,-0.053 0.011,-0.087Z" style="fill:#645b5b;fill-rule:nonzero;"/></g><g transform="matrix(263.713,0,0,263.713,4327.76,779.96)"><path d="M0.491,-0.443c0,0.006 -0,0.011 -0.001,0.016c-0.001,0.004 -0.002,0.007 -0.003,0.01c-0.001,0.003 -0.002,0.005 -0.004,0.006c-0.001,0.001 -0.003,0.002 -0.004,0.002c-0.005,-0 -0.011,-0.003 -0.019,-0.007c-0.008,-0.005 -0.018,-0.01 -0.031,-0.016c-0.012,-0.006 -0.027,-0.012 -0.045,-0.016c-0.018,-0.005 -0.039,-0.008 -0.064,-0.008c-0.028,0 -0.053,0.005 -0.075,0.015c-0.023,0.01 -0.042,0.023 -0.058,0.041c-0.016,0.017 -0.028,0.038 -0.036,0.062c-0.009,0.024 -0.013,0.051 -0.013,0.08c0,0.032 0.005,0.06 0.014,0.084c0.009,0.025 0.021,0.045 0.037,0.062c0.016,0.017 0.036,0.029 0.058,0.038c0.022,0.009 0.046,0.013 0.073,0.013c0.015,-0 0.03,-0.002 0.046,-0.005c0.016,-0.004 0.03,-0.009 0.043,-0.016l-0,-0.14l-0.116,0c-0.002,0 -0.004,-0 -0.006,-0.001c-0.001,-0.002 -0.003,-0.003 -0.004,-0.006c-0.001,-0.003 -0.002,-0.006 -0.003,-0.01c-0,-0.004 -0.001,-0.009 -0.001,-0.015c0,-0.006 0.001,-0.011 0.001,-0.015c0.001,-0.004 0.002,-0.007 0.003,-0.01c0.001,-0.002 0.003,-0.004 0.004,-0.005c0.002,-0.001 0.004,-0.002 0.006,-0.002l0.172,0c0.007,0 0.013,0.003 0.018,0.007c0.006,0.005 0.008,0.013 0.008,0.023l0,0.201c0,0.007 -0.001,0.012 -0.004,0.017c-0.002,0.005 -0.006,0.008 -0.012,0.011c-0.011,0.006 -0.023,0.011 -0.036,0.015c-0.013,0.004 -0.026,0.008 -0.04,0.011c-0.013,0.003 -0.027,0.005 -0.041,0.007c-0.014,0.002 -0.028,0.003 -0.041,0.003c-0.041,-0 -0.078,-0.006 -0.111,-0.019c-0.033,-0.012 -0.061,-0.03 -0.083,-0.053c-0.023,-0.022 -0.041,-0.05 -0.052,-0.082c-0.012,-0.032 -0.018,-0.068 -0.018,-0.108c-0,-0.041 0.006,-0.079 0.019,-0.112c0.013,-0.034 0.031,-0.062 0.054,-0.086c0.024,-0.023 0.052,-0.041 0.085,-0.054c0.032,-0.013 0.069,-0.019 0.109,-0.019c0.022,-0 0.042,0.001 0.06,0.005c0.019,0.003 0.035,0.007 0.049,0.012c0.014,0.005 0.025,0.01 0.034,0.016c0.009,0.005 0.015,0.009 0.018,0.012c0.004,0.003 0.006,0.007 0.008,0.012c0.001,0.005 0.002,0.013 0.002,0.024Z" style="fill:#645b5b;fill-rule:nonzero;"/></g><g transform="matrix(263.713,0,0,263.713,4476.36,779.96)"><path d="M0.382,-0.033c-0,0.006 -0,0.011 -0.001,0.015c-0.001,0.004 -0.002,0.008 -0.003,0.01c-0.001,0.003 -0.002,0.005 -0.004,0.006c-0.002,0.001 -0.004,0.002 -0.006,0.002l-0.262,0c-0.007,0 -0.013,-0.002 -0.019,-0.007c-0.005,-0.005 -0.008,-0.013 -0.008,-0.023l-0,-0.455c-0,-0.011 0.003,-0.019 0.008,-0.024c0.006,-0.004 0.012,-0.007 0.019,-0.007l0.259,0c0.002,0 0.004,0.001 0.006,0.002c0.002,0.001 0.003,0.003 0.004,0.006c0.001,0.002 0.002,0.006 0.003,0.01c0.001,0.005 0.001,0.01 0.001,0.016c-0,0.005 -0,0.01 -0.001,0.014c-0.001,0.005 -0.002,0.008 -0.003,0.01c-0.001,0.003 -0.002,0.005 -0.004,0.006c-0.002,0.001 -0.004,0.002 -0.006,0.002l-0.203,-0l-0,0.15l0.175,0c0.002,0 0.004,0.001 0.006,0.002c0.002,0.001 0.003,0.003 0.005,0.006c0.001,0.002 0.002,0.006 0.002,0.01c0.001,0.004 0.001,0.009 0.001,0.015c0,0.006 -0,0.011 -0.001,0.015c-0,0.004 -0.001,0.007 -0.002,0.01c-0.002,0.002 -0.003,0.004 -0.005,0.005c-0.002,0.002 -0.004,0.002 -0.006,0.002l-0.175,0l-0,0.17l0.206,-0c0.002,-0 0.004,0 0.006,0.001c0.002,0.001 0.003,0.003 0.004,0.006c0.001,0.002 0.002,0.006 0.003,0.01c0.001,0.004 0.001,0.009 0.001,0.015Z" style="fill:#645b5b;fill-rule:nonzero;"/></g><g><path d="M374.869,10.417l364.452,210.416l0,420.834l-364.452,210.416l-364.452,-210.416l-0,-420.834l364.452,-210.416Z" style="fill:#645b5b;stroke:#645b5b;stroke-width:20.83px;"/><path d="M374.869,308.754l106.085,61.248l-0,122.496l-106.085,61.248l-106.085,-61.248l0,-122.496l106.085,-61.248Z" style="fill:#fff;stroke:#fff;stroke-width:20.83px;"/><circle cx="374.869" cy="719.709" r="71.127" style="fill:#fff;stroke:#fff;stroke-width:20.83px;"/><g><path d="M165.065,251.238l16.794,29.087l142.016,-81.993l-16.794,-29.088l-142.016,81.994Z" style="fill:#fff;stroke:#fff;stroke-width:8.33px;"/><path d="M425.862,159.548l-16.794,29.088l142.017,81.993l16.794,-29.088l-142.017,-81.993Z" style="fill:#fff;stroke:#fff;stroke-width:8.33px;"/><path d="M279.209,395.412l16.794,-29.087l-142.017,-81.994l-16.794,29.088l142.017,81.993Z" style="fill:#fff;stroke:#fff;stroke-width:8.33px;"/><path d="M470.529,467.088l-16.794,29.087l142.017,81.994l16.794,-29.088l-142.017,-81.993Z" style="fill:#fff;stroke:#fff;stroke-width:8.33px;"/><rect x="358.075" y="166.5" width="33.588" height="163.987" style="fill:#fff;stroke:#fff;stroke-width:8.33px;"/><rect x="358.075" y="532.013" width="33.588" height="163.987" style="fill:#fff;stroke:#fff;stroke-width:8.33px;"/><path d="M584.673,611.262l-16.794,-29.087l-142.016,81.993l16.794,29.088l142.016,-81.994Z" style="fill:#fff;stroke:#fff;stroke-width:8.33px;"/><path d="M453.735,366.325l16.794,29.087l142.017,-81.993l-16.794,-29.088l-142.017,81.994Z" style="fill:#fff;stroke:#fff;stroke-width:8.33px;"/><path d="M296.003,496.175l-16.794,-29.087l-142.017,81.993l16.794,29.088l142.017,-81.994Z" style="fill:#fff;stroke:#fff;stroke-width:8.33px;"/><rect x="114.072" y="339.56" width="33.588" height="163.987" style="fill:#fff;stroke:#fff;stroke-width:8.33px;"/><path d="M323.876,702.952l16.794,-29.088l-142.017,-81.993l-16.794,29.088l142.017,81.993Z" style="fill:#fff;stroke:#fff;stroke-width:8.33px;"/><rect x="602.079" y="339.56" width="33.588" height="163.987" style="fill:#fff;stroke:#fff;stroke-width:8.33px;"/></g><circle cx="374.869" cy="142.791" r="71.127" style="fill:#fff;stroke:#fff;stroke-width:20.83px;"/><path d="M186.654,539.916c19.628,33.997 7.963,77.533 -26.034,97.161c-33.997,19.628 -77.533,7.962 -97.161,-26.034c-19.628,-33.997 -7.962,-77.533 26.034,-97.161c33.997,-19.628 77.533,-7.963 97.161,26.034Z" style="fill:#fff;stroke:#fff;stroke-width:20.83px;"/><path d="M563.084,322.584c-19.628,-33.997 -7.963,-77.533 26.034,-97.161c33.997,-19.628 77.533,-7.962 97.161,26.034c19.628,33.997 7.962,77.533 -26.034,97.161c-33.997,19.628 -77.533,7.963 -97.161,-26.034Z" style="fill:#fff;stroke:#fff;stroke-width:20.83px;"/><path d="M186.654,322.584c-19.628,33.997 -63.164,45.662 -97.161,26.034c-33.996,-19.628 -45.662,-63.164 -26.034,-97.161c19.628,-33.996 63.164,-45.662 97.161,-26.034c33.997,19.628 45.662,63.164 26.034,97.161Z" style="fill:#fff;stroke:#fff;stroke-width:20.83px;"/><path d="M563.084,539.916c19.628,-33.997 63.164,-45.662 97.161,-26.034c33.996,19.628 45.662,63.164 26.034,97.161c-19.628,33.996 -63.164,45.662 -97.161,26.034c-33.997,-19.628 -45.662,-63.164 -26.034,-97.161Z" style="fill:#fff;stroke:#fff;stroke-width:20.83px;"/><circle cx="374.869" cy="142.791" r="71.127" style="fill:#fff;stroke:#fff;stroke-width:20.83px;"/><circle cx="374.869" cy="719.709" r="71.127" style="fill:#fff;stroke:#fff;stroke-width:20.83px;"/><path d="M563.084,322.584c-19.628,-33.997 -7.963,-77.533 26.034,-97.161c33.997,-19.628 77.533,-7.962 97.161,26.034c19.628,33.997 7.962,77.533 -26.034,97.161c-33.997,19.628 -77.533,7.963 -97.161,-26.034Z" style="fill:#fff;stroke:#fff;stroke-width:20.83px;"/><path d="M186.654,539.916c19.628,33.997 7.963,77.533 -26.034,97.161c-33.997,19.628 -77.533,7.962 -97.161,-26.034c-19.628,-33.997 -7.962,-77.533 26.034,-97.161c33.997,-19.628 77.533,-7.963 97.161,26.034Z" style="fill:#fff;stroke:#fff;stroke-width:20.83px;"/></g></g></svg>