<?xml version="1.0" encoding="UTF-8" standalone="no"?>
<!DOCTYPE svg PUBLIC "-//W3C//DTD SVG 1.1//EN" "http://www.w3.org/Graphics/SVG/1.1/DTD/svg11.dtd">
<svg width="100%" height="100%" viewBox="0 0 1102 209" version="1.1" xmlns="http://www.w3.org/2000/svg" xmlns:xlink="http://www.w3.org/1999/xlink" xml:space="preserve" xmlns:serif="http://www.serif.com/" style="fill-rule:evenodd;clip-rule:evenodd;stroke-linejoin:round;stroke-miterlimit:2;">
    <g transform="matrix(1,0,0,1,-89.1147,-407.906)">
        <g transform="matrix(1,0,0,1,7.71652,-1.13687e-13)">
            <g transform="matrix(0.576601,0,0,0.588855,-95.3032,107.59)">
                <g transform="matrix(1,0,0,1,-2.4485,17.7784)">
                    <path d="M472.449,518.675C562.712,518.675 635.995,591.958 635.995,682.222C635.995,772.485 562.712,845.768 472.449,845.768C382.185,845.768 308.902,772.485 308.902,682.222C308.902,591.958 382.185,518.675 472.449,518.675ZM472.449,539.369C551.291,539.369 615.301,603.379 615.301,682.222C615.301,761.064 551.291,825.074 472.449,825.074C393.606,825.074 329.596,761.064 329.596,682.222C329.596,603.379 393.606,539.369 472.449,539.369Z" style="fill:rgb(100,91,91);"/>
                </g>
                <path d="M500,532.644C490.263,530.907 480.236,530 470,530C459.764,530 449.737,530.907 440,532.644L440,527.273C440,517.734 447.898,510 457.641,510C465.38,510 474.45,510 482.207,510C486.926,510 491.452,511.836 494.789,515.103C498.125,518.37 500,522.802 500,527.423L500,532.644Z" style="fill:rgb(100,91,91);"/>
                <path d="M469.836,570C541.494,570 599.671,628.177 599.671,699.836C599.671,771.494 541.494,829.671 469.836,829.671C398.177,829.671 340,771.494 340,699.836C340,628.177 398.177,570 469.836,570ZM526.544,608.231C526.933,606.694 526.229,605.091 524.822,604.309C523.415,603.528 521.649,603.759 520.501,604.876C497.818,626.94 440.78,682.419 440.78,682.419C440.78,682.419 420.381,762.994 412.99,792.191C412.659,793.497 413.257,794.859 414.452,795.523C415.647,796.187 417.148,795.99 418.123,795.042C439.773,773.982 499.22,716.159 499.22,716.159C499.22,716.159 518.797,638.828 526.544,608.231ZM479.034,683.641C487.098,688.297 489.865,698.623 485.209,706.686C480.554,714.749 470.228,717.516 462.164,712.861C454.101,708.206 451.334,697.879 455.99,689.816C460.645,681.753 470.971,678.986 479.034,683.641Z" style="fill:rgb(100,91,91);"/>
            </g>
            <g transform="matrix(1.10714,0,0,1.10714,-68.5714,-54.8571)">
                <g transform="matrix(1.42916,0,0,1.42916,-619.749,-42.0583)">
                    <g transform="matrix(96,0,0,96,667.871,411.476)">
                        <path d="M0.439,-0.074C0.439,-0.065 0.438,-0.057 0.437,-0.052C0.436,-0.047 0.433,-0.042 0.429,-0.038C0.424,-0.033 0.418,-0.029 0.41,-0.023C0.401,-0.018 0.391,-0.013 0.379,-0.008C0.367,-0.004 0.354,0 0.339,0.003C0.323,0.006 0.307,0.008 0.289,0.008C0.254,0.008 0.222,0.002 0.193,-0.01C0.164,-0.021 0.139,-0.038 0.118,-0.06C0.098,-0.083 0.082,-0.11 0.07,-0.143C0.059,-0.176 0.053,-0.213 0.053,-0.255C0.053,-0.297 0.059,-0.335 0.071,-0.368C0.082,-0.401 0.098,-0.43 0.119,-0.453C0.14,-0.476 0.165,-0.493 0.194,-0.505C0.223,-0.517 0.255,-0.523 0.291,-0.523C0.306,-0.523 0.321,-0.522 0.335,-0.52C0.349,-0.517 0.362,-0.513 0.374,-0.509C0.386,-0.504 0.397,-0.499 0.406,-0.494C0.416,-0.489 0.423,-0.484 0.427,-0.479C0.431,-0.475 0.434,-0.47 0.436,-0.465C0.437,-0.459 0.438,-0.451 0.438,-0.44C0.438,-0.434 0.438,-0.429 0.437,-0.425C0.436,-0.421 0.435,-0.417 0.434,-0.414C0.433,-0.412 0.432,-0.41 0.43,-0.408C0.429,-0.407 0.427,-0.406 0.424,-0.406C0.421,-0.406 0.416,-0.409 0.41,-0.414C0.403,-0.419 0.395,-0.424 0.385,-0.43C0.375,-0.436 0.362,-0.441 0.347,-0.446C0.332,-0.451 0.314,-0.454 0.293,-0.454C0.27,-0.454 0.249,-0.449 0.231,-0.44C0.212,-0.431 0.196,-0.418 0.183,-0.402C0.17,-0.385 0.16,-0.364 0.152,-0.34C0.145,-0.315 0.142,-0.288 0.142,-0.258C0.142,-0.226 0.145,-0.198 0.153,-0.173C0.161,-0.149 0.172,-0.129 0.186,-0.112C0.2,-0.096 0.216,-0.084 0.236,-0.075C0.255,-0.067 0.277,-0.063 0.3,-0.063C0.32,-0.063 0.337,-0.065 0.351,-0.07C0.365,-0.075 0.378,-0.08 0.387,-0.086C0.397,-0.092 0.406,-0.097 0.412,-0.102C0.419,-0.107 0.424,-0.109 0.428,-0.109C0.43,-0.109 0.432,-0.109 0.433,-0.108C0.434,-0.107 0.435,-0.105 0.436,-0.102C0.437,-0.1 0.438,-0.096 0.438,-0.091C0.439,-0.087 0.439,-0.081 0.439,-0.074Z" style="fill:rgb(38,164,123);fill-rule:nonzero;"/>
                    </g>
                    <g transform="matrix(96,0,0,96,712.356,411.476)">
                        <path d="M0.533,-0.265C0.533,-0.222 0.528,-0.184 0.517,-0.151C0.507,-0.117 0.491,-0.088 0.47,-0.065C0.45,-0.041 0.424,-0.023 0.394,-0.01C0.363,0.002 0.328,0.009 0.288,0.009C0.248,0.009 0.214,0.003 0.184,-0.008C0.154,-0.019 0.129,-0.035 0.109,-0.057C0.089,-0.079 0.074,-0.107 0.064,-0.14C0.055,-0.173 0.05,-0.211 0.05,-0.254C0.05,-0.295 0.055,-0.333 0.066,-0.366C0.077,-0.399 0.092,-0.428 0.113,-0.451C0.134,-0.475 0.16,-0.493 0.19,-0.505C0.221,-0.518 0.256,-0.524 0.296,-0.524C0.334,-0.524 0.368,-0.519 0.397,-0.508C0.427,-0.497 0.451,-0.48 0.472,-0.458C0.492,-0.437 0.507,-0.41 0.518,-0.377C0.528,-0.345 0.533,-0.308 0.533,-0.265ZM0.446,-0.259C0.446,-0.288 0.444,-0.314 0.438,-0.338C0.433,-0.362 0.424,-0.383 0.412,-0.4C0.4,-0.418 0.384,-0.432 0.365,-0.441C0.345,-0.451 0.321,-0.456 0.292,-0.456C0.264,-0.456 0.24,-0.451 0.22,-0.44C0.2,-0.43 0.184,-0.416 0.172,-0.398C0.16,-0.38 0.151,-0.359 0.145,-0.335C0.14,-0.311 0.137,-0.286 0.137,-0.259C0.137,-0.23 0.139,-0.203 0.145,-0.178C0.15,-0.154 0.158,-0.133 0.171,-0.115C0.183,-0.097 0.199,-0.084 0.218,-0.074C0.238,-0.064 0.262,-0.06 0.291,-0.06C0.319,-0.06 0.343,-0.065 0.363,-0.076C0.383,-0.086 0.399,-0.101 0.412,-0.119C0.424,-0.137 0.433,-0.159 0.438,-0.183C0.444,-0.207 0.446,-0.233 0.446,-0.259Z" style="fill:rgb(38,164,123);fill-rule:nonzero;"/>
                    </g>
                    <g transform="matrix(96,0,0,96,768.324,411.476)">
                        <path d="M0.492,-0.032C0.492,-0.021 0.489,-0.013 0.484,-0.008C0.478,-0.003 0.471,0 0.463,0L0.407,0C0.397,0 0.389,-0.003 0.382,-0.008C0.376,-0.013 0.37,-0.021 0.365,-0.031L0.229,-0.287C0.215,-0.311 0.203,-0.336 0.19,-0.361C0.177,-0.386 0.164,-0.411 0.151,-0.436L0.151,-0.436C0.151,-0.424 0.151,-0.413 0.151,-0.401L0.153,-0.328C0.153,-0.316 0.153,-0.305 0.153,-0.293L0.153,-0.011C0.153,-0.009 0.152,-0.007 0.151,-0.005C0.15,-0.003 0.148,-0.002 0.145,-0.001C0.142,0 0.139,0.001 0.134,0.002C0.13,0.003 0.124,0.003 0.117,0.003C0.109,0.003 0.103,0.003 0.098,0.002C0.093,0.001 0.089,0 0.086,-0.001C0.083,-0.002 0.081,-0.003 0.08,-0.005C0.079,-0.007 0.079,-0.009 0.079,-0.011L0.079,-0.483C0.079,-0.494 0.082,-0.503 0.088,-0.508C0.094,-0.513 0.101,-0.516 0.109,-0.516L0.169,-0.516C0.175,-0.516 0.18,-0.515 0.184,-0.514C0.189,-0.512 0.193,-0.51 0.196,-0.508C0.199,-0.506 0.202,-0.502 0.205,-0.499C0.208,-0.495 0.21,-0.49 0.213,-0.485L0.337,-0.252C0.351,-0.226 0.365,-0.2 0.379,-0.174C0.392,-0.147 0.406,-0.121 0.419,-0.094L0.42,-0.094C0.42,-0.107 0.42,-0.121 0.42,-0.135L0.419,-0.218C0.419,-0.232 0.418,-0.245 0.418,-0.258L0.418,-0.503C0.418,-0.506 0.419,-0.508 0.42,-0.51C0.421,-0.512 0.423,-0.513 0.426,-0.515C0.429,-0.516 0.432,-0.517 0.437,-0.518C0.442,-0.518 0.448,-0.519 0.455,-0.519C0.463,-0.519 0.469,-0.518 0.474,-0.518C0.479,-0.517 0.482,-0.516 0.485,-0.515C0.488,-0.513 0.49,-0.512 0.491,-0.51C0.492,-0.508 0.492,-0.506 0.492,-0.503L0.492,-0.032Z" style="fill:rgb(38,164,123);fill-rule:nonzero;"/>
                    </g>
                    <g transform="matrix(96,0,0,96,823.121,411.476)">
                        <path d="M0.405,-0.482C0.405,-0.47 0.404,-0.461 0.402,-0.456C0.399,-0.45 0.396,-0.448 0.391,-0.448L0.251,-0.448L0.251,-0.011C0.251,-0.009 0.25,-0.007 0.249,-0.005C0.247,-0.003 0.245,-0.002 0.242,-0.001C0.239,0 0.235,0.001 0.23,0.002C0.224,0.003 0.218,0.003 0.209,0.003C0.201,0.003 0.194,0.003 0.189,0.002C0.184,0.001 0.18,0 0.177,-0.001C0.174,-0.002 0.171,-0.003 0.17,-0.005C0.169,-0.007 0.168,-0.009 0.168,-0.011L0.168,-0.448L0.028,-0.448C0.026,-0.448 0.024,-0.448 0.022,-0.45C0.02,-0.451 0.018,-0.453 0.017,-0.456C0.016,-0.459 0.015,-0.462 0.014,-0.467C0.014,-0.471 0.014,-0.476 0.014,-0.482C0.014,-0.488 0.014,-0.493 0.014,-0.497C0.015,-0.502 0.016,-0.505 0.017,-0.508C0.018,-0.511 0.02,-0.513 0.022,-0.514C0.024,-0.515 0.026,-0.516 0.028,-0.516L0.391,-0.516C0.393,-0.516 0.395,-0.515 0.397,-0.514C0.399,-0.513 0.4,-0.511 0.402,-0.508C0.403,-0.505 0.404,-0.502 0.404,-0.497C0.405,-0.493 0.405,-0.488 0.405,-0.482Z" style="fill:rgb(38,164,123);fill-rule:nonzero;"/>
                    </g>
                    <g transform="matrix(96,0,0,96,863.293,411.476)">
                        <path d="M0.382,-0.033C0.382,-0.027 0.382,-0.022 0.381,-0.018C0.38,-0.014 0.379,-0.01 0.378,-0.008C0.377,-0.005 0.376,-0.003 0.374,-0.002C0.372,-0.001 0.37,0 0.368,0L0.106,0C0.099,0 0.093,-0.002 0.087,-0.007C0.082,-0.012 0.079,-0.02 0.079,-0.03L0.079,-0.485C0.079,-0.496 0.082,-0.504 0.087,-0.509C0.093,-0.513 0.099,-0.516 0.106,-0.516L0.365,-0.516C0.367,-0.516 0.369,-0.515 0.371,-0.514C0.373,-0.513 0.374,-0.511 0.375,-0.508C0.376,-0.506 0.377,-0.502 0.378,-0.498C0.379,-0.493 0.379,-0.488 0.379,-0.482C0.379,-0.477 0.379,-0.472 0.378,-0.468C0.377,-0.463 0.376,-0.46 0.375,-0.458C0.374,-0.455 0.373,-0.453 0.371,-0.452C0.369,-0.451 0.367,-0.45 0.365,-0.45L0.162,-0.45L0.162,-0.3L0.337,-0.3C0.339,-0.3 0.341,-0.299 0.343,-0.298C0.345,-0.297 0.346,-0.295 0.348,-0.292C0.349,-0.29 0.35,-0.286 0.35,-0.282C0.351,-0.278 0.351,-0.273 0.351,-0.267C0.351,-0.261 0.351,-0.256 0.35,-0.252C0.35,-0.248 0.349,-0.245 0.348,-0.242C0.346,-0.24 0.345,-0.238 0.343,-0.237C0.341,-0.235 0.339,-0.235 0.337,-0.235L0.162,-0.235L0.162,-0.065L0.368,-0.065C0.37,-0.065 0.372,-0.065 0.374,-0.064C0.376,-0.063 0.377,-0.061 0.378,-0.058C0.379,-0.056 0.38,-0.052 0.381,-0.048C0.382,-0.044 0.382,-0.039 0.382,-0.033Z" style="fill:rgb(38,164,123);fill-rule:nonzero;"/>
                    </g>
                    <g transform="matrix(96,0,0,96,904.731,411.476)">
                        <path d="M0.438,-0.03C0.443,-0.022 0.446,-0.016 0.446,-0.012C0.447,-0.008 0.446,-0.005 0.443,-0.003C0.44,-0.001 0.435,0.001 0.428,0.002C0.422,0.003 0.413,0.003 0.403,0.003C0.393,0.003 0.385,0.003 0.379,0.002C0.372,0.002 0.368,0.001 0.364,0C0.36,-0.002 0.358,-0.003 0.356,-0.005C0.355,-0.007 0.353,-0.01 0.351,-0.012L0.24,-0.198L0.234,-0.209L0.229,-0.198L0.117,-0.012C0.116,-0.01 0.114,-0.007 0.112,-0.005C0.111,-0.003 0.108,-0.002 0.105,0C0.101,0.001 0.097,0.002 0.091,0.002C0.086,0.003 0.079,0.003 0.07,0.003C0.06,0.003 0.052,0.003 0.045,0.002C0.039,0.001 0.034,-0.001 0.031,-0.003C0.028,-0.005 0.027,-0.008 0.027,-0.012C0.028,-0.016 0.03,-0.021 0.035,-0.029L0.182,-0.262L0.042,-0.486C0.039,-0.493 0.036,-0.499 0.035,-0.503C0.035,-0.508 0.036,-0.511 0.039,-0.513C0.042,-0.515 0.046,-0.517 0.053,-0.518C0.059,-0.518 0.068,-0.519 0.08,-0.519C0.089,-0.519 0.097,-0.518 0.102,-0.518C0.108,-0.517 0.112,-0.517 0.115,-0.515C0.119,-0.514 0.121,-0.513 0.123,-0.511C0.125,-0.509 0.126,-0.507 0.128,-0.504L0.234,-0.332L0.241,-0.319L0.247,-0.332L0.351,-0.503C0.352,-0.506 0.353,-0.508 0.355,-0.51C0.357,-0.512 0.359,-0.514 0.362,-0.515C0.365,-0.516 0.369,-0.517 0.375,-0.518C0.38,-0.518 0.388,-0.519 0.397,-0.519C0.408,-0.519 0.416,-0.518 0.422,-0.517C0.429,-0.516 0.433,-0.514 0.435,-0.512C0.438,-0.51 0.438,-0.507 0.438,-0.502C0.437,-0.498 0.434,-0.493 0.431,-0.486L0.292,-0.264L0.438,-0.03Z" style="fill:rgb(38,164,123);fill-rule:nonzero;"/>
                    </g>
                    <g transform="matrix(96,0,0,96,950.293,411.476)">
                        <path d="M0.405,-0.482C0.405,-0.47 0.404,-0.461 0.402,-0.456C0.399,-0.45 0.396,-0.448 0.391,-0.448L0.251,-0.448L0.251,-0.011C0.251,-0.009 0.25,-0.007 0.249,-0.005C0.247,-0.003 0.245,-0.002 0.242,-0.001C0.239,0 0.235,0.001 0.23,0.002C0.224,0.003 0.218,0.003 0.209,0.003C0.201,0.003 0.194,0.003 0.189,0.002C0.184,0.001 0.18,0 0.177,-0.001C0.174,-0.002 0.171,-0.003 0.17,-0.005C0.169,-0.007 0.168,-0.009 0.168,-0.011L0.168,-0.448L0.028,-0.448C0.026,-0.448 0.024,-0.448 0.022,-0.45C0.02,-0.451 0.018,-0.453 0.017,-0.456C0.016,-0.459 0.015,-0.462 0.014,-0.467C0.014,-0.471 0.014,-0.476 0.014,-0.482C0.014,-0.488 0.014,-0.493 0.014,-0.497C0.015,-0.502 0.016,-0.505 0.017,-0.508C0.018,-0.511 0.02,-0.513 0.022,-0.514C0.024,-0.515 0.026,-0.516 0.028,-0.516L0.391,-0.516C0.393,-0.516 0.395,-0.515 0.397,-0.514C0.399,-0.513 0.4,-0.511 0.402,-0.508C0.403,-0.505 0.404,-0.502 0.404,-0.497C0.405,-0.493 0.405,-0.488 0.405,-0.482Z" style="fill:rgb(38,164,123);fill-rule:nonzero;"/>
                    </g>
                    <g transform="matrix(96,0,0,96,990.465,411.476)">
                        <path d="M0.491,-0.2C0.491,-0.162 0.486,-0.131 0.476,-0.107C0.466,-0.082 0.452,-0.061 0.435,-0.044C0.417,-0.027 0.395,-0.014 0.369,-0.005C0.343,0.004 0.315,0.009 0.283,0.009C0.252,0.009 0.224,0.005 0.198,-0.004C0.173,-0.012 0.151,-0.024 0.133,-0.041C0.115,-0.057 0.101,-0.078 0.092,-0.102C0.082,-0.126 0.078,-0.159 0.078,-0.2L0.078,-0.505C0.078,-0.507 0.078,-0.509 0.08,-0.51C0.081,-0.512 0.083,-0.514 0.086,-0.515C0.09,-0.516 0.094,-0.517 0.099,-0.518C0.104,-0.518 0.111,-0.519 0.119,-0.519C0.127,-0.519 0.134,-0.518 0.139,-0.518C0.145,-0.517 0.149,-0.516 0.152,-0.515C0.155,-0.514 0.157,-0.512 0.159,-0.51C0.16,-0.509 0.161,-0.507 0.161,-0.505L0.161,-0.206C0.161,-0.174 0.163,-0.15 0.169,-0.134C0.175,-0.118 0.183,-0.104 0.195,-0.093C0.206,-0.082 0.219,-0.073 0.235,-0.068C0.25,-0.062 0.267,-0.06 0.286,-0.06C0.304,-0.06 0.321,-0.062 0.336,-0.068C0.352,-0.073 0.365,-0.082 0.376,-0.093C0.387,-0.104 0.395,-0.117 0.401,-0.134C0.406,-0.15 0.409,-0.172 0.409,-0.201L0.409,-0.505C0.409,-0.507 0.409,-0.509 0.411,-0.51C0.412,-0.512 0.414,-0.514 0.417,-0.515C0.42,-0.516 0.424,-0.517 0.43,-0.518C0.435,-0.518 0.441,-0.519 0.449,-0.519C0.459,-0.519 0.466,-0.518 0.471,-0.518C0.476,-0.517 0.48,-0.516 0.483,-0.515C0.486,-0.514 0.488,-0.512 0.49,-0.51C0.491,-0.509 0.491,-0.507 0.491,-0.505L0.491,-0.2Z" style="fill:rgb(38,164,123);fill-rule:nonzero;"/>
                    </g>
                    <g transform="matrix(96,0,0,96,1043.39,411.476)">
                        <path d="M0.482,-0.029C0.484,-0.022 0.485,-0.016 0.486,-0.012C0.486,-0.008 0.485,-0.005 0.483,-0.002C0.48,0 0.476,0.001 0.469,0.002C0.463,0.003 0.455,0.003 0.444,0.003C0.433,0.003 0.425,0.003 0.419,0.002C0.413,0.002 0.408,0.001 0.405,0C0.402,-0.001 0.399,-0.002 0.398,-0.004C0.397,-0.006 0.396,-0.009 0.395,-0.012L0.352,-0.127L0.134,-0.127L0.094,-0.013C0.092,-0.01 0.091,-0.007 0.089,-0.005C0.087,-0.003 0.085,-0.002 0.082,0C0.079,0.001 0.074,0.002 0.069,0.002C0.063,0.003 0.055,0.003 0.046,0.003C0.037,0.003 0.029,0.003 0.023,0.002C0.018,0.001 0.014,-0.001 0.011,-0.003C0.009,-0.005 0.008,-0.009 0.009,-0.013C0.009,-0.018 0.01,-0.023 0.013,-0.03L0.189,-0.501C0.191,-0.505 0.192,-0.508 0.194,-0.51C0.196,-0.513 0.199,-0.514 0.203,-0.515C0.207,-0.517 0.212,-0.517 0.218,-0.518C0.225,-0.518 0.233,-0.519 0.242,-0.519C0.251,-0.519 0.257,-0.518 0.263,-0.518C0.269,-0.518 0.274,-0.518 0.278,-0.517C0.281,-0.517 0.285,-0.516 0.288,-0.515C0.291,-0.515 0.293,-0.514 0.295,-0.512C0.297,-0.511 0.298,-0.509 0.3,-0.507C0.301,-0.505 0.302,-0.503 0.303,-0.5L0.482,-0.029ZM0.242,-0.438L0.241,-0.438L0.156,-0.193L0.331,-0.193L0.242,-0.438Z" style="fill:rgb(38,164,123);fill-rule:nonzero;"/>
                    </g>
                    <g transform="matrix(96,0,0,96,1090.82,411.476)">
                        <path d="M0.356,-0.034C0.356,-0.022 0.355,-0.013 0.352,-0.008C0.349,-0.003 0.346,0 0.341,0L0.106,0C0.099,0 0.093,-0.002 0.087,-0.007C0.082,-0.012 0.079,-0.02 0.079,-0.03L0.079,-0.505C0.079,-0.507 0.079,-0.509 0.081,-0.51C0.082,-0.512 0.084,-0.514 0.087,-0.515C0.091,-0.516 0.095,-0.517 0.1,-0.518C0.106,-0.518 0.112,-0.519 0.12,-0.519C0.128,-0.519 0.135,-0.518 0.14,-0.518C0.145,-0.517 0.15,-0.516 0.153,-0.515C0.156,-0.514 0.158,-0.512 0.16,-0.51C0.161,-0.509 0.162,-0.507 0.162,-0.505L0.162,-0.068L0.341,-0.068C0.343,-0.068 0.345,-0.067 0.347,-0.066C0.349,-0.065 0.351,-0.063 0.352,-0.06C0.353,-0.058 0.354,-0.054 0.355,-0.05C0.356,-0.045 0.356,-0.04 0.356,-0.034Z" style="fill:rgb(38,164,123);fill-rule:nonzero;"/>
                    </g>
                    <g transform="matrix(96,0,0,96,1125.32,411.476)">
                        <path d="M0.162,-0.011C0.162,-0.009 0.161,-0.007 0.16,-0.005C0.158,-0.003 0.156,-0.002 0.153,-0.001C0.15,0 0.145,0.001 0.14,0.002C0.135,0.003 0.128,0.003 0.12,0.003C0.112,0.003 0.106,0.003 0.1,0.002C0.095,0.001 0.091,0 0.087,-0.001C0.084,-0.002 0.082,-0.003 0.081,-0.005C0.079,-0.007 0.079,-0.009 0.079,-0.011L0.079,-0.505C0.079,-0.507 0.079,-0.509 0.081,-0.51C0.082,-0.512 0.085,-0.514 0.088,-0.515C0.091,-0.516 0.095,-0.517 0.101,-0.518C0.106,-0.518 0.112,-0.519 0.12,-0.519C0.128,-0.519 0.135,-0.518 0.14,-0.518C0.145,-0.517 0.15,-0.516 0.153,-0.515C0.156,-0.514 0.158,-0.512 0.16,-0.51C0.161,-0.509 0.162,-0.507 0.162,-0.505L0.162,-0.011Z" style="fill:rgb(38,164,123);fill-rule:nonzero;"/>
                    </g>
                    <g transform="matrix(96,0,0,96,1148.39,411.476)">
                        <path d="M0.373,-0.144C0.373,-0.12 0.368,-0.098 0.359,-0.08C0.349,-0.061 0.336,-0.045 0.319,-0.032C0.303,-0.019 0.283,-0.009 0.26,-0.002C0.237,0.005 0.212,0.009 0.185,0.009C0.168,0.009 0.152,0.007 0.136,0.004C0.121,0.001 0.107,-0.002 0.095,-0.007C0.082,-0.011 0.072,-0.015 0.063,-0.02C0.055,-0.025 0.049,-0.028 0.046,-0.031C0.044,-0.033 0.042,-0.036 0.041,-0.037C0.04,-0.039 0.039,-0.041 0.038,-0.044C0.037,-0.047 0.036,-0.05 0.036,-0.053C0.036,-0.056 0.036,-0.061 0.036,-0.066C0.036,-0.072 0.036,-0.078 0.036,-0.083C0.036,-0.087 0.037,-0.091 0.038,-0.095C0.039,-0.098 0.041,-0.1 0.043,-0.102C0.045,-0.103 0.047,-0.104 0.049,-0.104C0.053,-0.104 0.058,-0.102 0.066,-0.097C0.073,-0.092 0.082,-0.087 0.094,-0.081C0.105,-0.076 0.119,-0.07 0.135,-0.066C0.15,-0.061 0.168,-0.059 0.188,-0.059C0.202,-0.059 0.216,-0.06 0.228,-0.064C0.24,-0.068 0.251,-0.073 0.26,-0.079C0.269,-0.086 0.276,-0.094 0.281,-0.104C0.286,-0.113 0.289,-0.124 0.289,-0.137C0.289,-0.15 0.285,-0.162 0.278,-0.172C0.271,-0.182 0.262,-0.19 0.25,-0.198C0.239,-0.206 0.226,-0.212 0.211,-0.219C0.197,-0.225 0.182,-0.231 0.167,-0.238C0.152,-0.245 0.137,-0.252 0.122,-0.26C0.107,-0.269 0.094,-0.279 0.083,-0.29C0.071,-0.301 0.062,-0.315 0.055,-0.33C0.048,-0.346 0.045,-0.365 0.045,-0.386C0.045,-0.407 0.049,-0.426 0.058,-0.443C0.066,-0.46 0.078,-0.474 0.093,-0.486C0.108,-0.498 0.125,-0.508 0.146,-0.514C0.166,-0.521 0.188,-0.524 0.211,-0.524C0.225,-0.524 0.238,-0.523 0.251,-0.521C0.265,-0.518 0.277,-0.515 0.288,-0.511C0.299,-0.508 0.308,-0.504 0.316,-0.5C0.324,-0.496 0.329,-0.492 0.332,-0.49C0.334,-0.488 0.336,-0.485 0.337,-0.484C0.338,-0.482 0.339,-0.48 0.34,-0.477C0.34,-0.474 0.341,-0.471 0.341,-0.467C0.342,-0.463 0.342,-0.458 0.342,-0.453C0.342,-0.447 0.342,-0.442 0.341,-0.438C0.341,-0.433 0.34,-0.43 0.339,-0.427C0.338,-0.424 0.337,-0.422 0.335,-0.421C0.334,-0.42 0.332,-0.419 0.33,-0.419C0.327,-0.419 0.322,-0.421 0.315,-0.425C0.309,-0.43 0.3,-0.434 0.29,-0.439C0.28,-0.443 0.269,-0.448 0.255,-0.452C0.242,-0.456 0.227,-0.458 0.21,-0.458C0.198,-0.458 0.186,-0.457 0.176,-0.453C0.165,-0.45 0.157,-0.445 0.149,-0.439C0.142,-0.433 0.137,-0.426 0.133,-0.418C0.129,-0.409 0.127,-0.401 0.127,-0.391C0.127,-0.377 0.131,-0.365 0.138,-0.355C0.145,-0.345 0.154,-0.336 0.166,-0.329C0.177,-0.321 0.19,-0.314 0.205,-0.308C0.22,-0.302 0.235,-0.295 0.25,-0.289C0.265,-0.282 0.28,-0.275 0.295,-0.267C0.31,-0.258 0.323,-0.249 0.334,-0.238C0.346,-0.227 0.355,-0.214 0.362,-0.198C0.369,-0.183 0.373,-0.165 0.373,-0.144Z" style="fill:rgb(38,164,123);fill-rule:nonzero;"/>
                    </g>
                    <g transform="matrix(96,0,0,96,1188.09,411.476)">
                        <path d="M0.382,-0.033C0.382,-0.027 0.382,-0.022 0.381,-0.018C0.38,-0.014 0.379,-0.01 0.378,-0.008C0.377,-0.005 0.376,-0.003 0.374,-0.002C0.372,-0.001 0.37,0 0.368,0L0.106,0C0.099,0 0.093,-0.002 0.087,-0.007C0.082,-0.012 0.079,-0.02 0.079,-0.03L0.079,-0.485C0.079,-0.496 0.082,-0.504 0.087,-0.509C0.093,-0.513 0.099,-0.516 0.106,-0.516L0.365,-0.516C0.367,-0.516 0.369,-0.515 0.371,-0.514C0.373,-0.513 0.374,-0.511 0.375,-0.508C0.376,-0.506 0.377,-0.502 0.378,-0.498C0.379,-0.493 0.379,-0.488 0.379,-0.482C0.379,-0.477 0.379,-0.472 0.378,-0.468C0.377,-0.463 0.376,-0.46 0.375,-0.458C0.374,-0.455 0.373,-0.453 0.371,-0.452C0.369,-0.451 0.367,-0.45 0.365,-0.45L0.162,-0.45L0.162,-0.3L0.337,-0.3C0.339,-0.3 0.341,-0.299 0.343,-0.298C0.345,-0.297 0.346,-0.295 0.348,-0.292C0.349,-0.29 0.35,-0.286 0.35,-0.282C0.351,-0.278 0.351,-0.273 0.351,-0.267C0.351,-0.261 0.351,-0.256 0.35,-0.252C0.35,-0.248 0.349,-0.245 0.348,-0.242C0.346,-0.24 0.345,-0.238 0.343,-0.237C0.341,-0.235 0.339,-0.235 0.337,-0.235L0.162,-0.235L0.162,-0.065L0.368,-0.065C0.37,-0.065 0.372,-0.065 0.374,-0.064C0.376,-0.063 0.377,-0.061 0.378,-0.058C0.379,-0.056 0.38,-0.052 0.381,-0.048C0.382,-0.044 0.382,-0.039 0.382,-0.033Z" style="fill:rgb(38,164,123);fill-rule:nonzero;"/>
                    </g>
                </g>
                <g transform="matrix(1.42916,0,0,1.42916,213.151,-175.664)">
                    <g transform="matrix(40,0,0,40,285.412,532.946)">
                        <path d="M0.674,-0.011C0.674,-0.009 0.674,-0.007 0.673,-0.005C0.671,-0.003 0.669,-0.002 0.666,-0.001C0.663,0 0.659,0.001 0.654,0.002C0.649,0.003 0.642,0.003 0.635,0.003C0.627,0.003 0.62,0.003 0.615,0.002C0.61,0.001 0.605,0 0.603,-0.001C0.6,-0.002 0.598,-0.003 0.596,-0.005C0.595,-0.007 0.595,-0.009 0.595,-0.011L0.595,-0.444L0.594,-0.444L0.412,-0.009C0.41,-0.005 0.407,-0.002 0.401,0C0.395,0.002 0.386,0.003 0.373,0.003C0.366,0.003 0.361,0.003 0.356,0.002C0.351,0.002 0.348,0.001 0.345,0C0.342,-0.001 0.34,-0.002 0.338,-0.004C0.337,-0.005 0.335,-0.007 0.334,-0.009L0.159,-0.444L0.158,-0.444L0.158,-0.011C0.158,-0.009 0.158,-0.007 0.156,-0.005C0.155,-0.003 0.153,-0.002 0.15,-0.001C0.147,0 0.143,0.001 0.138,0.002C0.133,0.003 0.126,0.003 0.118,0.003C0.11,0.003 0.103,0.003 0.098,0.002C0.093,0.001 0.089,0 0.086,-0.001C0.083,-0.002 0.081,-0.003 0.08,-0.005C0.079,-0.007 0.079,-0.009 0.079,-0.011L0.079,-0.483C0.079,-0.494 0.082,-0.503 0.088,-0.508C0.094,-0.513 0.101,-0.516 0.109,-0.516L0.162,-0.516C0.172,-0.516 0.18,-0.515 0.188,-0.513C0.195,-0.511 0.201,-0.508 0.206,-0.503C0.212,-0.499 0.216,-0.494 0.22,-0.487C0.224,-0.481 0.228,-0.473 0.23,-0.464L0.375,-0.115L0.377,-0.115L0.527,-0.462C0.531,-0.472 0.535,-0.48 0.539,-0.487C0.543,-0.494 0.548,-0.5 0.553,-0.504C0.558,-0.508 0.564,-0.511 0.571,-0.513C0.578,-0.515 0.586,-0.516 0.595,-0.516L0.645,-0.516C0.653,-0.516 0.66,-0.513 0.666,-0.508C0.671,-0.503 0.674,-0.494 0.674,-0.483L0.674,-0.011Z" style="fill:rgb(100,91,91);fill-rule:nonzero;"/>
                    </g>
                    <g transform="matrix(40,0,0,40,315.529,532.946)">
                        <path d="M0.482,-0.029C0.484,-0.022 0.485,-0.016 0.486,-0.012C0.486,-0.008 0.485,-0.005 0.483,-0.002C0.48,0 0.476,0.001 0.469,0.002C0.463,0.003 0.455,0.003 0.444,0.003C0.433,0.003 0.425,0.003 0.419,0.002C0.413,0.002 0.408,0.001 0.405,0C0.402,-0.001 0.399,-0.002 0.398,-0.004C0.397,-0.006 0.396,-0.009 0.395,-0.012L0.352,-0.127L0.134,-0.127L0.094,-0.013C0.092,-0.01 0.091,-0.007 0.089,-0.005C0.087,-0.003 0.085,-0.002 0.082,0C0.079,0.001 0.074,0.002 0.069,0.002C0.063,0.003 0.055,0.003 0.046,0.003C0.037,0.003 0.029,0.003 0.023,0.002C0.018,0.001 0.014,-0.001 0.011,-0.003C0.009,-0.005 0.008,-0.009 0.009,-0.013C0.009,-0.018 0.01,-0.023 0.013,-0.03L0.189,-0.501C0.191,-0.505 0.192,-0.508 0.194,-0.51C0.196,-0.513 0.199,-0.514 0.203,-0.515C0.207,-0.517 0.212,-0.517 0.218,-0.518C0.225,-0.518 0.233,-0.519 0.242,-0.519C0.251,-0.519 0.257,-0.518 0.263,-0.518C0.269,-0.518 0.274,-0.518 0.278,-0.517C0.281,-0.517 0.285,-0.516 0.288,-0.515C0.291,-0.515 0.293,-0.514 0.295,-0.512C0.297,-0.511 0.298,-0.509 0.3,-0.507C0.301,-0.505 0.302,-0.503 0.303,-0.5L0.482,-0.029ZM0.242,-0.438L0.241,-0.438L0.156,-0.193L0.331,-0.193L0.242,-0.438Z" style="fill:rgb(100,91,91);fill-rule:nonzero;"/>
                    </g>
                    <g transform="matrix(40,0,0,40,335.294,532.946)">
                        <path d="M0.427,-0.362C0.427,-0.335 0.423,-0.311 0.414,-0.29C0.406,-0.268 0.393,-0.25 0.377,-0.236C0.361,-0.221 0.341,-0.21 0.318,-0.202C0.295,-0.194 0.267,-0.19 0.234,-0.19L0.162,-0.19L0.162,-0.011C0.162,-0.009 0.161,-0.007 0.16,-0.005C0.158,-0.003 0.156,-0.002 0.153,-0.001C0.15,0 0.145,0.001 0.14,0.002C0.135,0.003 0.128,0.003 0.12,0.003C0.112,0.003 0.106,0.003 0.1,0.002C0.095,0.001 0.091,0 0.087,-0.001C0.084,-0.002 0.082,-0.003 0.081,-0.005C0.079,-0.007 0.079,-0.009 0.079,-0.011L0.079,-0.483C0.079,-0.494 0.082,-0.503 0.088,-0.508C0.094,-0.513 0.101,-0.516 0.109,-0.516L0.24,-0.516C0.252,-0.516 0.263,-0.515 0.274,-0.514C0.285,-0.513 0.296,-0.512 0.306,-0.509C0.325,-0.505 0.342,-0.499 0.357,-0.491C0.372,-0.483 0.384,-0.472 0.395,-0.459C0.405,-0.447 0.413,-0.432 0.418,-0.416C0.424,-0.399 0.427,-0.381 0.427,-0.362ZM0.339,-0.355C0.339,-0.378 0.334,-0.398 0.323,-0.414C0.313,-0.43 0.297,-0.441 0.277,-0.446C0.27,-0.448 0.263,-0.449 0.255,-0.45C0.247,-0.451 0.24,-0.451 0.233,-0.451L0.162,-0.451L0.162,-0.254L0.239,-0.254C0.258,-0.254 0.274,-0.257 0.285,-0.262C0.297,-0.267 0.307,-0.274 0.315,-0.283C0.323,-0.292 0.329,-0.302 0.333,-0.315C0.337,-0.327 0.339,-0.34 0.339,-0.355Z" style="fill:rgb(100,91,91);fill-rule:nonzero;"/>
                    </g>
                    <g transform="matrix(40,0,0,40,363.185,532.946)">
                        <path d="M0.262,-0.198L0.262,-0.011C0.262,-0.009 0.261,-0.007 0.26,-0.005C0.259,-0.003 0.256,-0.002 0.253,-0.001C0.25,0 0.246,0.001 0.24,0.002C0.235,0.003 0.228,0.003 0.221,0.003C0.213,0.003 0.206,0.003 0.2,0.002C0.195,0.001 0.191,0 0.188,-0.001C0.185,-0.002 0.182,-0.003 0.181,-0.005C0.18,-0.007 0.179,-0.009 0.179,-0.011L0.179,-0.198L0.017,-0.486C0.013,-0.493 0.011,-0.499 0.01,-0.503C0.008,-0.508 0.009,-0.511 0.011,-0.513C0.014,-0.515 0.018,-0.517 0.024,-0.518C0.031,-0.518 0.039,-0.519 0.05,-0.519C0.06,-0.519 0.068,-0.518 0.074,-0.518C0.08,-0.517 0.085,-0.517 0.088,-0.516C0.092,-0.515 0.094,-0.513 0.095,-0.511C0.097,-0.51 0.098,-0.507 0.1,-0.504L0.223,-0.278L0.224,-0.278L0.343,-0.504C0.344,-0.507 0.345,-0.509 0.347,-0.511C0.348,-0.513 0.351,-0.514 0.354,-0.515C0.357,-0.516 0.362,-0.517 0.367,-0.518C0.373,-0.518 0.381,-0.519 0.39,-0.519C0.401,-0.519 0.409,-0.518 0.415,-0.518C0.421,-0.517 0.425,-0.515 0.428,-0.513C0.43,-0.51 0.431,-0.507 0.43,-0.503C0.429,-0.499 0.427,-0.493 0.423,-0.486L0.262,-0.198Z" style="fill:rgb(100,91,91);fill-rule:nonzero;"/>
                    </g>
                    <g transform="matrix(40,0,0,40,379.689,532.946)">
                        <path d="M0.533,-0.265C0.533,-0.222 0.528,-0.184 0.517,-0.151C0.507,-0.117 0.491,-0.088 0.47,-0.065C0.45,-0.041 0.424,-0.023 0.394,-0.01C0.363,0.002 0.328,0.009 0.288,0.009C0.248,0.009 0.214,0.003 0.184,-0.008C0.154,-0.019 0.129,-0.035 0.109,-0.057C0.089,-0.079 0.074,-0.107 0.064,-0.14C0.055,-0.173 0.05,-0.211 0.05,-0.254C0.05,-0.295 0.055,-0.333 0.066,-0.366C0.077,-0.399 0.092,-0.428 0.113,-0.451C0.134,-0.475 0.16,-0.493 0.19,-0.505C0.221,-0.518 0.256,-0.524 0.296,-0.524C0.334,-0.524 0.368,-0.519 0.397,-0.508C0.427,-0.497 0.451,-0.48 0.472,-0.458C0.492,-0.437 0.507,-0.41 0.518,-0.377C0.528,-0.345 0.533,-0.308 0.533,-0.265ZM0.446,-0.259C0.446,-0.288 0.444,-0.314 0.438,-0.338C0.433,-0.362 0.424,-0.383 0.412,-0.4C0.4,-0.418 0.384,-0.432 0.365,-0.441C0.345,-0.451 0.321,-0.456 0.292,-0.456C0.264,-0.456 0.24,-0.451 0.22,-0.44C0.2,-0.43 0.184,-0.416 0.172,-0.398C0.16,-0.38 0.151,-0.359 0.145,-0.335C0.14,-0.311 0.137,-0.286 0.137,-0.259C0.137,-0.23 0.139,-0.203 0.145,-0.178C0.15,-0.154 0.158,-0.133 0.171,-0.115C0.183,-0.097 0.199,-0.084 0.218,-0.074C0.238,-0.064 0.262,-0.06 0.291,-0.06C0.319,-0.06 0.343,-0.065 0.363,-0.076C0.383,-0.086 0.399,-0.101 0.412,-0.119C0.424,-0.137 0.433,-0.159 0.438,-0.183C0.444,-0.207 0.446,-0.233 0.446,-0.259Z" style="fill:rgb(100,91,91);fill-rule:nonzero;"/>
                    </g>
                    <g transform="matrix(40,0,0,40,403.009,532.946)">
                        <path d="M0.491,-0.2C0.491,-0.162 0.486,-0.131 0.476,-0.107C0.466,-0.082 0.452,-0.061 0.435,-0.044C0.417,-0.027 0.395,-0.014 0.369,-0.005C0.343,0.004 0.315,0.009 0.283,0.009C0.252,0.009 0.224,0.005 0.198,-0.004C0.173,-0.012 0.151,-0.024 0.133,-0.041C0.115,-0.057 0.101,-0.078 0.092,-0.102C0.082,-0.126 0.078,-0.159 0.078,-0.2L0.078,-0.505C0.078,-0.507 0.078,-0.509 0.08,-0.51C0.081,-0.512 0.083,-0.514 0.086,-0.515C0.09,-0.516 0.094,-0.517 0.099,-0.518C0.104,-0.518 0.111,-0.519 0.119,-0.519C0.127,-0.519 0.134,-0.518 0.139,-0.518C0.145,-0.517 0.149,-0.516 0.152,-0.515C0.155,-0.514 0.157,-0.512 0.159,-0.51C0.16,-0.509 0.161,-0.507 0.161,-0.505L0.161,-0.206C0.161,-0.174 0.163,-0.15 0.169,-0.134C0.175,-0.118 0.183,-0.104 0.195,-0.093C0.206,-0.082 0.219,-0.073 0.235,-0.068C0.25,-0.062 0.267,-0.06 0.286,-0.06C0.304,-0.06 0.321,-0.062 0.336,-0.068C0.352,-0.073 0.365,-0.082 0.376,-0.093C0.387,-0.104 0.395,-0.117 0.401,-0.134C0.406,-0.15 0.409,-0.172 0.409,-0.201L0.409,-0.505C0.409,-0.507 0.409,-0.509 0.411,-0.51C0.412,-0.512 0.414,-0.514 0.417,-0.515C0.42,-0.516 0.424,-0.517 0.43,-0.518C0.435,-0.518 0.441,-0.519 0.449,-0.519C0.459,-0.519 0.466,-0.518 0.471,-0.518C0.476,-0.517 0.48,-0.516 0.483,-0.515C0.486,-0.514 0.488,-0.512 0.49,-0.51C0.491,-0.509 0.491,-0.507 0.491,-0.505L0.491,-0.2Z" style="fill:rgb(100,91,91);fill-rule:nonzero;"/>
                    </g>
                    <g transform="matrix(40,0,0,40,425.763,532.946)">
                        <path d="M0.451,-0.009C0.451,-0.007 0.451,-0.005 0.449,-0.004C0.448,-0.002 0.446,-0.001 0.442,0C0.439,0.001 0.434,0.002 0.428,0.002C0.422,0.003 0.414,0.003 0.405,0.003C0.396,0.003 0.389,0.003 0.384,0.002C0.379,0.002 0.374,0.001 0.371,-0.001C0.367,-0.002 0.365,-0.004 0.363,-0.006C0.362,-0.009 0.36,-0.012 0.359,-0.015L0.317,-0.133C0.313,-0.147 0.307,-0.159 0.301,-0.17C0.295,-0.181 0.289,-0.191 0.281,-0.198C0.273,-0.206 0.264,-0.212 0.253,-0.216C0.243,-0.221 0.229,-0.223 0.212,-0.223L0.162,-0.223L0.162,-0.011C0.162,-0.009 0.161,-0.007 0.16,-0.005C0.158,-0.003 0.156,-0.002 0.153,-0.001C0.15,0 0.145,0.001 0.14,0.002C0.135,0.003 0.128,0.003 0.12,0.003C0.112,0.003 0.106,0.003 0.1,0.002C0.095,0.001 0.091,0 0.087,-0.001C0.084,-0.002 0.082,-0.003 0.081,-0.005C0.079,-0.007 0.079,-0.009 0.079,-0.011L0.079,-0.485C0.079,-0.496 0.082,-0.504 0.087,-0.509C0.093,-0.513 0.099,-0.516 0.106,-0.516L0.244,-0.516C0.275,-0.516 0.301,-0.513 0.323,-0.506C0.345,-0.5 0.363,-0.491 0.378,-0.48C0.392,-0.469 0.404,-0.455 0.412,-0.438C0.419,-0.421 0.423,-0.402 0.423,-0.381C0.423,-0.364 0.421,-0.348 0.416,-0.334C0.412,-0.32 0.405,-0.308 0.396,-0.297C0.388,-0.285 0.377,-0.276 0.365,-0.268C0.352,-0.259 0.338,-0.253 0.322,-0.248C0.331,-0.244 0.339,-0.24 0.346,-0.234C0.354,-0.229 0.36,-0.222 0.366,-0.214C0.372,-0.207 0.378,-0.197 0.384,-0.187C0.389,-0.177 0.394,-0.165 0.399,-0.152L0.443,-0.038C0.446,-0.03 0.448,-0.023 0.449,-0.019C0.451,-0.015 0.451,-0.012 0.451,-0.009ZM0.336,-0.372C0.336,-0.383 0.334,-0.394 0.331,-0.403C0.327,-0.413 0.322,-0.421 0.314,-0.428C0.306,-0.435 0.296,-0.441 0.284,-0.445C0.272,-0.449 0.255,-0.451 0.234,-0.451L0.162,-0.451L0.162,-0.286L0.231,-0.286C0.251,-0.286 0.268,-0.288 0.28,-0.292C0.293,-0.296 0.303,-0.302 0.312,-0.31C0.32,-0.317 0.326,-0.326 0.33,-0.337C0.334,-0.347 0.336,-0.359 0.336,-0.372Z" style="fill:rgb(100,91,91);fill-rule:nonzero;"/>
                    </g>
                    <g transform="matrix(40,0,0,40,454.435,532.946)">
                        <path d="M0.444,-0.012C0.444,-0.009 0.443,-0.007 0.442,-0.005C0.441,-0.003 0.438,-0.002 0.435,-0.001C0.432,0 0.428,0.001 0.422,0.002C0.416,0.003 0.41,0.003 0.401,0.003C0.392,0.003 0.385,0.003 0.379,0.002C0.373,0.002 0.368,0.001 0.365,0C0.361,-0.001 0.358,-0.003 0.356,-0.005C0.354,-0.007 0.352,-0.009 0.35,-0.012L0.162,-0.27L0.162,-0.012C0.162,-0.009 0.161,-0.007 0.16,-0.005C0.158,-0.003 0.156,-0.002 0.153,-0.001C0.15,0 0.145,0.001 0.14,0.002C0.135,0.003 0.128,0.003 0.12,0.003C0.112,0.003 0.106,0.003 0.1,0.002C0.095,0.001 0.091,0 0.087,-0.001C0.084,-0.002 0.082,-0.003 0.081,-0.005C0.079,-0.007 0.079,-0.009 0.079,-0.011L0.079,-0.505C0.079,-0.507 0.079,-0.509 0.081,-0.51C0.082,-0.512 0.084,-0.514 0.087,-0.515C0.091,-0.516 0.095,-0.517 0.1,-0.518C0.106,-0.518 0.112,-0.519 0.12,-0.519C0.128,-0.519 0.135,-0.518 0.14,-0.518C0.145,-0.517 0.15,-0.516 0.153,-0.515C0.156,-0.514 0.158,-0.512 0.16,-0.51C0.161,-0.509 0.162,-0.507 0.162,-0.505L0.162,-0.281L0.341,-0.504C0.343,-0.507 0.345,-0.509 0.347,-0.511C0.35,-0.513 0.353,-0.514 0.356,-0.515C0.36,-0.517 0.364,-0.517 0.37,-0.518C0.375,-0.518 0.381,-0.519 0.389,-0.519C0.398,-0.519 0.405,-0.518 0.41,-0.518C0.416,-0.517 0.42,-0.516 0.423,-0.515C0.426,-0.514 0.428,-0.512 0.43,-0.51C0.431,-0.509 0.432,-0.507 0.432,-0.504C0.432,-0.502 0.432,-0.501 0.431,-0.499C0.431,-0.497 0.43,-0.495 0.429,-0.493C0.428,-0.49 0.427,-0.488 0.425,-0.485C0.423,-0.482 0.421,-0.479 0.418,-0.476L0.25,-0.282L0.433,-0.036C0.435,-0.034 0.436,-0.031 0.438,-0.029C0.439,-0.027 0.44,-0.024 0.441,-0.022C0.442,-0.02 0.443,-0.018 0.443,-0.017C0.444,-0.015 0.444,-0.013 0.444,-0.012Z" style="fill:rgb(100,91,91);fill-rule:nonzero;"/>
                    </g>
                    <g transform="matrix(40,0,0,40,473.361,532.946)">
                        <path d="M0.492,-0.032C0.492,-0.021 0.489,-0.013 0.484,-0.008C0.478,-0.003 0.471,0 0.463,0L0.407,0C0.397,0 0.389,-0.003 0.382,-0.008C0.376,-0.013 0.37,-0.021 0.365,-0.031L0.229,-0.287C0.215,-0.311 0.203,-0.336 0.19,-0.361C0.177,-0.386 0.164,-0.411 0.151,-0.436L0.151,-0.436C0.151,-0.424 0.151,-0.413 0.151,-0.401L0.153,-0.328C0.153,-0.316 0.153,-0.305 0.153,-0.293L0.153,-0.011C0.153,-0.009 0.152,-0.007 0.151,-0.005C0.15,-0.003 0.148,-0.002 0.145,-0.001C0.142,0 0.139,0.001 0.134,0.002C0.13,0.003 0.124,0.003 0.117,0.003C0.109,0.003 0.103,0.003 0.098,0.002C0.093,0.001 0.089,0 0.086,-0.001C0.083,-0.002 0.081,-0.003 0.08,-0.005C0.079,-0.007 0.079,-0.009 0.079,-0.011L0.079,-0.483C0.079,-0.494 0.082,-0.503 0.088,-0.508C0.094,-0.513 0.101,-0.516 0.109,-0.516L0.169,-0.516C0.175,-0.516 0.18,-0.515 0.184,-0.514C0.189,-0.512 0.193,-0.51 0.196,-0.508C0.199,-0.506 0.202,-0.502 0.205,-0.499C0.208,-0.495 0.21,-0.49 0.213,-0.485L0.337,-0.252C0.351,-0.226 0.365,-0.2 0.379,-0.174C0.392,-0.147 0.406,-0.121 0.419,-0.094L0.42,-0.094C0.42,-0.107 0.42,-0.121 0.42,-0.135L0.419,-0.218C0.419,-0.232 0.418,-0.245 0.418,-0.258L0.418,-0.503C0.418,-0.506 0.419,-0.508 0.42,-0.51C0.421,-0.512 0.423,-0.513 0.426,-0.515C0.429,-0.516 0.432,-0.517 0.437,-0.518C0.442,-0.518 0.448,-0.519 0.455,-0.519C0.463,-0.519 0.469,-0.518 0.474,-0.518C0.479,-0.517 0.482,-0.516 0.485,-0.515C0.488,-0.513 0.49,-0.512 0.491,-0.51C0.492,-0.508 0.492,-0.506 0.492,-0.503L0.492,-0.032Z" style="fill:rgb(100,91,91);fill-rule:nonzero;"/>
                    </g>
                    <g transform="matrix(40,0,0,40,496.193,532.946)">
                        <path d="M0.533,-0.265C0.533,-0.222 0.528,-0.184 0.517,-0.151C0.507,-0.117 0.491,-0.088 0.47,-0.065C0.45,-0.041 0.424,-0.023 0.394,-0.01C0.363,0.002 0.328,0.009 0.288,0.009C0.248,0.009 0.214,0.003 0.184,-0.008C0.154,-0.019 0.129,-0.035 0.109,-0.057C0.089,-0.079 0.074,-0.107 0.064,-0.14C0.055,-0.173 0.05,-0.211 0.05,-0.254C0.05,-0.295 0.055,-0.333 0.066,-0.366C0.077,-0.399 0.092,-0.428 0.113,-0.451C0.134,-0.475 0.16,-0.493 0.19,-0.505C0.221,-0.518 0.256,-0.524 0.296,-0.524C0.334,-0.524 0.368,-0.519 0.397,-0.508C0.427,-0.497 0.451,-0.48 0.472,-0.458C0.492,-0.437 0.507,-0.41 0.518,-0.377C0.528,-0.345 0.533,-0.308 0.533,-0.265ZM0.446,-0.259C0.446,-0.288 0.444,-0.314 0.438,-0.338C0.433,-0.362 0.424,-0.383 0.412,-0.4C0.4,-0.418 0.384,-0.432 0.365,-0.441C0.345,-0.451 0.321,-0.456 0.292,-0.456C0.264,-0.456 0.24,-0.451 0.22,-0.44C0.2,-0.43 0.184,-0.416 0.172,-0.398C0.16,-0.38 0.151,-0.359 0.145,-0.335C0.14,-0.311 0.137,-0.286 0.137,-0.259C0.137,-0.23 0.139,-0.203 0.145,-0.178C0.15,-0.154 0.158,-0.133 0.171,-0.115C0.183,-0.097 0.199,-0.084 0.218,-0.074C0.238,-0.064 0.262,-0.06 0.291,-0.06C0.319,-0.06 0.343,-0.065 0.363,-0.076C0.383,-0.086 0.399,-0.101 0.412,-0.119C0.424,-0.137 0.433,-0.159 0.438,-0.183C0.444,-0.207 0.446,-0.233 0.446,-0.259Z" style="fill:rgb(100,91,91);fill-rule:nonzero;"/>
                    </g>
                    <g transform="matrix(40,0,0,40,519.083,532.946)">
                        <path d="M0.613,-0.015C0.611,-0.011 0.61,-0.008 0.607,-0.006C0.605,-0.004 0.602,-0.002 0.598,0C0.594,0.001 0.588,0.002 0.582,0.002C0.575,0.003 0.567,0.003 0.557,0.003C0.546,0.003 0.537,0.003 0.53,0.002C0.523,0.002 0.518,0.001 0.514,0C0.51,-0.002 0.507,-0.004 0.505,-0.006C0.504,-0.009 0.502,-0.012 0.501,-0.016L0.392,-0.388L0.39,-0.388L0.287,-0.016C0.286,-0.012 0.284,-0.009 0.282,-0.006C0.28,-0.004 0.277,-0.002 0.273,0C0.269,0.001 0.264,0.002 0.258,0.002C0.251,0.003 0.243,0.003 0.233,0.003C0.222,0.003 0.214,0.003 0.207,0.002C0.2,0.002 0.194,0.001 0.19,0C0.185,-0.002 0.182,-0.004 0.18,-0.006C0.178,-0.008 0.177,-0.011 0.176,-0.015L0.031,-0.486C0.029,-0.493 0.028,-0.499 0.027,-0.504C0.027,-0.508 0.029,-0.511 0.031,-0.513C0.034,-0.516 0.039,-0.517 0.045,-0.518C0.051,-0.518 0.06,-0.519 0.07,-0.519C0.08,-0.519 0.087,-0.518 0.093,-0.518C0.098,-0.517 0.102,-0.517 0.105,-0.515C0.109,-0.514 0.111,-0.513 0.112,-0.511C0.113,-0.509 0.114,-0.506 0.115,-0.503L0.234,-0.086L0.235,-0.086L0.35,-0.501C0.351,-0.505 0.352,-0.508 0.354,-0.51C0.355,-0.512 0.357,-0.514 0.36,-0.515C0.363,-0.516 0.367,-0.517 0.373,-0.518C0.378,-0.518 0.385,-0.519 0.395,-0.519C0.404,-0.519 0.411,-0.518 0.417,-0.518C0.422,-0.517 0.427,-0.516 0.429,-0.515C0.432,-0.514 0.434,-0.512 0.436,-0.51C0.437,-0.508 0.438,-0.505 0.439,-0.502L0.56,-0.086L0.56,-0.086L0.671,-0.501C0.672,-0.505 0.673,-0.508 0.675,-0.51C0.676,-0.512 0.678,-0.514 0.681,-0.515C0.684,-0.516 0.689,-0.517 0.694,-0.518C0.7,-0.518 0.707,-0.519 0.717,-0.519C0.726,-0.519 0.733,-0.518 0.739,-0.518C0.744,-0.517 0.748,-0.515 0.75,-0.513C0.753,-0.511 0.753,-0.508 0.753,-0.503C0.753,-0.499 0.752,-0.493 0.75,-0.485L0.613,-0.015Z" style="fill:rgb(100,91,91);fill-rule:nonzero;"/>
                    </g>
                    <g transform="matrix(40,0,0,40,550.294,532.946)">
                        <path d="M0.356,-0.034C0.356,-0.022 0.355,-0.013 0.352,-0.008C0.349,-0.003 0.346,0 0.341,0L0.106,0C0.099,0 0.093,-0.002 0.087,-0.007C0.082,-0.012 0.079,-0.02 0.079,-0.03L0.079,-0.505C0.079,-0.507 0.079,-0.509 0.081,-0.51C0.082,-0.512 0.084,-0.514 0.087,-0.515C0.091,-0.516 0.095,-0.517 0.1,-0.518C0.106,-0.518 0.112,-0.519 0.12,-0.519C0.128,-0.519 0.135,-0.518 0.14,-0.518C0.145,-0.517 0.15,-0.516 0.153,-0.515C0.156,-0.514 0.158,-0.512 0.16,-0.51C0.161,-0.509 0.162,-0.507 0.162,-0.505L0.162,-0.068L0.341,-0.068C0.343,-0.068 0.345,-0.067 0.347,-0.066C0.349,-0.065 0.351,-0.063 0.352,-0.06C0.353,-0.058 0.354,-0.054 0.355,-0.05C0.356,-0.045 0.356,-0.04 0.356,-0.034Z" style="fill:rgb(100,91,91);fill-rule:nonzero;"/>
                    </g>
                    <g transform="matrix(40,0,0,40,564.669,532.946)">
                        <path d="M0.382,-0.033C0.382,-0.027 0.382,-0.022 0.381,-0.018C0.38,-0.014 0.379,-0.01 0.378,-0.008C0.377,-0.005 0.376,-0.003 0.374,-0.002C0.372,-0.001 0.37,0 0.368,0L0.106,0C0.099,0 0.093,-0.002 0.087,-0.007C0.082,-0.012 0.079,-0.02 0.079,-0.03L0.079,-0.485C0.079,-0.496 0.082,-0.504 0.087,-0.509C0.093,-0.513 0.099,-0.516 0.106,-0.516L0.365,-0.516C0.367,-0.516 0.369,-0.515 0.371,-0.514C0.373,-0.513 0.374,-0.511 0.375,-0.508C0.376,-0.506 0.377,-0.502 0.378,-0.498C0.379,-0.493 0.379,-0.488 0.379,-0.482C0.379,-0.477 0.379,-0.472 0.378,-0.468C0.377,-0.463 0.376,-0.46 0.375,-0.458C0.374,-0.455 0.373,-0.453 0.371,-0.452C0.369,-0.451 0.367,-0.45 0.365,-0.45L0.162,-0.45L0.162,-0.3L0.337,-0.3C0.339,-0.3 0.341,-0.299 0.343,-0.298C0.345,-0.297 0.346,-0.295 0.348,-0.292C0.349,-0.29 0.35,-0.286 0.35,-0.282C0.351,-0.278 0.351,-0.273 0.351,-0.267C0.351,-0.261 0.351,-0.256 0.35,-0.252C0.35,-0.248 0.349,-0.245 0.348,-0.242C0.346,-0.24 0.345,-0.238 0.343,-0.237C0.341,-0.235 0.339,-0.235 0.337,-0.235L0.162,-0.235L0.162,-0.065L0.368,-0.065C0.37,-0.065 0.372,-0.065 0.374,-0.064C0.376,-0.063 0.377,-0.061 0.378,-0.058C0.379,-0.056 0.38,-0.052 0.381,-0.048C0.382,-0.044 0.382,-0.039 0.382,-0.033Z" style="fill:rgb(100,91,91);fill-rule:nonzero;"/>
                    </g>
                    <g transform="matrix(40,0,0,40,582.169,532.946)">
                        <path d="M0.498,-0.265C0.498,-0.22 0.492,-0.18 0.48,-0.147C0.468,-0.114 0.451,-0.086 0.429,-0.064C0.406,-0.043 0.379,-0.026 0.346,-0.016C0.314,-0.005 0.274,0 0.229,0L0.106,0C0.099,0 0.093,-0.002 0.087,-0.007C0.082,-0.012 0.079,-0.02 0.079,-0.03L0.079,-0.485C0.079,-0.496 0.082,-0.504 0.087,-0.509C0.093,-0.513 0.099,-0.516 0.106,-0.516L0.239,-0.516C0.284,-0.516 0.322,-0.51 0.354,-0.499C0.385,-0.488 0.412,-0.471 0.433,-0.45C0.454,-0.428 0.47,-0.402 0.481,-0.371C0.493,-0.34 0.498,-0.305 0.498,-0.265ZM0.412,-0.263C0.412,-0.289 0.409,-0.314 0.402,-0.337C0.396,-0.36 0.386,-0.379 0.372,-0.396C0.358,-0.413 0.34,-0.426 0.318,-0.436C0.296,-0.445 0.268,-0.45 0.232,-0.45L0.162,-0.45L0.162,-0.066L0.232,-0.066C0.265,-0.066 0.293,-0.07 0.314,-0.078C0.336,-0.086 0.354,-0.098 0.369,-0.115C0.383,-0.131 0.394,-0.151 0.401,-0.176C0.409,-0.201 0.412,-0.229 0.412,-0.263Z" style="fill:rgb(100,91,91);fill-rule:nonzero;"/>
                    </g>
                    <g transform="matrix(40,0,0,40,604.142,532.946)">
                        <path d="M0.491,-0.443C0.491,-0.437 0.491,-0.432 0.49,-0.427C0.489,-0.423 0.488,-0.42 0.487,-0.417C0.486,-0.414 0.485,-0.412 0.483,-0.411C0.482,-0.41 0.48,-0.409 0.479,-0.409C0.474,-0.409 0.468,-0.412 0.46,-0.416C0.452,-0.421 0.442,-0.426 0.429,-0.432C0.417,-0.438 0.402,-0.444 0.384,-0.448C0.366,-0.453 0.345,-0.456 0.32,-0.456C0.292,-0.456 0.267,-0.451 0.245,-0.441C0.222,-0.431 0.203,-0.418 0.187,-0.4C0.171,-0.383 0.159,-0.362 0.151,-0.338C0.142,-0.314 0.138,-0.287 0.138,-0.258C0.138,-0.226 0.143,-0.198 0.152,-0.174C0.161,-0.149 0.173,-0.129 0.189,-0.112C0.205,-0.095 0.225,-0.083 0.247,-0.074C0.269,-0.065 0.293,-0.061 0.32,-0.061C0.335,-0.061 0.35,-0.063 0.366,-0.066C0.382,-0.07 0.396,-0.075 0.409,-0.082L0.409,-0.222L0.293,-0.222C0.291,-0.222 0.289,-0.222 0.287,-0.223C0.286,-0.225 0.284,-0.226 0.283,-0.229C0.282,-0.232 0.281,-0.235 0.28,-0.239C0.28,-0.243 0.279,-0.248 0.279,-0.254C0.279,-0.26 0.28,-0.265 0.28,-0.269C0.281,-0.273 0.282,-0.276 0.283,-0.279C0.284,-0.281 0.286,-0.283 0.287,-0.284C0.289,-0.285 0.291,-0.286 0.293,-0.286L0.465,-0.286C0.472,-0.286 0.478,-0.283 0.483,-0.279C0.489,-0.274 0.491,-0.266 0.491,-0.256L0.491,-0.055C0.491,-0.048 0.49,-0.043 0.487,-0.038C0.485,-0.033 0.481,-0.03 0.475,-0.027C0.464,-0.021 0.452,-0.016 0.439,-0.012C0.426,-0.008 0.413,-0.004 0.399,-0.001C0.386,0.002 0.372,0.004 0.358,0.006C0.344,0.008 0.33,0.009 0.317,0.009C0.276,0.009 0.239,0.003 0.206,-0.01C0.173,-0.022 0.145,-0.04 0.123,-0.063C0.1,-0.085 0.082,-0.113 0.071,-0.145C0.059,-0.177 0.053,-0.213 0.053,-0.253C0.053,-0.294 0.059,-0.332 0.072,-0.365C0.085,-0.399 0.103,-0.427 0.126,-0.451C0.15,-0.474 0.178,-0.492 0.211,-0.505C0.243,-0.518 0.28,-0.524 0.32,-0.524C0.342,-0.524 0.362,-0.523 0.38,-0.519C0.399,-0.516 0.415,-0.512 0.429,-0.507C0.443,-0.502 0.454,-0.497 0.463,-0.491C0.472,-0.486 0.478,-0.482 0.481,-0.479C0.485,-0.476 0.487,-0.472 0.489,-0.467C0.49,-0.462 0.491,-0.454 0.491,-0.443Z" style="fill:rgb(100,91,91);fill-rule:nonzero;"/>
                    </g>
                    <g transform="matrix(40,0,0,40,626.681,532.946)">
                        <path d="M0.382,-0.033C0.382,-0.027 0.382,-0.022 0.381,-0.018C0.38,-0.014 0.379,-0.01 0.378,-0.008C0.377,-0.005 0.376,-0.003 0.374,-0.002C0.372,-0.001 0.37,0 0.368,0L0.106,0C0.099,0 0.093,-0.002 0.087,-0.007C0.082,-0.012 0.079,-0.02 0.079,-0.03L0.079,-0.485C0.079,-0.496 0.082,-0.504 0.087,-0.509C0.093,-0.513 0.099,-0.516 0.106,-0.516L0.365,-0.516C0.367,-0.516 0.369,-0.515 0.371,-0.514C0.373,-0.513 0.374,-0.511 0.375,-0.508C0.376,-0.506 0.377,-0.502 0.378,-0.498C0.379,-0.493 0.379,-0.488 0.379,-0.482C0.379,-0.477 0.379,-0.472 0.378,-0.468C0.377,-0.463 0.376,-0.46 0.375,-0.458C0.374,-0.455 0.373,-0.453 0.371,-0.452C0.369,-0.451 0.367,-0.45 0.365,-0.45L0.162,-0.45L0.162,-0.3L0.337,-0.3C0.339,-0.3 0.341,-0.299 0.343,-0.298C0.345,-0.297 0.346,-0.295 0.348,-0.292C0.349,-0.29 0.35,-0.286 0.35,-0.282C0.351,-0.278 0.351,-0.273 0.351,-0.267C0.351,-0.261 0.351,-0.256 0.35,-0.252C0.35,-0.248 0.349,-0.245 0.348,-0.242C0.346,-0.24 0.345,-0.238 0.343,-0.237C0.341,-0.235 0.339,-0.235 0.337,-0.235L0.162,-0.235L0.162,-0.065L0.368,-0.065C0.37,-0.065 0.372,-0.065 0.374,-0.064C0.376,-0.063 0.377,-0.061 0.378,-0.058C0.379,-0.056 0.38,-0.052 0.381,-0.048C0.382,-0.044 0.382,-0.039 0.382,-0.033Z" style="fill:rgb(100,91,91);fill-rule:nonzero;"/>
                    </g>
                </g>
            </g>
        </g>
    </g>
</svg>
