<?xml version="1.0" encoding="UTF-8" standalone="no"?>
<!DOCTYPE svg PUBLIC "-//W3C//DTD SVG 1.1//EN" "http://www.w3.org/Graphics/SVG/1.1/DTD/svg11.dtd">
<svg width="100%" height="100%" viewBox="0 0 1099 207" version="1.1" xmlns="http://www.w3.org/2000/svg" xmlns:xlink="http://www.w3.org/1999/xlink" xml:space="preserve" xmlns:serif="http://www.serif.com/" style="fill-rule:evenodd;clip-rule:evenodd;stroke-linecap:round;stroke-linejoin:round;stroke-miterlimit:1.5;">
    <g transform="matrix(1,0,0,1,-89.5039,-408.5)">
        <g transform="matrix(1.55,0,0,1.55,-290,-108)">
            <rect x="200" y="300" width="800" height="200" style="fill:white;"/>
        </g>
        <g>
            <g transform="matrix(1.58228,0,0,1.58228,-749.895,-99.9083)">
                <path d="M710.012,404.351C710.012,405.257 709.949,405.968 709.824,406.484C709.699,406.999 709.434,407.46 709.028,407.866C708.621,408.273 708.012,408.734 707.199,409.249C706.387,409.765 705.41,410.241 704.27,410.679C703.129,411.116 701.832,411.484 700.379,411.78C698.926,412.077 697.34,412.226 695.621,412.226C692.246,412.226 689.168,411.671 686.387,410.562C683.606,409.452 681.223,407.827 679.239,405.687C677.254,403.546 675.715,400.905 674.621,397.765C673.528,394.624 672.981,391.023 672.981,386.96C672.981,382.929 673.535,379.32 674.645,376.132C675.754,372.945 677.309,370.241 679.309,368.023C681.309,365.804 683.707,364.116 686.504,362.96C689.301,361.804 692.387,361.226 695.762,361.226C697.231,361.226 698.645,361.351 700.004,361.601C701.364,361.851 702.621,362.195 703.778,362.632C704.934,363.07 705.973,363.546 706.895,364.062C707.817,364.577 708.481,365.038 708.887,365.445C709.293,365.851 709.567,366.327 709.707,366.874C709.848,367.421 709.918,368.21 709.918,369.241C709.918,369.804 709.887,370.288 709.824,370.695C709.762,371.101 709.676,371.437 709.567,371.702C709.457,371.968 709.324,372.163 709.168,372.288C709.012,372.413 708.824,372.476 708.606,372.476C708.262,372.476 707.793,372.234 707.199,371.749C706.606,371.265 705.817,370.741 704.832,370.179C703.848,369.616 702.629,369.101 701.176,368.632C699.723,368.163 697.996,367.929 695.996,367.929C693.809,367.929 691.817,368.359 690.02,369.218C688.223,370.077 686.692,371.312 685.426,372.921C684.16,374.53 683.184,376.507 682.496,378.851C681.809,381.195 681.465,383.82 681.465,386.726C681.465,389.788 681.832,392.491 682.567,394.835C683.301,397.179 684.34,399.132 685.684,400.695C687.028,402.257 688.629,403.437 690.489,404.234C692.348,405.03 694.418,405.429 696.699,405.429C698.606,405.429 700.239,405.195 701.598,404.726C702.957,404.257 704.114,403.749 705.067,403.202C706.02,402.655 706.809,402.148 707.434,401.679C708.059,401.21 708.574,400.976 708.981,400.976C709.168,400.976 709.324,401.023 709.449,401.116C709.574,401.21 709.676,401.39 709.754,401.655C709.832,401.921 709.895,402.273 709.942,402.71C709.989,403.148 710.012,403.695 710.012,404.351Z" style="fill:rgb(38,164,123);"/>
                <path d="M763.543,386.07C763.543,390.132 763.035,393.78 762.02,397.015C761.004,400.249 759.504,402.999 757.52,405.265C755.535,407.53 753.074,409.273 750.137,410.491C747.199,411.71 743.824,412.32 740.012,412.32C736.199,412.32 732.864,411.788 730.004,410.726C727.145,409.663 724.754,408.077 722.832,405.968C720.91,403.859 719.481,401.226 718.543,398.07C717.606,394.913 717.137,391.241 717.137,387.054C717.137,383.116 717.653,379.546 718.684,376.343C719.715,373.14 721.231,370.413 723.231,368.163C725.231,365.913 727.699,364.179 730.637,362.96C733.574,361.741 736.949,361.132 740.762,361.132C744.418,361.132 747.66,361.663 750.489,362.726C753.317,363.788 755.699,365.366 757.637,367.46C759.574,369.554 761.043,372.148 762.043,375.241C763.043,378.335 763.543,381.945 763.543,386.07ZM755.199,386.585C755.199,383.835 754.942,381.312 754.426,379.015C753.91,376.718 753.074,374.726 751.918,373.038C750.762,371.351 749.246,370.038 747.371,369.101C745.496,368.163 743.184,367.695 740.434,367.695C737.684,367.695 735.364,368.195 733.473,369.195C731.582,370.195 730.051,371.562 728.879,373.296C727.707,375.03 726.848,377.046 726.301,379.343C725.754,381.64 725.481,384.054 725.481,386.585C725.481,389.429 725.731,392.023 726.231,394.366C726.731,396.71 727.567,398.734 728.739,400.437C729.91,402.14 731.434,403.452 733.309,404.374C735.184,405.296 737.496,405.757 740.246,405.757C742.996,405.757 745.324,405.241 747.231,404.21C749.137,403.179 750.684,401.788 751.871,400.038C753.059,398.288 753.91,396.249 754.426,393.921C754.942,391.593 755.199,389.148 755.199,386.585Z" style="fill:rgb(38,164,123);"/>
                <path d="M815.574,408.382C815.574,409.445 815.309,410.226 814.778,410.726C814.246,411.226 813.574,411.476 812.762,411.476L807.371,411.476C806.403,411.476 805.621,411.234 805.028,410.749C804.434,410.265 803.887,409.507 803.387,408.476L790.262,383.96C789.012,381.616 787.77,379.241 786.535,376.835C785.301,374.429 784.074,372.038 782.856,369.663L782.809,369.663C782.809,370.726 782.817,371.835 782.832,372.991C782.848,374.148 782.871,375.312 782.903,376.484C782.934,377.655 782.957,378.82 782.973,379.976C782.989,381.132 782.996,382.241 782.996,383.304L782.996,410.398C782.996,410.616 782.942,410.812 782.832,410.984C782.723,411.155 782.535,411.296 782.27,411.405C782.004,411.515 781.653,411.601 781.215,411.663C780.778,411.726 780.215,411.757 779.528,411.757C778.778,411.757 778.176,411.726 777.723,411.663C777.27,411.601 776.903,411.515 776.621,411.405C776.34,411.296 776.145,411.155 776.035,410.984C775.926,410.812 775.871,410.616 775.871,410.398L775.871,365.07C775.871,364.007 776.168,363.226 776.762,362.726C777.356,362.226 778.028,361.976 778.778,361.976L784.59,361.976C785.121,361.976 785.598,362.038 786.02,362.163C786.442,362.288 786.809,362.468 787.121,362.702C787.434,362.937 787.723,363.241 787.989,363.616C788.254,363.991 788.512,364.429 788.762,364.929L800.668,387.241C802.012,389.773 803.348,392.296 804.676,394.812C806.004,397.327 807.309,399.866 808.59,402.429L808.684,402.429C808.653,401.179 808.629,399.89 808.614,398.562C808.598,397.234 808.582,395.905 808.567,394.577C808.551,393.249 808.535,391.913 808.52,390.57C808.504,389.226 808.496,387.929 808.496,386.679L808.496,363.195C808.496,362.945 808.543,362.726 808.637,362.538C808.731,362.351 808.918,362.195 809.199,362.07C809.481,361.945 809.84,361.851 810.278,361.788C810.715,361.726 811.293,361.695 812.012,361.695C812.762,361.695 813.364,361.726 813.817,361.788C814.27,361.851 814.629,361.945 814.895,362.07C815.16,362.195 815.34,362.351 815.434,362.538C815.528,362.726 815.574,362.945 815.574,363.195L815.574,408.382Z" style="fill:rgb(38,164,123);"/>
                <path d="M862.028,365.21C862.028,366.366 861.91,367.202 861.676,367.718C861.442,368.234 861.106,368.491 860.668,368.491L847.215,368.491L847.215,410.398C847.215,410.616 847.145,410.812 847.004,410.984C846.864,411.155 846.653,411.296 846.371,411.405C846.09,411.515 845.692,411.601 845.176,411.663C844.66,411.726 844.012,411.757 843.231,411.757C842.418,411.757 841.77,411.726 841.285,411.663C840.801,411.601 840.403,411.515 840.09,411.405C839.778,411.296 839.559,411.155 839.434,410.984C839.309,410.812 839.246,410.616 839.246,410.398L839.246,368.491L825.793,368.491C825.574,368.491 825.379,368.429 825.207,368.304C825.035,368.179 824.887,367.984 824.762,367.718C824.637,367.452 824.551,367.109 824.504,366.687C824.457,366.265 824.434,365.773 824.434,365.21C824.434,364.648 824.457,364.155 824.504,363.734C824.551,363.312 824.637,362.968 824.762,362.702C824.887,362.437 825.035,362.249 825.207,362.14C825.379,362.03 825.574,361.976 825.793,361.976L860.668,361.976C860.887,361.976 861.082,362.03 861.254,362.14C861.426,362.249 861.567,362.437 861.676,362.702C861.785,362.968 861.871,363.312 861.934,363.734C861.996,364.155 862.028,364.648 862.028,365.21Z" style="fill:rgb(38,164,123);"/>
                <path d="M899.949,408.288C899.949,408.851 899.918,409.335 899.856,409.741C899.793,410.148 899.707,410.484 899.598,410.749C899.489,411.015 899.348,411.202 899.176,411.312C899.004,411.421 898.824,411.476 898.637,411.476L873.465,411.476C872.84,411.476 872.246,411.249 871.684,410.796C871.121,410.343 870.84,409.601 870.84,408.57L870.84,364.882C870.84,363.851 871.121,363.109 871.684,362.655C872.246,362.202 872.84,361.976 873.465,361.976L898.309,361.976C898.528,361.976 898.723,362.03 898.895,362.14C899.067,362.249 899.207,362.429 899.317,362.679C899.426,362.929 899.512,363.265 899.574,363.687C899.637,364.109 899.668,364.601 899.668,365.163C899.668,365.726 899.637,366.202 899.574,366.593C899.512,366.984 899.426,367.296 899.317,367.53C899.207,367.765 899.067,367.945 898.895,368.07C898.723,368.195 898.528,368.257 898.309,368.257L878.809,368.257L878.809,382.695L895.637,382.695C895.856,382.695 896.051,382.749 896.223,382.859C896.395,382.968 896.543,383.148 896.668,383.398C896.793,383.648 896.879,383.976 896.926,384.382C896.973,384.788 896.996,385.288 896.996,385.882C896.996,386.413 896.973,386.874 896.926,387.265C896.879,387.655 896.793,387.976 896.668,388.226C896.543,388.476 896.395,388.655 896.223,388.765C896.051,388.874 895.856,388.929 895.637,388.929L878.809,388.929L878.809,405.195L898.637,405.195C898.824,405.195 899.004,405.249 899.176,405.359C899.348,405.468 899.489,405.648 899.598,405.898C899.707,406.148 899.793,406.468 899.856,406.859C899.918,407.249 899.949,407.726 899.949,408.288Z" style="fill:rgb(38,164,123);"/>
                <path d="M946.801,408.57C947.27,409.382 947.528,409.976 947.574,410.351C947.621,410.726 947.504,411.015 947.223,411.218C946.942,411.421 946.481,411.562 945.84,411.64C945.199,411.718 944.395,411.757 943.426,411.757C942.457,411.757 941.676,411.734 941.082,411.687C940.489,411.64 940.02,411.554 939.676,411.429C939.332,411.304 939.082,411.148 938.926,410.96C938.77,410.773 938.614,410.554 938.457,410.304L927.723,392.445L927.207,391.366L926.692,392.445L915.957,410.304C915.832,410.554 915.684,410.773 915.512,410.96C915.34,411.148 915.098,411.304 914.785,411.429C914.473,411.554 914.043,411.64 913.496,411.687C912.949,411.734 912.27,411.757 911.457,411.757C910.489,411.757 909.692,411.718 909.067,411.64C908.442,411.562 907.989,411.421 907.707,411.218C907.426,411.015 907.309,410.726 907.356,410.351C907.403,409.976 907.645,409.413 908.082,408.663L922.168,386.304L908.809,364.788C908.434,364.101 908.207,363.554 908.129,363.148C908.051,362.741 908.153,362.429 908.434,362.21C908.715,361.991 909.168,361.851 909.793,361.788C910.418,361.726 911.278,361.695 912.371,361.695C913.278,361.695 913.996,361.718 914.528,361.765C915.059,361.812 915.489,361.89 915.817,361.999C916.145,362.109 916.387,362.257 916.543,362.445C916.699,362.632 916.856,362.851 917.012,363.101L927.162,379.601L927.864,380.82L928.428,379.601L938.387,363.195C938.512,362.913 938.653,362.679 938.809,362.491C938.965,362.304 939.192,362.148 939.489,362.023C939.785,361.898 940.192,361.812 940.707,361.765C941.223,361.718 941.934,361.695 942.84,361.695C943.871,361.695 944.684,361.741 945.278,361.835C945.871,361.929 946.285,362.085 946.52,362.304C946.754,362.523 946.824,362.835 946.731,363.241C946.637,363.648 946.418,364.163 946.074,364.788L932.715,386.116L946.801,408.57Z" style="fill:rgb(38,164,123);"/>
                <path d="M989.199,365.21C989.199,366.366 989.082,367.202 988.848,367.718C988.614,368.234 988.278,368.491 987.84,368.491L974.387,368.491L974.387,410.398C974.387,410.616 974.317,410.812 974.176,410.984C974.035,411.155 973.824,411.296 973.543,411.405C973.262,411.515 972.864,411.601 972.348,411.663C971.832,411.726 971.184,411.757 970.403,411.757C969.59,411.757 968.942,411.726 968.457,411.663C967.973,411.601 967.574,411.515 967.262,411.405C966.949,411.296 966.731,411.155 966.606,410.984C966.481,410.812 966.418,410.616 966.418,410.398L966.418,368.491L952.965,368.491C952.746,368.491 952.551,368.429 952.379,368.304C952.207,368.179 952.059,367.984 951.934,367.718C951.809,367.452 951.723,367.109 951.676,366.687C951.629,366.265 951.606,365.773 951.606,365.21C951.606,364.648 951.629,364.155 951.676,363.734C951.723,363.312 951.809,362.968 951.934,362.702C952.059,362.437 952.207,362.249 952.379,362.14C952.551,362.03 952.746,361.976 952.965,361.976L987.84,361.976C988.059,361.976 988.254,362.03 988.426,362.14C988.598,362.249 988.739,362.437 988.848,362.702C988.957,362.968 989.043,363.312 989.106,363.734C989.168,364.155 989.199,364.648 989.199,365.21Z" style="fill:rgb(38,164,123);"/>
                <path d="M1037.62,392.257C1037.62,395.882 1037.14,398.874 1036.19,401.234C1035.24,403.593 1033.9,405.593 1032.18,407.234C1030.46,408.874 1028.37,410.132 1025.9,411.007C1023.43,411.882 1020.67,412.32 1017.61,412.32C1014.64,412.32 1011.93,411.921 1009.5,411.124C1007.06,410.327 1004.97,409.14 1003.24,407.562C1001.5,405.984 1000.18,404.03 999.278,401.702C998.371,399.374 997.918,396.226 997.918,392.257L997.918,363.007C997.918,362.82 997.981,362.64 998.106,362.468C998.231,362.296 998.449,362.155 998.762,362.046C999.074,361.937 999.481,361.851 999.981,361.788C1000.48,361.726 1001.11,361.695 1001.86,361.695C1002.67,361.695 1003.33,361.726 1003.85,361.788C1004.36,361.851 1004.77,361.937 1005.07,362.046C1005.36,362.155 1005.57,362.296 1005.7,362.468C1005.82,362.64 1005.89,362.82 1005.89,363.007L1005.89,391.695C1005.89,394.726 1006.16,397.03 1006.71,398.609C1007.25,400.187 1008.07,401.507 1009.14,402.57C1010.22,403.632 1011.5,404.429 1012.99,404.96C1014.47,405.491 1016.11,405.757 1017.89,405.757C1019.67,405.757 1021.29,405.491 1022.76,404.96C1024.23,404.429 1025.5,403.632 1026.56,402.57C1027.62,401.507 1028.41,400.202 1028.93,398.655C1029.44,397.109 1029.7,394.96 1029.7,392.21L1029.7,363.007C1029.7,362.82 1029.76,362.64 1029.89,362.468C1030.01,362.296 1030.22,362.155 1030.52,362.046C1030.82,361.937 1031.21,361.851 1031.71,361.788C1032.21,361.726 1032.84,361.695 1033.59,361.695C1034.5,361.695 1035.19,361.726 1035.68,361.788C1036.16,361.851 1036.55,361.937 1036.85,362.046C1037.14,362.155 1037.35,362.296 1037.46,362.468C1037.57,362.64 1037.62,362.82 1037.62,363.007L1037.62,392.257Z" style="fill:rgb(38,164,123);"/>
                <path d="M1089.63,408.663C1089.85,409.351 1089.98,409.898 1090.03,410.304C1090.07,410.71 1089.97,411.023 1089.72,411.241C1089.47,411.46 1089.05,411.601 1088.46,411.663C1087.86,411.726 1087.05,411.757 1086.02,411.757C1084.99,411.757 1084.18,411.734 1083.61,411.687C1083.03,411.64 1082.58,411.57 1082.27,411.476C1081.96,411.382 1081.74,411.241 1081.61,411.054C1081.49,410.866 1081.38,410.632 1081.29,410.351L1077.21,399.241L1056.21,399.241L1052.36,410.257C1052.24,410.538 1052.1,410.773 1051.94,410.96C1051.79,411.148 1051.56,411.304 1051.26,411.429C1050.96,411.554 1050.54,411.64 1049.97,411.687C1049.41,411.734 1048.69,411.757 1047.82,411.757C1046.91,411.757 1046.18,411.718 1045.64,411.64C1045.09,411.562 1044.71,411.413 1044.49,411.195C1044.27,410.976 1044.18,410.648 1044.21,410.21C1044.24,409.773 1044.38,409.226 1044.63,408.57L1061.55,363.335C1061.68,362.991 1061.83,362.71 1062.02,362.491C1062.21,362.273 1062.49,362.109 1062.86,361.999C1063.24,361.89 1063.73,361.812 1064.34,361.765C1064.95,361.718 1065.72,361.695 1066.66,361.695C1067.44,361.695 1068.11,361.702 1068.65,361.718C1069.2,361.734 1069.66,361.765 1070.04,361.812C1070.41,361.859 1070.74,361.921 1071.02,361.999C1071.3,362.077 1071.53,362.179 1071.7,362.304C1071.87,362.429 1072.02,362.585 1072.14,362.773C1072.27,362.96 1072.38,363.179 1072.47,363.429L1089.63,408.663ZM1066.61,369.429L1066.52,369.429L1058.32,392.96L1075.14,392.96L1066.61,369.429Z" style="fill:rgb(38,164,123);"/>
                <path d="M1125,408.241C1125,409.366 1124.87,410.187 1124.62,410.702C1124.37,411.218 1124.01,411.476 1123.54,411.476L1101,411.476C1100.37,411.476 1099.78,411.249 1099.21,410.796C1098.65,410.343 1098.37,409.601 1098.37,408.57L1098.37,363.007C1098.37,362.82 1098.43,362.64 1098.56,362.468C1098.68,362.296 1098.9,362.155 1099.21,362.046C1099.53,361.937 1099.94,361.851 1100.46,361.788C1100.97,361.726 1101.61,361.695 1102.36,361.695C1103.14,361.695 1103.78,361.726 1104.28,361.788C1104.78,361.851 1105.18,361.937 1105.5,362.046C1105.81,362.155 1106.03,362.296 1106.15,362.468C1106.28,362.64 1106.34,362.82 1106.34,363.007L1106.34,404.96L1123.54,404.96C1123.76,404.96 1123.96,405.015 1124.15,405.124C1124.34,405.234 1124.5,405.421 1124.62,405.687C1124.75,405.952 1124.84,406.296 1124.9,406.718C1124.96,407.14 1125,407.648 1125,408.241Z" style="fill:rgb(38,164,123);"/>
                <path d="M1140.84,410.398C1140.84,410.616 1140.78,410.812 1140.65,410.984C1140.53,411.155 1140.31,411.296 1140,411.405C1139.68,411.515 1139.28,411.601 1138.78,411.663C1138.28,411.726 1137.64,411.757 1136.86,411.757C1136.11,411.757 1135.47,411.726 1134.96,411.663C1134.44,411.601 1134.03,411.515 1133.71,411.405C1133.4,411.296 1133.18,411.155 1133.06,410.984C1132.93,410.812 1132.87,410.616 1132.87,410.398L1132.87,363.007C1132.87,362.82 1132.94,362.64 1133.08,362.468C1133.22,362.296 1133.45,362.155 1133.76,362.046C1134.07,361.937 1134.48,361.851 1134.98,361.788C1135.48,361.726 1136.11,361.695 1136.86,361.695C1137.64,361.695 1138.28,361.726 1138.78,361.788C1139.28,361.851 1139.68,361.937 1140,362.046C1140.31,362.155 1140.53,362.296 1140.65,362.468C1140.78,362.64 1140.84,362.82 1140.84,363.007L1140.84,410.398Z" style="fill:rgb(38,164,123);"/>
                <path d="M1184.2,397.648C1184.2,399.96 1183.74,402.023 1182.82,403.835C1181.89,405.648 1180.64,407.171 1179.04,408.405C1177.45,409.64 1175.54,410.601 1173.32,411.288C1171.11,411.976 1168.7,412.32 1166.11,412.32C1164.51,412.32 1162.97,412.179 1161.49,411.898C1160,411.616 1158.67,411.265 1157.48,410.843C1156.29,410.421 1155.29,409.991 1154.46,409.554C1153.63,409.116 1153.09,408.773 1152.84,408.523C1152.59,408.273 1152.41,408.062 1152.3,407.89C1152.19,407.718 1152.1,407.507 1152.02,407.257C1151.94,407.007 1151.89,406.718 1151.86,406.39C1151.82,406.062 1151.81,405.648 1151.81,405.148C1151.81,404.523 1151.82,403.984 1151.86,403.53C1151.89,403.077 1151.96,402.695 1152.07,402.382C1152.18,402.07 1152.32,401.843 1152.49,401.702C1152.66,401.562 1152.87,401.491 1153.12,401.491C1153.46,401.491 1153.99,401.718 1154.69,402.171C1155.39,402.624 1156.29,403.124 1157.39,403.671C1158.48,404.218 1159.79,404.718 1161.3,405.171C1162.82,405.624 1164.51,405.851 1166.39,405.851C1167.79,405.851 1169.09,405.679 1170.28,405.335C1171.46,404.991 1172.49,404.499 1173.35,403.859C1174.21,403.218 1174.88,402.437 1175.36,401.515C1175.85,400.593 1176.09,399.538 1176.09,398.351C1176.09,397.07 1175.75,395.952 1175.08,394.999C1174.41,394.046 1173.53,393.202 1172.43,392.468C1171.34,391.734 1170.09,391.077 1168.68,390.499C1167.28,389.921 1165.85,389.304 1164.39,388.648C1162.94,387.991 1161.51,387.265 1160.11,386.468C1158.7,385.671 1157.44,384.734 1156.33,383.655C1155.22,382.577 1154.34,381.28 1153.68,379.765C1153.03,378.249 1152.7,376.476 1152.7,374.445C1152.7,372.445 1153.11,370.624 1153.92,368.984C1154.73,367.343 1155.86,365.945 1157.29,364.788C1158.73,363.632 1160.42,362.734 1162.36,362.093C1164.29,361.452 1166.39,361.132 1168.64,361.132C1169.95,361.132 1171.25,361.257 1172.53,361.507C1173.81,361.757 1174.97,362.054 1176.02,362.398C1177.07,362.741 1177.97,363.109 1178.74,363.499C1179.5,363.89 1180,364.202 1180.21,364.437C1180.43,364.671 1180.6,364.874 1180.71,365.046C1180.82,365.218 1180.91,365.437 1180.99,365.702C1181.07,365.968 1181.12,366.288 1181.15,366.663C1181.18,367.038 1181.2,367.476 1181.2,367.976C1181.2,368.57 1181.18,369.07 1181.15,369.476C1181.12,369.882 1181.05,370.218 1180.94,370.484C1180.83,370.749 1180.71,370.945 1180.57,371.07C1180.43,371.195 1180.25,371.257 1180.03,371.257C1179.75,371.257 1179.29,371.054 1178.64,370.648C1178,370.241 1177.21,369.812 1176.25,369.359C1175.3,368.905 1174.18,368.476 1172.9,368.07C1171.62,367.663 1170.18,367.46 1168.59,367.46C1167.37,367.46 1166.26,367.624 1165.26,367.952C1164.26,368.28 1163.42,368.734 1162.73,369.312C1162.04,369.89 1161.51,370.577 1161.14,371.374C1160.76,372.171 1160.57,373.023 1160.57,373.929C1160.57,375.273 1160.92,376.429 1161.61,377.398C1162.29,378.366 1163.19,379.21 1164.3,379.929C1165.41,380.648 1166.67,381.312 1168.07,381.921C1169.48,382.53 1170.92,383.148 1172.39,383.773C1173.86,384.398 1175.29,385.101 1176.7,385.882C1178.11,386.663 1179.36,387.585 1180.47,388.648C1181.58,389.71 1182.48,390.976 1183.17,392.445C1183.86,393.913 1184.2,395.648 1184.2,397.648Z" style="fill:rgb(38,164,123);"/>
                <path d="M1224.75,408.288C1224.75,408.851 1224.71,409.335 1224.65,409.741C1224.59,410.148 1224.5,410.484 1224.39,410.749C1224.29,411.015 1224.14,411.202 1223.97,411.312C1223.8,411.421 1223.62,411.476 1223.43,411.476L1198.26,411.476C1197.64,411.476 1197.04,411.249 1196.48,410.796C1195.92,410.343 1195.64,409.601 1195.64,408.57L1195.64,364.882C1195.64,363.851 1195.92,363.109 1196.48,362.655C1197.04,362.202 1197.64,361.976 1198.26,361.976L1223.11,361.976C1223.32,361.976 1223.52,362.03 1223.69,362.14C1223.86,362.249 1224,362.429 1224.11,362.679C1224.22,362.929 1224.31,363.265 1224.37,363.687C1224.43,364.109 1224.46,364.601 1224.46,365.163C1224.46,365.726 1224.43,366.202 1224.37,366.593C1224.31,366.984 1224.22,367.296 1224.11,367.53C1224,367.765 1223.86,367.945 1223.69,368.07C1223.52,368.195 1223.32,368.257 1223.11,368.257L1203.61,368.257L1203.61,382.695L1220.43,382.695C1220.65,382.695 1220.85,382.749 1221.02,382.859C1221.19,382.968 1221.34,383.148 1221.46,383.398C1221.59,383.648 1221.68,383.976 1221.72,384.382C1221.77,384.788 1221.79,385.288 1221.79,385.882C1221.79,386.413 1221.77,386.874 1221.72,387.265C1221.68,387.655 1221.59,387.976 1221.46,388.226C1221.34,388.476 1221.19,388.655 1221.02,388.765C1220.85,388.874 1220.65,388.929 1220.43,388.929L1203.61,388.929L1203.61,405.195L1223.43,405.195C1223.62,405.195 1223.8,405.249 1223.97,405.359C1224.14,405.468 1224.29,405.648 1224.39,405.898C1224.5,406.148 1224.59,406.468 1224.65,406.859C1224.71,407.249 1224.75,407.726 1224.75,408.288Z" style="fill:rgb(38,164,123);"/>
            </g>
            <g transform="matrix(1.58228,0,0,1.58228,185.224,-247.579)">
                <path d="M300.333,527.184C300.333,528.148 300.141,529.007 299.757,529.763C299.373,530.518 298.849,531.153 298.185,531.667C297.521,532.181 296.727,532.582 295.802,532.868C294.878,533.154 293.875,533.298 292.794,533.298C292.13,533.298 291.489,533.239 290.87,533.122C290.252,533.005 289.695,532.858 289.201,532.682C288.706,532.507 288.286,532.328 287.941,532.145C287.596,531.963 287.371,531.82 287.267,531.716C287.163,531.611 287.088,531.524 287.042,531.452C286.997,531.38 286.958,531.292 286.925,531.188C286.893,531.084 286.87,530.964 286.857,530.827C286.844,530.69 286.837,530.518 286.837,530.309C286.837,530.049 286.844,529.824 286.857,529.636C286.87,529.447 286.899,529.287 286.945,529.157C286.99,529.027 287.049,528.932 287.12,528.874C287.192,528.815 287.28,528.786 287.384,528.786C287.527,528.786 287.745,528.88 288.038,529.069C288.331,529.258 288.706,529.466 289.162,529.694C289.617,529.922 290.161,530.13 290.792,530.319C291.424,530.508 292.13,530.602 292.912,530.602C293.497,530.602 294.038,530.531 294.533,530.388C295.027,530.244 295.454,530.039 295.812,529.772C296.17,529.505 296.45,529.18 296.652,528.796C296.854,528.412 296.954,527.972 296.954,527.477C296.954,526.944 296.815,526.478 296.535,526.081C296.255,525.684 295.887,525.332 295.431,525.026C294.975,524.72 294.454,524.447 293.869,524.206C293.283,523.965 292.687,523.708 292.081,523.434C291.476,523.161 290.88,522.858 290.294,522.526C289.708,522.194 289.184,521.804 288.722,521.354C288.26,520.905 287.892,520.365 287.619,519.733C287.345,519.102 287.208,518.363 287.208,517.516C287.208,516.683 287.378,515.925 287.716,515.241C288.055,514.557 288.523,513.975 289.122,513.493C289.721,513.011 290.425,512.637 291.232,512.37C292.039,512.103 292.912,511.97 293.849,511.97C294.396,511.97 294.936,512.022 295.47,512.126C296.004,512.23 296.489,512.354 296.925,512.497C297.361,512.64 297.739,512.793 298.058,512.956C298.377,513.119 298.582,513.249 298.673,513.347C298.764,513.444 298.833,513.529 298.878,513.6C298.924,513.672 298.963,513.763 298.995,513.874C299.028,513.985 299.051,514.118 299.064,514.274C299.077,514.431 299.083,514.613 299.083,514.821C299.083,515.069 299.077,515.277 299.064,515.446C299.051,515.615 299.022,515.755 298.976,515.866C298.93,515.977 298.878,516.058 298.82,516.11C298.761,516.162 298.686,516.188 298.595,516.188C298.478,516.188 298.286,516.104 298.019,515.934C297.752,515.765 297.42,515.586 297.023,515.397C296.626,515.208 296.16,515.029 295.626,514.86C295.093,514.691 294.494,514.606 293.829,514.606C293.322,514.606 292.859,514.675 292.443,514.811C292.026,514.948 291.675,515.137 291.388,515.378C291.102,515.619 290.88,515.905 290.724,516.237C290.568,516.569 290.49,516.924 290.49,517.302C290.49,517.861 290.633,518.343 290.919,518.747C291.206,519.151 291.58,519.502 292.042,519.802C292.505,520.101 293.029,520.378 293.615,520.632C294.201,520.886 294.8,521.143 295.412,521.403C296.023,521.664 296.622,521.957 297.208,522.282C297.794,522.608 298.318,522.992 298.781,523.434C299.243,523.877 299.617,524.404 299.904,525.016C300.19,525.628 300.333,526.351 300.333,527.184Z" style="fill:rgb(100,91,91);"/>
                <path d="M317.794,513.669C317.794,514.151 317.745,514.499 317.648,514.714C317.55,514.929 317.41,515.036 317.228,515.036L311.622,515.036L311.622,532.497C311.622,532.588 311.593,532.669 311.535,532.741C311.476,532.813 311.388,532.871 311.271,532.917C311.154,532.962 310.988,532.998 310.773,533.024C310.558,533.05 310.288,533.063 309.962,533.063C309.624,533.063 309.354,533.05 309.152,533.024C308.95,532.998 308.784,532.962 308.654,532.917C308.523,532.871 308.432,532.813 308.38,532.741C308.328,532.669 308.302,532.588 308.302,532.497L308.302,515.036L302.697,515.036C302.606,515.036 302.524,515.01 302.453,514.958C302.381,514.906 302.319,514.824 302.267,514.714C302.215,514.603 302.179,514.46 302.16,514.284C302.14,514.108 302.13,513.903 302.13,513.669C302.13,513.434 302.14,513.229 302.16,513.054C302.179,512.878 302.215,512.735 302.267,512.624C302.319,512.513 302.381,512.435 302.453,512.389C302.524,512.344 302.606,512.321 302.697,512.321L317.228,512.321C317.319,512.321 317.4,512.344 317.472,512.389C317.544,512.435 317.602,512.513 317.648,512.624C317.693,512.735 317.729,512.878 317.755,513.054C317.781,513.229 317.794,513.434 317.794,513.669Z" style="fill:rgb(100,91,91);"/>
                <path d="M336.369,532.575C336.369,532.666 336.343,532.741 336.29,532.8C336.238,532.858 336.144,532.907 336.007,532.946C335.87,532.985 335.682,533.014 335.441,533.034C335.2,533.054 334.897,533.063 334.533,533.063C334.181,533.063 333.898,533.054 333.683,533.034C333.468,533.014 333.292,532.975 333.156,532.917C333.019,532.858 332.918,532.783 332.853,532.692C332.788,532.601 332.736,532.484 332.697,532.341L331.017,527.614C330.822,527.067 330.607,526.572 330.372,526.13C330.138,525.687 329.865,525.313 329.552,525.007C329.24,524.701 328.872,524.463 328.449,524.294C328.025,524.125 327.475,524.04 326.798,524.04L324.787,524.04L324.787,532.497C324.787,532.588 324.76,532.669 324.708,532.741C324.656,532.813 324.565,532.871 324.435,532.917C324.305,532.962 324.135,532.998 323.927,533.024C323.719,533.05 323.452,533.063 323.126,533.063C322.814,533.063 322.55,533.05 322.335,533.024C322.12,532.998 321.948,532.962 321.818,532.917C321.688,532.871 321.596,532.813 321.544,532.741C321.492,532.669 321.466,532.588 321.466,532.497L321.466,513.532C321.466,513.102 321.583,512.793 321.818,512.604C322.052,512.416 322.3,512.321 322.56,512.321L328.068,512.321C329.318,512.321 330.376,512.445 331.242,512.692C332.107,512.94 332.837,513.291 333.429,513.747C334.022,514.203 334.474,514.766 334.787,515.436C335.099,516.107 335.255,516.865 335.255,517.712C335.255,518.389 335.161,519.007 334.972,519.567C334.783,520.127 334.516,520.632 334.171,521.081C333.826,521.53 333.406,521.917 332.912,522.243C332.417,522.569 331.85,522.835 331.212,523.044C331.564,523.187 331.886,523.366 332.179,523.581C332.472,523.796 332.739,524.059 332.98,524.372C333.221,524.684 333.449,525.049 333.663,525.466C333.878,525.882 334.09,526.351 334.298,526.872L336.037,531.423C336.167,531.761 336.255,532.012 336.3,532.175C336.346,532.337 336.369,532.471 336.369,532.575ZM331.759,518.083C331.759,517.627 331.691,517.204 331.554,516.813C331.417,516.423 331.193,516.087 330.88,515.807C330.568,515.528 330.167,515.306 329.679,515.143C329.191,514.981 328.53,514.899 327.697,514.899L324.787,514.899L324.787,521.501L327.56,521.501C328.367,521.501 329.025,521.419 329.533,521.257C330.04,521.094 330.457,520.86 330.783,520.554C331.108,520.248 331.352,519.886 331.515,519.47C331.678,519.053 331.759,518.591 331.759,518.083Z" style="fill:rgb(100,91,91);"/>
                <path d="M357.599,524.938C357.599,526.449 357.4,527.695 357.003,528.679C356.606,529.662 356.05,530.495 355.333,531.179C354.617,531.862 353.745,532.386 352.716,532.751C351.688,533.115 350.535,533.298 349.259,533.298C348.022,533.298 346.896,533.132 345.88,532.8C344.865,532.468 343.995,531.973 343.273,531.315C342.55,530.658 342,529.844 341.622,528.874C341.245,527.904 341.056,526.592 341.056,524.938L341.056,512.751C341.056,512.673 341.082,512.598 341.134,512.526C341.186,512.455 341.277,512.396 341.408,512.35C341.538,512.305 341.707,512.269 341.915,512.243C342.124,512.217 342.384,512.204 342.697,512.204C343.035,512.204 343.312,512.217 343.527,512.243C343.742,512.269 343.911,512.305 344.035,512.35C344.158,512.396 344.246,512.455 344.298,512.526C344.35,512.598 344.376,512.673 344.376,512.751L344.376,524.704C344.376,525.967 344.49,526.927 344.718,527.585C344.946,528.242 345.285,528.792 345.734,529.235C346.183,529.678 346.717,530.01 347.335,530.231C347.954,530.453 348.634,530.563 349.376,530.563C350.119,530.563 350.796,530.453 351.408,530.231C352.02,530.01 352.547,529.678 352.99,529.235C353.432,528.792 353.761,528.249 353.976,527.604C354.191,526.96 354.298,526.065 354.298,524.919L354.298,512.751C354.298,512.673 354.324,512.598 354.376,512.526C354.428,512.455 354.516,512.396 354.64,512.35C354.764,512.305 354.93,512.269 355.138,512.243C355.346,512.217 355.607,512.204 355.919,512.204C356.297,512.204 356.587,512.217 356.788,512.243C356.99,512.269 357.153,512.305 357.277,512.35C357.4,512.396 357.485,512.455 357.531,512.526C357.576,512.598 357.599,512.673 357.599,512.751L357.599,524.938Z" style="fill:rgb(100,91,91);"/>
                <path d="M378.263,529.977C378.263,530.355 378.237,530.651 378.185,530.866C378.133,531.081 378.022,531.273 377.853,531.442C377.684,531.611 377.43,531.804 377.091,532.018C376.753,532.233 376.346,532.432 375.87,532.614C375.395,532.796 374.855,532.949 374.249,533.073C373.644,533.197 372.983,533.259 372.267,533.259C370.861,533.259 369.578,533.028 368.419,532.565C367.26,532.103 366.268,531.426 365.441,530.534C364.614,529.642 363.973,528.542 363.517,527.233C363.061,525.925 362.833,524.424 362.833,522.731C362.833,521.052 363.065,519.548 363.527,518.22C363.989,516.891 364.637,515.765 365.47,514.841C366.303,513.916 367.303,513.213 368.468,512.731C369.634,512.25 370.919,512.009 372.326,512.009C372.938,512.009 373.527,512.061 374.093,512.165C374.66,512.269 375.184,512.412 375.665,512.595C376.147,512.777 376.58,512.975 376.964,513.19C377.348,513.405 377.625,513.597 377.794,513.766C377.964,513.936 378.078,514.134 378.136,514.362C378.195,514.59 378.224,514.919 378.224,515.348C378.224,515.583 378.211,515.785 378.185,515.954C378.159,516.123 378.123,516.263 378.078,516.374C378.032,516.485 377.977,516.566 377.912,516.618C377.846,516.67 377.768,516.696 377.677,516.696C377.534,516.696 377.339,516.595 377.091,516.393C376.844,516.192 376.515,515.973 376.105,515.739C375.695,515.505 375.187,515.29 374.581,515.095C373.976,514.899 373.257,514.802 372.423,514.802C371.512,514.802 370.682,514.981 369.933,515.339C369.184,515.697 368.546,516.211 368.019,516.882C367.492,517.552 367.085,518.376 366.798,519.352C366.512,520.329 366.369,521.423 366.369,522.634C366.369,523.91 366.522,525.036 366.828,526.013C367.134,526.989 367.566,527.803 368.126,528.454C368.686,529.105 369.354,529.597 370.128,529.929C370.903,530.261 371.766,530.427 372.716,530.427C373.51,530.427 374.191,530.329 374.757,530.134C375.324,529.938 375.805,529.727 376.203,529.499C376.6,529.271 376.928,529.059 377.189,528.864C377.449,528.669 377.664,528.571 377.833,528.571C377.912,528.571 377.977,528.591 378.029,528.63C378.081,528.669 378.123,528.744 378.156,528.854C378.188,528.965 378.214,529.111 378.234,529.294C378.253,529.476 378.263,529.704 378.263,529.977Z" style="fill:rgb(100,91,91);"/>
                <path d="M396.076,513.669C396.076,514.151 396.027,514.499 395.929,514.714C395.831,514.929 395.691,515.036 395.509,515.036L389.904,515.036L389.904,532.497C389.904,532.588 389.874,532.669 389.816,532.741C389.757,532.813 389.669,532.871 389.552,532.917C389.435,532.962 389.269,532.998 389.054,533.024C388.839,533.05 388.569,533.063 388.244,533.063C387.905,533.063 387.635,533.05 387.433,533.024C387.231,532.998 387.065,532.962 386.935,532.917C386.805,532.871 386.714,532.813 386.662,532.741C386.609,532.669 386.583,532.588 386.583,532.497L386.583,515.036L380.978,515.036C380.887,515.036 380.805,515.01 380.734,514.958C380.662,514.906 380.6,514.824 380.548,514.714C380.496,514.603 380.46,514.46 380.441,514.284C380.421,514.108 380.412,513.903 380.412,513.669C380.412,513.434 380.421,513.229 380.441,513.054C380.46,512.878 380.496,512.735 380.548,512.624C380.6,512.513 380.662,512.435 380.734,512.389C380.805,512.344 380.887,512.321 380.978,512.321L395.509,512.321C395.6,512.321 395.682,512.344 395.753,512.389C395.825,512.435 395.884,512.513 395.929,512.624C395.975,512.735 396.01,512.878 396.037,513.054C396.063,513.229 396.076,513.434 396.076,513.669Z" style="fill:rgb(100,91,91);"/>
                <path d="M416.251,524.938C416.251,526.449 416.053,527.695 415.656,528.679C415.259,529.662 414.702,530.495 413.986,531.179C413.27,531.862 412.397,532.386 411.369,532.751C410.34,533.115 409.188,533.298 407.912,533.298C406.675,533.298 405.548,533.132 404.533,532.8C403.517,532.468 402.648,531.973 401.925,531.315C401.203,530.658 400.652,529.844 400.275,528.874C399.897,527.904 399.708,526.592 399.708,524.938L399.708,512.751C399.708,512.673 399.734,512.598 399.787,512.526C399.839,512.455 399.93,512.396 400.06,512.35C400.19,512.305 400.359,512.269 400.568,512.243C400.776,512.217 401.037,512.204 401.349,512.204C401.688,512.204 401.964,512.217 402.179,512.243C402.394,512.269 402.563,512.305 402.687,512.35C402.811,512.396 402.898,512.455 402.951,512.526C403.003,512.598 403.029,512.673 403.029,512.751L403.029,524.704C403.029,525.967 403.143,526.927 403.37,527.585C403.598,528.242 403.937,528.792 404.386,529.235C404.835,529.678 405.369,530.01 405.988,530.231C406.606,530.453 407.287,530.563 408.029,530.563C408.771,530.563 409.448,530.453 410.06,530.231C410.672,530.01 411.199,529.678 411.642,529.235C412.085,528.792 412.413,528.249 412.628,527.604C412.843,526.96 412.951,526.065 412.951,524.919L412.951,512.751C412.951,512.673 412.977,512.598 413.029,512.526C413.081,512.455 413.169,512.396 413.292,512.35C413.416,512.305 413.582,512.269 413.79,512.243C413.999,512.217 414.259,512.204 414.572,512.204C414.949,512.204 415.239,512.217 415.441,512.243C415.643,512.269 415.805,512.305 415.929,512.35C416.053,512.396 416.137,512.455 416.183,512.526C416.229,512.598 416.251,512.673 416.251,512.751L416.251,524.938Z" style="fill:rgb(100,91,91);"/>
                <path d="M437.404,532.575C437.404,532.666 437.378,532.741 437.326,532.8C437.273,532.858 437.179,532.907 437.042,532.946C436.906,532.985 436.717,533.014 436.476,533.034C436.235,533.054 435.932,533.063 435.568,533.063C435.216,533.063 434.933,533.054 434.718,533.034C434.503,533.014 434.328,532.975 434.191,532.917C434.054,532.858 433.953,532.783 433.888,532.692C433.823,532.601 433.771,532.484 433.732,532.341L432.052,527.614C431.857,527.067 431.642,526.572 431.408,526.13C431.173,525.687 430.9,525.313 430.587,525.007C430.275,524.701 429.907,524.463 429.484,524.294C429.061,524.125 428.51,524.04 427.833,524.04L425.822,524.04L425.822,532.497C425.822,532.588 425.796,532.669 425.744,532.741C425.691,532.813 425.6,532.871 425.47,532.917C425.34,532.962 425.171,532.998 424.962,533.024C424.754,533.05 424.487,533.063 424.162,533.063C423.849,533.063 423.585,533.05 423.37,533.024C423.156,532.998 422.983,532.962 422.853,532.917C422.723,532.871 422.632,532.813 422.579,532.741C422.527,532.669 422.501,532.588 422.501,532.497L422.501,513.532C422.501,513.102 422.619,512.793 422.853,512.604C423.087,512.416 423.335,512.321 423.595,512.321L429.103,512.321C430.353,512.321 431.411,512.445 432.277,512.692C433.143,512.94 433.872,513.291 434.464,513.747C435.057,514.203 435.509,514.766 435.822,515.436C436.134,516.107 436.29,516.865 436.29,517.712C436.29,518.389 436.196,519.007 436.007,519.567C435.818,520.127 435.551,520.632 435.206,521.081C434.861,521.53 434.441,521.917 433.947,522.243C433.452,522.569 432.885,522.835 432.247,523.044C432.599,523.187 432.921,523.366 433.214,523.581C433.507,523.796 433.774,524.059 434.015,524.372C434.256,524.684 434.484,525.049 434.699,525.466C434.913,525.882 435.125,526.351 435.333,526.872L437.072,531.423C437.202,531.761 437.29,532.012 437.335,532.175C437.381,532.337 437.404,532.471 437.404,532.575ZM432.794,518.083C432.794,517.627 432.726,517.204 432.589,516.813C432.453,516.423 432.228,516.087 431.915,515.807C431.603,515.528 431.203,515.306 430.714,515.143C430.226,514.981 429.565,514.899 428.732,514.899L425.822,514.899L425.822,521.501L428.595,521.501C429.402,521.501 430.06,521.419 430.568,521.257C431.076,521.094 431.492,520.86 431.818,520.554C432.143,520.248 432.387,519.886 432.55,519.47C432.713,519.053 432.794,518.591 432.794,518.083Z" style="fill:rgb(100,91,91);"/>
                <path d="M454.259,531.618C454.259,531.852 454.246,532.054 454.22,532.223C454.194,532.393 454.158,532.533 454.113,532.643C454.067,532.754 454.009,532.832 453.937,532.878C453.865,532.923 453.79,532.946 453.712,532.946L443.224,532.946C442.964,532.946 442.716,532.852 442.482,532.663C442.247,532.474 442.13,532.165 442.13,531.735L442.13,513.532C442.13,513.102 442.247,512.793 442.482,512.604C442.716,512.416 442.964,512.321 443.224,512.321L453.576,512.321C453.667,512.321 453.748,512.344 453.82,512.389C453.891,512.435 453.95,512.51 453.995,512.614C454.041,512.718 454.077,512.858 454.103,513.034C454.129,513.21 454.142,513.415 454.142,513.649C454.142,513.884 454.129,514.082 454.103,514.245C454.077,514.408 454.041,514.538 453.995,514.636C453.95,514.733 453.891,514.808 453.82,514.86C453.748,514.912 453.667,514.938 453.576,514.938L445.451,514.938L445.451,520.954L452.462,520.954C452.553,520.954 452.635,520.977 452.706,521.022C452.778,521.068 452.84,521.143 452.892,521.247C452.944,521.351 452.98,521.488 452.999,521.657C453.019,521.826 453.029,522.035 453.029,522.282C453.029,522.503 453.019,522.695 452.999,522.858C452.98,523.021 452.944,523.154 452.892,523.259C452.84,523.363 452.778,523.438 452.706,523.483C452.635,523.529 452.553,523.552 452.462,523.552L445.451,523.552L445.451,530.329L453.712,530.329C453.79,530.329 453.865,530.352 453.937,530.397C454.009,530.443 454.067,530.518 454.113,530.622C454.158,530.726 454.194,530.86 454.22,531.022C454.246,531.185 454.259,531.384 454.259,531.618Z" style="fill:rgb(100,91,91);"/>
                <path d="M476.408,522.341C476.408,524.164 476.17,525.739 475.695,527.067C475.219,528.395 474.533,529.496 473.634,530.368C472.736,531.24 471.635,531.888 470.333,532.311C469.031,532.735 467.462,532.946 465.626,532.946L460.724,532.946C460.464,532.946 460.216,532.852 459.982,532.663C459.747,532.474 459.63,532.165 459.63,531.735L459.63,513.532C459.63,513.102 459.747,512.793 459.982,512.604C460.216,512.416 460.464,512.321 460.724,512.321L466.056,512.321C467.853,512.321 469.38,512.546 470.636,512.995C471.893,513.444 472.947,514.098 473.8,514.958C474.653,515.817 475.301,516.869 475.744,518.112C476.186,519.356 476.408,520.765 476.408,522.341ZM472.97,522.438C472.97,521.371 472.84,520.381 472.579,519.47C472.319,518.558 471.912,517.767 471.359,517.097C470.805,516.426 470.089,515.902 469.21,515.524C468.331,515.147 467.189,514.958 465.783,514.958L462.951,514.958L462.951,530.309L465.763,530.309C467.091,530.309 468.191,530.15 469.064,529.831C469.936,529.512 470.662,529.024 471.242,528.366C471.821,527.708 472.254,526.888 472.54,525.905C472.827,524.922 472.97,523.766 472.97,522.438Z" style="fill:rgb(100,91,91);"/>
                <path d="M503.712,513.669C503.712,514.151 503.663,514.499 503.566,514.714C503.468,514.929 503.328,515.036 503.146,515.036L497.54,515.036L497.54,532.497C497.54,532.588 497.511,532.669 497.453,532.741C497.394,532.813 497.306,532.871 497.189,532.917C497.072,532.962 496.906,532.998 496.691,533.024C496.476,533.05 496.206,533.063 495.88,533.063C495.542,533.063 495.272,533.05 495.07,533.024C494.868,532.998 494.702,532.962 494.572,532.917C494.441,532.871 494.35,532.813 494.298,532.741C494.246,532.669 494.22,532.588 494.22,532.497L494.22,515.036L488.615,515.036C488.523,515.036 488.442,515.01 488.37,514.958C488.299,514.906 488.237,514.824 488.185,514.714C488.133,514.603 488.097,514.46 488.078,514.284C488.058,514.108 488.048,513.903 488.048,513.669C488.048,513.434 488.058,513.229 488.078,513.054C488.097,512.878 488.133,512.735 488.185,512.624C488.237,512.513 488.299,512.435 488.37,512.389C488.442,512.344 488.523,512.321 488.615,512.321L503.146,512.321C503.237,512.321 503.318,512.344 503.39,512.389C503.462,512.435 503.52,512.513 503.566,512.624C503.611,512.735 503.647,512.878 503.673,513.054C503.699,513.229 503.712,513.434 503.712,513.669Z" style="fill:rgb(100,91,91);"/>
                <path d="M523.439,532.497C523.439,532.588 523.413,532.669 523.361,532.741C523.309,532.813 523.214,532.871 523.078,532.917C522.941,532.962 522.765,532.998 522.55,533.024C522.335,533.05 522.065,533.063 521.74,533.063C521.427,533.063 521.167,533.05 520.958,533.024C520.75,532.998 520.581,532.962 520.451,532.917C520.32,532.871 520.232,532.813 520.187,532.741C520.141,532.669 520.119,532.588 520.119,532.497L520.119,523.63L510.704,523.63L510.704,532.497C510.704,532.588 510.678,532.669 510.626,532.741C510.574,532.813 510.483,532.871 510.353,532.917C510.223,532.962 510.053,532.998 509.845,533.024C509.637,533.05 509.37,533.063 509.044,533.063C508.732,533.063 508.468,533.05 508.253,533.024C508.038,532.998 507.866,532.962 507.736,532.917C507.606,532.871 507.514,532.813 507.462,532.741C507.41,532.669 507.384,532.588 507.384,532.497L507.384,512.77C507.384,512.679 507.41,512.598 507.462,512.526C507.514,512.455 507.606,512.396 507.736,512.35C507.866,512.305 508.038,512.269 508.253,512.243C508.468,512.217 508.732,512.204 509.044,512.204C509.37,512.204 509.637,512.217 509.845,512.243C510.053,512.269 510.223,512.305 510.353,512.35C510.483,512.396 510.574,512.455 510.626,512.526C510.678,512.598 510.704,512.679 510.704,512.77L510.704,520.837L520.119,520.837L520.119,512.77C520.119,512.679 520.141,512.598 520.187,512.526C520.232,512.455 520.32,512.396 520.451,512.35C520.581,512.305 520.75,512.269 520.958,512.243C521.167,512.217 521.427,512.204 521.74,512.204C522.065,512.204 522.335,512.217 522.55,512.243C522.765,512.269 522.941,512.305 523.078,512.35C523.214,512.396 523.309,512.455 523.361,512.526C523.413,512.598 523.439,512.679 523.439,512.77L523.439,532.497Z" style="fill:rgb(100,91,91);"/>
                <path d="M547.912,522.36C547.912,524.053 547.7,525.573 547.277,526.921C546.854,528.268 546.229,529.414 545.402,530.358C544.575,531.302 543.55,532.028 542.326,532.536C541.102,533.044 539.695,533.298 538.107,533.298C536.518,533.298 535.128,533.076 533.937,532.634C532.745,532.191 531.749,531.53 530.949,530.651C530.148,529.772 529.552,528.675 529.162,527.36C528.771,526.045 528.576,524.515 528.576,522.77C528.576,521.13 528.79,519.642 529.22,518.307C529.65,516.973 530.281,515.837 531.115,514.899C531.948,513.962 532.977,513.239 534.201,512.731C535.425,512.223 536.831,511.97 538.419,511.97C539.943,511.97 541.294,512.191 542.472,512.634C543.65,513.076 544.643,513.734 545.451,514.606C546.258,515.479 546.87,516.559 547.287,517.848C547.703,519.138 547.912,520.641 547.912,522.36ZM544.435,522.575C544.435,521.429 544.328,520.378 544.113,519.421C543.898,518.464 543.55,517.634 543.068,516.931C542.586,516.227 541.954,515.681 541.173,515.29C540.392,514.899 539.428,514.704 538.283,514.704C537.137,514.704 536.17,514.912 535.382,515.329C534.594,515.746 533.956,516.315 533.468,517.038C532.98,517.761 532.622,518.6 532.394,519.557C532.166,520.514 532.052,521.52 532.052,522.575C532.052,523.76 532.156,524.841 532.365,525.817C532.573,526.794 532.921,527.637 533.41,528.347C533.898,529.056 534.533,529.603 535.314,529.987C536.095,530.371 537.059,530.563 538.204,530.563C539.35,530.563 540.32,530.348 541.115,529.919C541.909,529.489 542.553,528.91 543.048,528.181C543.543,527.451 543.898,526.602 544.113,525.632C544.328,524.662 544.435,523.643 544.435,522.575Z" style="fill:rgb(100,91,91);"/>
                <path d="M569.552,524.938C569.552,526.449 569.354,527.695 568.956,528.679C568.559,529.662 568.003,530.495 567.287,531.179C566.57,531.862 565.698,532.386 564.669,532.751C563.641,533.115 562.488,533.298 561.212,533.298C559.975,533.298 558.849,533.132 557.833,532.8C556.818,532.468 555.949,531.973 555.226,531.315C554.503,530.658 553.953,529.844 553.576,528.874C553.198,527.904 553.009,526.592 553.009,524.938L553.009,512.751C553.009,512.673 553.035,512.598 553.087,512.526C553.139,512.455 553.231,512.396 553.361,512.35C553.491,512.305 553.66,512.269 553.869,512.243C554.077,512.217 554.337,512.204 554.65,512.204C554.988,512.204 555.265,512.217 555.48,512.243C555.695,512.269 555.864,512.305 555.988,512.35C556.111,512.396 556.199,512.455 556.251,512.526C556.303,512.598 556.329,512.673 556.329,512.751L556.329,524.704C556.329,525.967 556.443,526.927 556.671,527.585C556.899,528.242 557.238,528.792 557.687,529.235C558.136,529.678 558.67,530.01 559.288,530.231C559.907,530.453 560.587,530.563 561.329,530.563C562.072,530.563 562.749,530.453 563.361,530.231C563.973,530.01 564.5,529.678 564.943,529.235C565.385,528.792 565.714,528.249 565.929,527.604C566.144,526.96 566.251,526.065 566.251,524.919L566.251,512.751C566.251,512.673 566.277,512.598 566.329,512.526C566.382,512.455 566.469,512.396 566.593,512.35C566.717,512.305 566.883,512.269 567.091,512.243C567.3,512.217 567.56,512.204 567.872,512.204C568.25,512.204 568.54,512.217 568.742,512.243C568.943,512.269 569.106,512.305 569.23,512.35C569.354,512.396 569.438,512.455 569.484,512.526C569.529,512.598 569.552,512.673 569.552,512.751L569.552,524.938Z" style="fill:rgb(100,91,91);"/>
                <path d="M592.306,515.212C592.306,515.459 592.29,515.671 592.257,515.847C592.225,516.022 592.186,516.162 592.14,516.266C592.094,516.371 592.042,516.449 591.984,516.501C591.925,516.553 591.87,516.579 591.818,516.579C591.622,516.579 591.365,516.485 591.046,516.296C590.727,516.107 590.32,515.892 589.826,515.651C589.331,515.41 588.729,515.195 588.019,515.007C587.309,514.818 586.46,514.723 585.47,514.723C584.35,514.723 583.341,514.919 582.443,515.309C581.544,515.7 580.779,516.24 580.148,516.931C579.516,517.621 579.031,518.451 578.693,519.421C578.354,520.391 578.185,521.455 578.185,522.614C578.185,523.89 578.364,525.016 578.722,525.993C579.08,526.97 579.581,527.793 580.226,528.464C580.87,529.134 581.639,529.642 582.531,529.987C583.423,530.332 584.396,530.505 585.451,530.505C586.05,530.505 586.665,530.433 587.296,530.29C587.928,530.147 588.497,529.938 589.005,529.665L589.005,524.079L584.396,524.079C584.305,524.079 584.223,524.056 584.152,524.011C584.08,523.965 584.022,523.89 583.976,523.786C583.93,523.682 583.895,523.548 583.869,523.386C583.843,523.223 583.829,523.024 583.829,522.79C583.829,522.556 583.843,522.357 583.869,522.194C583.895,522.031 583.93,521.901 583.976,521.804C584.022,521.706 584.08,521.634 584.152,521.589C584.223,521.543 584.305,521.52 584.396,521.52L591.251,521.52C591.538,521.52 591.785,521.615 591.994,521.804C592.202,521.992 592.306,522.289 592.306,522.692L592.306,530.759C592.306,531.019 592.254,531.244 592.15,531.432C592.046,531.621 591.883,531.761 591.662,531.852C591.232,532.087 590.757,532.289 590.236,532.458C589.715,532.627 589.181,532.774 588.634,532.897C588.087,533.021 587.534,533.119 586.974,533.19C586.414,533.262 585.867,533.298 585.333,533.298C583.68,533.298 582.199,533.05 580.89,532.556C579.581,532.061 578.471,531.358 577.56,530.446C576.648,529.535 575.955,528.434 575.48,527.145C575.005,525.856 574.767,524.417 574.767,522.829C574.767,521.175 575.024,519.678 575.538,518.337C576.053,516.996 576.779,515.856 577.716,514.919C578.654,513.981 579.777,513.255 581.085,512.741C582.394,512.227 583.849,511.97 585.451,511.97C586.323,511.97 587.13,512.038 587.872,512.175C588.615,512.311 589.262,512.481 589.816,512.682C590.369,512.884 590.825,513.086 591.183,513.288C591.541,513.49 591.785,513.653 591.915,513.776C592.046,513.9 592.143,514.063 592.208,514.264C592.273,514.466 592.306,514.782 592.306,515.212Z" style="fill:rgb(100,91,91);"/>
                <path d="M614.396,532.497C614.396,532.588 614.37,532.669 614.318,532.741C614.266,532.813 614.171,532.871 614.035,532.917C613.898,532.962 613.722,532.998 613.507,533.024C613.292,533.05 613.022,533.063 612.697,533.063C612.384,533.063 612.124,533.05 611.915,533.024C611.707,532.998 611.538,532.962 611.408,532.917C611.277,532.871 611.19,532.813 611.144,532.741C611.098,532.669 611.076,532.588 611.076,532.497L611.076,523.63L601.662,523.63L601.662,532.497C601.662,532.588 601.635,532.669 601.583,532.741C601.531,532.813 601.44,532.871 601.31,532.917C601.18,532.962 601.01,532.998 600.802,533.024C600.594,533.05 600.327,533.063 600.001,533.063C599.689,533.063 599.425,533.05 599.21,533.024C598.995,532.998 598.823,532.962 598.693,532.917C598.563,532.871 598.471,532.813 598.419,532.741C598.367,532.669 598.341,532.588 598.341,532.497L598.341,512.77C598.341,512.679 598.367,512.598 598.419,512.526C598.471,512.455 598.563,512.396 598.693,512.35C598.823,512.305 598.995,512.269 599.21,512.243C599.425,512.217 599.689,512.204 600.001,512.204C600.327,512.204 600.594,512.217 600.802,512.243C601.01,512.269 601.18,512.305 601.31,512.35C601.44,512.396 601.531,512.455 601.583,512.526C601.635,512.598 601.662,512.679 601.662,512.77L601.662,520.837L611.076,520.837L611.076,512.77C611.076,512.679 611.098,512.598 611.144,512.526C611.19,512.455 611.277,512.396 611.408,512.35C611.538,512.305 611.707,512.269 611.915,512.243C612.124,512.217 612.384,512.204 612.697,512.204C613.022,512.204 613.292,512.217 613.507,512.243C613.722,512.269 613.898,512.305 614.035,512.35C614.171,512.396 614.266,512.455 614.318,512.526C614.37,512.598 614.396,512.679 614.396,512.77L614.396,532.497Z" style="fill:rgb(100,91,91);"/>
                <path d="M633.751,513.669C633.751,514.151 633.703,514.499 633.605,514.714C633.507,514.929 633.367,515.036 633.185,515.036L627.579,515.036L627.579,532.497C627.579,532.588 627.55,532.669 627.492,532.741C627.433,532.813 627.345,532.871 627.228,532.917C627.111,532.962 626.945,532.998 626.73,533.024C626.515,533.05 626.245,533.063 625.919,533.063C625.581,533.063 625.311,533.05 625.109,533.024C624.907,532.998 624.741,532.962 624.611,532.917C624.481,532.871 624.389,532.813 624.337,532.741C624.285,532.669 624.259,532.588 624.259,532.497L624.259,515.036L618.654,515.036C618.563,515.036 618.481,515.01 618.41,514.958C618.338,514.906 618.276,514.824 618.224,514.714C618.172,514.603 618.136,514.46 618.117,514.284C618.097,514.108 618.087,513.903 618.087,513.669C618.087,513.434 618.097,513.229 618.117,513.054C618.136,512.878 618.172,512.735 618.224,512.624C618.276,512.513 618.338,512.435 618.41,512.389C618.481,512.344 618.563,512.321 618.654,512.321L633.185,512.321C633.276,512.321 633.357,512.344 633.429,512.389C633.501,512.435 633.559,512.513 633.605,512.624C633.65,512.735 633.686,512.878 633.712,513.054C633.738,513.229 633.751,513.434 633.751,513.669Z" style="fill:rgb(100,91,91);"/>
            </g>
            <g transform="matrix(1,0,0,1,-208.528,-27)">
                <g transform="matrix(0.848739,0,0,0.848739,141.017,319.176)">
                    <path d="M291,140L394.057,199.5L394.057,318.5L291,378L187.943,318.5L187.943,199.5L291,140Z" style="fill:rgb(100,91,91);stroke:rgb(100,91,91);stroke-width:5.89px;"/>
                </g>
                <g transform="matrix(0.260169,0,0,0.260169,262.599,452.884)">
                    <path d="M482,218L579.861,274.5L579.861,387.5L482,444L384.139,387.5L384.139,274.5L482,218Z" style="fill:white;stroke:white;stroke-width:19.22px;"/>
                </g>
                <g transform="matrix(0.474178,0,0,0.474178,154.23,361.657)">
                    <circle cx="493" cy="520" r="36" style="fill:white;stroke:white;stroke-width:10.54px;"/>
                </g>
                <g transform="matrix(0.474178,0,0,0.474178,92.5869,313.291)">
                    <g transform="matrix(-0.5,-0.866025,0.866025,-0.5,399.223,1053.22)">
                        <rect x="503" y="436" width="17" height="83" style="fill:white;stroke:white;stroke-width:4.22px;"/>
                    </g>
                    <g transform="matrix(0.5,-0.866025,0.866025,0.5,11.2225,570.814)">
                        <rect x="503" y="436" width="17" height="83" style="fill:white;stroke:white;stroke-width:4.22px;"/>
                    </g>
                    <g transform="matrix(-0.5,0.866025,-0.866025,-0.5,1212.17,225.528)">
                        <rect x="503" y="436" width="17" height="83" style="fill:white;stroke:white;stroke-width:4.22px;"/>
                    </g>
                    <g transform="matrix(0.5,-0.866025,0.866025,0.5,33.8302,726.472)">
                        <rect x="503" y="436" width="17" height="83" style="fill:white;stroke:white;stroke-width:4.22px;"/>
                    </g>
                    <g transform="matrix(-1,-4.996e-16,4.996e-16,-1,1134.5,861)">
                        <rect x="503" y="436" width="17" height="83" style="fill:white;stroke:white;stroke-width:4.22px;"/>
                    </g>
                    <g transform="matrix(1,4.44089e-16,-4.44089e-16,1,111.5,91)">
                        <rect x="503" y="436" width="17" height="83" style="fill:white;stroke:white;stroke-width:4.22px;"/>
                    </g>
                    <g transform="matrix(0.5,0.866025,-0.866025,0.5,846.777,-101.222)">
                        <rect x="503" y="436" width="17" height="83" style="fill:white;stroke:white;stroke-width:4.22px;"/>
                    </g>
                    <g transform="matrix(-0.5,-0.866025,0.866025,-0.5,545.33,1111.47)">
                        <rect x="503" y="436" width="17" height="83" style="fill:white;stroke:white;stroke-width:4.22px;"/>
                    </g>
                    <g transform="matrix(0.5,0.866025,-0.866025,0.5,700.67,-159.472)">
                        <rect x="503" y="436" width="17" height="83" style="fill:white;stroke:white;stroke-width:4.22px;"/>
                    </g>
                    <g transform="matrix(1,4.44089e-16,-4.44089e-16,1,-11.9997,-6.40768)">
                        <rect x="503" y="436" width="17" height="83" style="fill:white;stroke:white;stroke-width:4.22px;"/>
                    </g>
                    <g transform="matrix(-0.5,0.866025,-0.866025,-0.5,1234.78,381.186)">
                        <rect x="503" y="436" width="17" height="83" style="fill:white;stroke:white;stroke-width:4.22px;"/>
                    </g>
                    <g transform="matrix(1,2.77556e-16,-2.77556e-16,1,235,-6.40768)">
                        <rect x="503" y="436" width="17" height="83" style="fill:white;stroke:white;stroke-width:4.22px;"/>
                    </g>
                </g>
                <g transform="matrix(-0.474178,2.63222e-17,-2.63222e-17,-0.474178,621.77,716.343)">
                    <circle cx="493" cy="520" r="36" style="fill:white;stroke:white;stroke-width:10.54px;"/>
                </g>
                <g transform="matrix(0.237089,0.410651,-0.410651,0.237089,424.698,247.878)">
                    <circle cx="493" cy="520" r="36" style="fill:white;stroke:white;stroke-width:10.54px;"/>
                </g>
                <g transform="matrix(-0.237089,-0.410651,0.410651,-0.237089,351.302,830.122)">
                    <circle cx="493" cy="520" r="36" style="fill:white;stroke:white;stroke-width:10.54px;"/>
                </g>
                <g transform="matrix(-0.237089,0.410651,-0.410651,-0.237089,658.468,425.221)">
                    <circle cx="493" cy="520" r="36" style="fill:white;stroke:white;stroke-width:10.54px;"/>
                </g>
                <g transform="matrix(0.237089,-0.410651,0.410651,0.237089,117.532,652.779)">
                    <circle cx="493" cy="520" r="36" style="fill:white;stroke:white;stroke-width:10.54px;"/>
                </g>
                <g transform="matrix(-0.474178,-2.369e-16,2.369e-16,-0.474178,621.77,716.343)">
                    <circle cx="493" cy="520" r="36" style="fill:white;stroke:white;stroke-width:10.54px;"/>
                </g>
                <g transform="matrix(0.474178,2.10578e-16,-2.10578e-16,0.474178,154.23,361.657)">
                    <circle cx="493" cy="520" r="36" style="fill:white;stroke:white;stroke-width:10.54px;"/>
                </g>
                <g transform="matrix(-0.237089,-0.410651,0.410651,-0.237089,351.302,830.122)">
                    <circle cx="493" cy="520" r="36" style="fill:white;stroke:white;stroke-width:10.54px;"/>
                </g>
                <g transform="matrix(0.237089,0.410651,-0.410651,0.237089,424.698,247.878)">
                    <circle cx="493" cy="520" r="36" style="fill:white;stroke:white;stroke-width:10.54px;"/>
                </g>
            </g>
        </g>
    </g>
</svg>
