<?xml version="1.0" standalone="no"?>
<!DOCTYPE svg PUBLIC "-//W3C//DTD SVG 20010904//EN"
 "http://www.w3.org/TR/2001/REC-SVG-20010904/DTD/svg10.dtd">
<svg version="1.0" xmlns="http://www.w3.org/2000/svg"
 width="700.000000pt" height="700.000000pt" viewBox="0 0 700.000000 700.000000"
 preserveAspectRatio="xMidYMid meet">
<metadata>
Created by potrace 1.11, written by Peter Selinger 2001-2013
</metadata>
<g transform="translate(0.000000,700.000000) scale(0.100000,-0.100000)"
fill="#000000" stroke="none">
<path d="M3174 6796 c-59 -19 -129 -70 -162 -119 -43 -62 -62 -127 -62 -214
l0 -75 32 6 c265 53 771 53 1037 0 l34 -7 -5 89 c-7 146 -63 240 -181 302
l-52 27 -300 2 c-225 2 -310 -1 -341 -11z"/>
<path d="M3300 6310 c-599 -45 -1121 -245 -1615 -618 -128 -97 -438 -407 -536
-537 -295 -388 -490 -811 -584 -1267 -92 -447 -84 -934 21 -1368 282 -1156
1197 -2047 2337 -2274 219 -44 300 -51 577 -51 335 0 509 23 804 107 1029 290
1835 1130 2101 2188 115 457 125 936 30 1398 -94 455 -289 878 -584 1267 -97
129 -407 439 -536 536 -528 400 -1095 603 -1740 623 -88 2 -212 0 -275 -4z
m545 -404 c583 -86 1065 -326 1476 -736 155 -155 240 -256 344 -411 225 -338
365 -706 432 -1139 25 -161 25 -565 0 -735 -47 -315 -130 -582 -267 -855 -358
-713 -1009 -1223 -1781 -1394 -204 -45 -270 -51 -549 -51 -279 0 -345 6 -549
51 -684 152 -1272 567 -1655 1169 -73 114 -204 380 -251 509 -79 215 -132 455
-156 711 -14 145 -6 456 16 603 129 880 654 1623 1431 2022 295 152 594 235
989 274 80 8 423 -4 520 -18z"/>
<path d="M3293 5680 c-570 -56 -1080 -301 -1478 -711 -193 -199 -318 -375
-440 -620 -115 -233 -187 -460 -232 -734 -27 -168 -25 -574 5 -745 45 -262
107 -457 216 -685 125 -260 264 -456 470 -660 203 -203 384 -334 622 -453 338
-169 664 -246 1044 -246 305 0 529 40 815 146 564 208 1042 643 1310 1193 91
186 135 305 180 482 58 231 70 337 70 608 0 265 -12 372 -66 594 -79 323 -231
638 -443 916 -85 111 -272 302 -391 398 -331 267 -723 439 -1145 502 -129 19
-413 27 -537 15z m1229 -647 c10 -9 18 -26 18 -39 0 -12 -112 -476 -250 -1031
l-249 -1008 -750 -747 c-647 -646 -753 -748 -778 -748 -37 0 -53 16 -53 55 1
16 115 489 254 1050 l254 1020 738 732 c789 782 766 762 816 716z"/>
<path d="M3407 3581 c-75 -30 -132 -83 -168 -156 -65 -132 -30 -296 82 -385
157 -124 381 -74 470 106 20 41 24 64 24 139 0 105 -22 163 -87 226 -84 81
-219 111 -321 70z"/>
</g>
</svg>
